<svg fill="none" height="120" width="152" xmlns="http://www.w3.org/2000/svg" xmlns:xlink="http://www.w3.org/1999/xlink"><filter id="b" color-interpolation-filters="sRGB" filterUnits="userSpaceOnUse" height="104" width="152" x="0" y="16"><feFlood flood-opacity="0" result="BackgroundImageFix"/><feColorMatrix in="SourceAlpha" result="hardAlpha" values="0 0 0 0 0 0 0 0 0 0 0 0 0 0 0 0 0 0 127 0"/><feMorphology in="SourceAlpha" radius="4" result="effect1_dropShadow_941_18499"/><feOffset dy="8"/><feGaussianBlur stdDeviation="4"/><feColorMatrix values="0 0 0 0 0.0627451 0 0 0 0 0.0941176 0 0 0 0 0.156863 0 0 0 0.03 0"/><feBlend in2="BackgroundImageFix" result="effect1_dropShadow_941_18499"/><feColorMatrix in="SourceAlpha" result="hardAlpha" values="0 0 0 0 0 0 0 0 0 0 0 0 0 0 0 0 0 0 127 0"/><feMorphology in="SourceAlpha" radius="4" result="effect2_dropShadow_941_18499"/><feOffset dy="20"/><feGaussianBlur stdDeviation="12"/><feColorMatrix values="0 0 0 0 0.0627451 0 0 0 0 0.0941176 0 0 0 0 0.156863 0 0 0 0.08 0"/><feBlend in2="effect1_dropShadow_941_18499" result="effect2_dropShadow_941_18499"/><feBlend in="SourceGraphic" in2="effect2_dropShadow_941_18499" result="shape"/></filter><filter id="f" color-interpolation-filters="sRGB" filterUnits="userSpaceOnUse" height="56" width="56" x="48" y="58"><feFlood flood-opacity="0" result="BackgroundImageFix"/><feGaussianBlur in="BackgroundImageFix" stdDeviation="2"/><feComposite in2="SourceAlpha" operator="in" result="effect1_backgroundBlur_941_18499"/><feBlend in="SourceGraphic" in2="effect1_backgroundBlur_941_18499" result="shape"/></filter><linearGradient id="a"><stop offset="0" stop-color="#d0d5dd"/><stop offset=".351" stop-color="#fff" stop-opacity="0"/></linearGradient><linearGradient id="c" gradientUnits="userSpaceOnUse" x1="25.943" x2="71.2" xlink:href="#a" y1="37.486" y2="80"/><linearGradient id="d" gradientUnits="userSpaceOnUse" x1="53.029" x2="109.6" xlink:href="#a" y1="26.857" y2="80"/><linearGradient id="e" gradientUnits="userSpaceOnUse" x1="92.4" x2="132" xlink:href="#a" y1="42.8" y2="80"/><circle cx="76" cy="52" fill="#eaecf0" r="52"/><g filter="url(#b)"><path d="M77.6 16c-10.773 0-20.302 5.323-26.101 13.483A25.672 25.672 0 0 0 45.6 28.8C31.461 28.8 20 40.261 20 54.4S31.461 80 45.6 80h64c12.371 0 22.4-10.029 22.4-22.4s-10.029-22.4-22.4-22.4c-.879 0-1.746.05-2.598.149C102.098 23.968 90.78 16 77.6 16z" fill="#f9fafb"/><ellipse cx="45.6" cy="54.4" fill="url(#c)" rx="25.6" ry="25.6"/><circle cx="77.6" cy="48" fill="url(#d)" r="32"/><ellipse cx="109.6" cy="57.6" fill="url(#e)" rx="22.4" ry="22.4"/></g><g fill="#f2f4f7"><circle cx="21" cy="19" r="5"/><circle cx="18" cy="109" r="7"/><circle cx="145" cy="35" r="7"/><circle cx="134" cy="8" r="4"/></g><g filter="url(#f)"><rect fill="#344054" fill-opacity=".4" height="48" rx="24" width="48" x="52" y="62"/><path d="M85 95l-3.5-3.5m2.5-6a8.5 8.5 0 1 1-17 0 8.5 8.5 0 0 1 17 0z" stroke="#fff" stroke-linecap="round" stroke-linejoin="round" stroke-width="2"/></g></svg>