<svg fill="none" height="32" width="32" xmlns="http://www.w3.org/2000/svg"><defs><radialGradient id="a" cx="0" cy="0" gradientTransform="rotate(-55.376 28.583 1.11) scale(29.1653)" gradientUnits="userSpaceOnUse" r="1"><stop offset="0" stop-color="#b13589"/><stop offset=".793" stop-color="#c62f94"/><stop offset="1" stop-color="#8a3ac8"/></radialGradient><radialGradient id="b" cx="0" cy="0" gradientTransform="rotate(-65.136 31.087 8.52) scale(25.822)" gradientUnits="userSpaceOnUse" r="1"><stop offset="0" stop-color="#e0e8b7"/><stop offset=".445" stop-color="#fb8a2e"/><stop offset=".715" stop-color="#e2425c"/><stop offset="1" stop-color="#e2425c" stop-opacity="0"/></radialGradient><radialGradient id="c" cx="0" cy="0" gradientTransform="matrix(43.99999 -6.28571 1.34445 9.41114 -1.714 1.143)" gradientUnits="userSpaceOnUse" r="1"><stop offset=".157" stop-color="#406adc"/><stop offset=".468" stop-color="#6a45be"/><stop offset="1" stop-color="#6a45be" stop-opacity="0"/></radialGradient></defs><path d="M0 0h32v32H0z" fill="url(#a)"/><path d="M0 0h32v32H0z" fill="url(#b)"/><path d="M0 0h32v32H0z" fill="url(#c)"/><g fill="#fff"><path d="M24.4 9.4a1.8 1.8 0 1 1-3.6 0 1.8 1.8 0 0 1 3.6 0z"/><path clip-rule="evenodd" d="M16 22a6 6 0 1 0 0-12 6 6 0 0 0 0 12zm0-2.4a3.6 3.6 0 1 0 0-7.2 3.6 3.6 0 0 0 0 7.2z" fill-rule="evenodd"/><path clip-rule="evenodd" d="M4 15.52c0-4.032 0-6.049.785-7.589A7.2 7.2 0 0 1 7.93 4.785C9.471 4 11.488 4 15.52 4h.96c4.032 0 6.049 0 7.589.785a7.2 7.2 0 0 1 3.146 3.146C28 9.471 28 11.488 28 15.52v.96c0 4.032 0 6.049-.785 7.589a7.199 7.199 0 0 1-3.146 3.146C22.529 28 20.512 28 16.48 28h-.96c-4.032 0-6.049 0-7.589-.785a7.2 7.2 0 0 1-3.146-3.146C4 22.529 4 20.512 4 16.48zM15.52 6.4h.96c2.056 0 3.453.002 4.534.09 1.052.086 1.59.242 1.965.433a4.8 4.8 0 0 1 2.098 2.098c.191.375.347.913.433 1.965.088 1.08.09 2.478.09 4.534v.96c0 2.056-.002 3.453-.09 4.534-.086 1.052-.242 1.59-.433 1.965a4.8 4.8 0 0 1-2.098 2.098c-.375.191-.913.347-1.966.433-1.08.088-2.477.09-4.533.09h-.96c-2.056 0-3.453-.002-4.534-.09-1.052-.086-1.59-.242-1.965-.433a4.8 4.8 0 0 1-2.098-2.098c-.191-.375-.347-.913-.433-1.966-.088-1.08-.09-2.477-.09-4.533v-.96c0-2.056.002-3.453.09-4.534.086-1.052.242-1.59.433-1.965a4.8 4.8 0 0 1 2.098-2.098c.375-.191.913-.347 1.965-.433 1.08-.088 2.478-.09 4.534-.09z" fill-rule="evenodd"/></g></svg>