<svg fill="none" height="32" width="32" xmlns="http://www.w3.org/2000/svg"><path d="M0 0h32v32H0z" fill="#00c300"/><path d="M28 14.738C28 9.368 22.617 5 16 5 9.385 5 4 9.369 4 14.738c0 4.814 4.269 8.846 10.036 9.609.39.084.923.258 1.057.59.121.304.079.78.039 1.086 0 0-.14.847-.172 1.027-.052.303-.24 1.187 1.04.647 1.28-.539 6.91-4.07 9.427-6.968C27.166 18.823 28 16.887 28 14.74zm-16.697 3.195H8.919a.63.63 0 0 1-.629-.63v-4.768a.63.63 0 0 1 1.258 0v4.139h1.755a.63.63 0 0 1 0 1.26zm2.466-.63a.629.629 0 1 1-1.258 0v-4.768a.63.63 0 0 1 1.258 0zm5.74 0a.626.626 0 0 1-.63.63.631.631 0 0 1-.503-.251l-2.443-3.328v2.95a.63.63 0 0 1-1.26 0v-4.77a.629.629 0 0 1 1.133-.377l2.444 3.328v-2.95a.63.63 0 0 1 1.259 0zm3.858-3.013a.63.63 0 0 1 0 1.258h-1.755v1.126h1.755a.63.63 0 0 1 0 1.26h-2.384a.63.63 0 0 1-.63-.63v-4.769a.63.63 0 0 1 .63-.628h2.384a.63.63 0 0 1 0 1.258h-1.755v1.126z" fill="#fff"/></svg>