<svg fill="none" height="36" width="36" xmlns="http://www.w3.org/2000/svg"><defs><linearGradient id="a" gradientUnits="userSpaceOnUse" x1="25.875" x2="9" y1="10.25" y2="26"><stop offset="0" stop-color="#5bd066"/><stop offset="1" stop-color="#27b43e"/></linearGradient></defs><path d="M2 1h32v32H2z" fill="#37bd4a"/><path d="M27 17a9 9 0 0 1-14.105 7.413l-3.077.769.806-3.023A9 9 0 1 1 27 17z" fill="url(#a)"/><g fill="#fff"><path clip-rule="evenodd" d="M18 27.5c5.799 0 10.5-4.701 10.5-10.5S23.799 6.5 18 6.5 7.5 11.201 7.5 17c0 1.883.496 3.65 1.364 5.179L7.5 27.5l5.486-1.272A10.453 10.453 0 0 0 18 27.5zm0-1.615a8.885 8.885 0 1 0-7.281-3.792l-.796 2.984 3.037-.76A8.844 8.844 0 0 0 18 25.886z" fill-rule="evenodd"/><path d="M15.375 12.125c-.25-.501-.633-.457-1.02-.457-.69 0-1.77.828-1.77 2.37 0 1.263.558 2.646 2.433 4.714 1.81 1.996 4.189 3.03 6.164 2.994 1.974-.035 2.38-1.734 2.38-2.308 0-.254-.157-.381-.266-.416-.673-.323-1.914-.925-2.196-1.038-.283-.113-.43.04-.522.123-.256.244-.764.964-.937 1.125-.174.162-.433.08-.541.02-.397-.16-1.473-.639-2.33-1.47-1.061-1.028-1.123-1.382-1.323-1.697-.16-.252-.043-.406.016-.474.228-.263.544-.67.685-.873s.03-.51-.038-.7c-.29-.823-.535-1.512-.735-1.913z"/></g></svg>