<svg xmlns="http://www.w3.org/2000/svg" version="1" width="171" height="8" viewBox="0 0 128 6"><rect width="100%" height="100%" fill="#FFF"/><path fill="silver" d="M3.034.054h5.047a2.973 2.973 0 1 1 0 5.946H3.034a2.973 2.973 0 1 1 0-5.946zm14.6 0h5.047a2.973 2.973 0 1 1 0 5.946h-5.043a2.973 2.973 0 1 1 0-5.946zm14.6 0h5.047a2.973 2.973 0 1 1 0 5.946h-5.039a2.973 2.973 0 1 1 0-5.946zm14.6 0h5.047a2.973 2.973 0 1 1 0 5.946h-5.035a2.973 2.973 0 1 1 0-5.946zm14.6 0H66.5A2.973 2.973 0 1 1 66.5 6h-5.05a2.973 2.973 0 1 1 0-5.946zm14.6 0H81.1A2.973 2.973 0 1 1 81.1 6h-5.046a2.973 2.973 0 1 1 0-5.946zm14.6 0H95.7A2.973 2.973 0 1 1 95.7 6h-5.042a2.973 2.973 0 1 1 0-5.946zm14.6 0h5.047a2.973 2.973 0 1 1 0 5.946h-5.047a2.973 2.973 0 1 1 .028-5.946zm14.6 0h5.047a2.973 2.973 0 1 1 0 5.946h-5.047a2.973 2.973 0 1 1 .032-5.946z"/><g><path d="M-26.993 0h19.758a3 3 0 0 1 3.007 3 3 3 0 0 1-3.007 3h-19.758A3 3 0 0 1-30 3a3 3 0 0 1 3.007-3z"/><animateTransform attributeName="transform" type="translate" values="16 0;30 0;44.5 0;59 0;74 0;88.5 0;103 0;117.5 0;132 0;147 0;160.5 0" calcMode="discrete" dur="990ms" repeatCount="indefinite"/></g></svg>