<svg width="24" height="24" viewBox="0 0 24 24" fill="none" xmlns="http://www.w3.org/2000/svg">
<path d="M20.6475 12.3976L13.8975 19.1476C13.7909 19.2469 13.6498 19.301 13.5041 19.2984C13.3584 19.2959 13.2193 19.2368 13.1163 19.1338C13.0132 19.0307 12.9542 18.8917 12.9516 18.746C12.949 18.6002 13.0031 18.4592 13.1025 18.3526L18.8916 12.5626H3.75C3.60082 12.5626 3.45774 12.5033 3.35225 12.3978C3.24676 12.2923 3.1875 12.1493 3.1875 12.0001C3.1875 11.8509 3.24676 11.7078 3.35225 11.6023C3.45774 11.4968 3.60082 11.4376 3.75 11.4376H18.8916L13.1025 5.64757C13.0031 5.54094 12.949 5.3999 12.9516 5.25418C12.9542 5.10845 13.0132 4.96941 13.1163 4.86635C13.2193 4.76329 13.3584 4.70426 13.5041 4.70169C13.6498 4.69912 13.7909 4.75321 13.8975 4.85257L20.6475 11.6026C20.7528 11.708 20.812 11.851 20.812 12.0001C20.812 12.1491 20.7528 12.2921 20.6475 12.3976Z" fill="black" fill-opacity="0.8"/>
</svg>
