<svg fill="none" height="24" viewBox="0 0 24 24" width="24" xmlns="http://www.w3.org/2000/svg"><path d="m11.0306 15.9696c.0697.0697.125.1524.1627.2434.0378.0911.0572.1887.0572.2872 0 .0986-.0194.1962-.0572.2872-.0377.0911-.093.1738-.1627.2434l-3.00005 3c-.06965.0698-.15237.1251-.24342.1628-.09104.0378-.18864.0572-.2872.0572s-.19616-.0194-.28721-.0572c-.09104-.0377-.17376-.093-.24342-.1628l-3-3c-.06968-.0696-.12495-.1524-.16267-.2434-.03771-.091-.05712-.1886-.05712-.2872 0-.0985.01941-.1961.05712-.2871.03772-.0911.09299-.1738.16267-.2435.14073-.1407.33161-.2198.53063-.2198.09854 0 .19613.0194.28717.0571.09105.0377.17377.093.24345.1627l1.71938 1.7203v-13.18968c0-.19891.07902-.38967.21967-.53033.14065-.14065.33142-.21967.53033-.21967s.38968.07902.53033.21967c.14065.14066.21967.33142.21967.53033v13.18968l1.71937-1.7203c.0697-.0697.1524-.1251.2434-.1628.0911-.0377.1887-.0572.2872-.0572.0986 0 .1962.0195.2872.0572.0911.0377.1738.0931.2435.1628zm9-9-3-3c-.0697-.06973-.1524-.12505-.2435-.1628-.091-.03774-.1886-.05717-.2872-.05717-.0985 0-.1961.01943-.2872.05717-.091.03775-.1737.09307-.2434.1628l-3 3c-.1407.14073-.2198.3316-.2198.53062 0 .19903.0791.3899.2198.53063s.3316.21979.5306.21979c.1991 0 .3899-.07906.5307-.21979l1.7193-1.72031v13.18966c0 .1989.079.3897.2197.5304.1407.1406.3314.2196.5303.2196s.3897-.079.5304-.2196c.1406-.1407.2196-.3315.2196-.5304v-13.18966l1.7194 1.72031c.1407.14073.3316.21979.5306.21979.1991 0 .3899-.07906.5307-.21979.1407-.14073.2197-.3316.2197-.53063 0-.19902-.079-.38989-.2197-.53062z" fill="#000" fill-opacity=".8"/></svg>