<svg fill="none" height="24" viewBox="0 0 24 24" width="24" xmlns="http://www.w3.org/2000/svg"><path d="m10.8976 16.1025c.1054.1055.1645.2484.1645.3975s-.0591.292-.1645.3975l-2.99997 3c-.10547.1053-.24844.1645-.3975.1645s-.29203-.0592-.3975-.1645l-3-3c-.09936-.1066-.15345-.2477-.15088-.3934s.0616-.2848.16466-.3878c.10306-.1031.2421-.1621.38783-.1647.14572-.0026.28676.0515.39339.1509l2.04 2.0391v-13.6416c0-.14918.05926-.29226.16475-.39775s.24856-.16475.39775-.16475c.14918 0 .29226.05926.39775.16475s.16475.24857.16475.39775v13.6416l2.03997-2.0391c.1055-.1053.2485-.1645.3975-.1645.1491 0 .2921.0592.3975.1645zm9-9-3-3c-.1054-.10534-.2484-.16451-.3975-.16451-.149 0-.292.05917-.3975.16451l-3 3c-.0993.10663-.1534.24767-.1509.39339.0026.14573.0617.28477.1647.38783.1031.10306.2421.16209.3878.16466.1458.00257.2868-.05152.3934-.15088l2.04-2.03906v13.64156c0 .1492.0593.2923.1648.3977.1055.1055.2485.1648.3977.1648s.2923-.0593.3978-.1648c.1055-.1054.1647-.2485.1647-.3977v-13.64156l2.04 2.03906c.1067.09936.2477.15345.3934.15088s.2848-.0616.3878-.16466c.1031-.10306.1621-.2421.1647-.38783.0026-.14572-.0515-.28676-.1509-.39339z" fill="#000" fill-opacity=".8"/></svg>