<svg width="24" height="24" fill="none" xmlns="http://www.w3.org/2000/svg"><path d="M18.532 17.472a.75.75 0 0 1 0 1.059C18.429 18.63 16.014 21 12 21c-3.505 0-6.05-2.1-7.5-3.736V19.5a.75.75 0 1 1-1.5 0V15a.75.75 0 0 1 .75-.75h4.5a.75.75 0 1 1 0 1.5H5.197C6.353 17.19 8.72 19.5 12 19.5c3.375 0 5.45-2.012 5.471-2.032a.75.75 0 0 1 1.06.004zM20.25 3.75a.75.75 0 0 0-.75.75v2.236C18.05 5.1 15.505 3 12 3 7.986 3 5.57 5.37 5.47 5.47a.75.75 0 1 0 1.059 1.063C6.549 6.511 8.625 4.5 12 4.5c3.281 0 5.648 2.31 6.802 3.75H15.75a.75.75 0 1 0 0 1.5h4.5A.75.75 0 0 0 21 9V4.5a.75.75 0 0 0-.75-.75z" fill="#000"/></svg>