<svg width="24" height="24" viewBox="0 0 24 24" fill="none" xmlns="http://www.w3.org/2000/svg">
<path d="M20.7806 12.5307L14.0306 19.2807C13.9257 19.3857 13.792 19.4572 13.6465 19.4862C13.5009 19.5152 13.35 19.5003 13.2129 19.4435C13.0758 19.3867 12.9586 19.2905 12.8762 19.167C12.7938 19.0436 12.7499 18.8985 12.75 18.75V12.75H3.75C3.55109 12.75 3.36032 12.671 3.21967 12.5304C3.07902 12.3897 3 12.199 3 12C3 11.8011 3.07902 11.6104 3.21967 11.4697C3.36032 11.3291 3.55109 11.25 3.75 11.25H12.75V5.25004C12.7499 5.10162 12.7938 4.9565 12.8762 4.83305C12.9586 4.70961 13.0758 4.61339 13.2129 4.55657C13.35 4.49976 13.5009 4.48491 13.6465 4.51389C13.792 4.54288 13.9257 4.61441 14.0306 4.71942L20.7806 11.4694C20.8504 11.5391 20.9057 11.6218 20.9434 11.7128C20.9812 11.8039 21.0006 11.9015 21.0006 12C21.0006 12.0986 20.9812 12.1962 20.9434 12.2872C20.9057 12.3783 20.8504 12.461 20.7806 12.5307Z" fill="black" fill-opacity="0.8"/>
</svg>
