<svg fill="none" height="24" viewBox="0 0 24 24" width="24" xmlns="http://www.w3.org/2000/svg"><path d="m19.1476 10.8974c-.1054.1053-.2484.1645-.3975.1645-.149 0-.292-.0592-.3975-.1645l-5.79-5.78909v15.14159c0 .1492-.0592.2922-.1647.3977s-.2486.1648-.3978.1648-.2922-.0593-.3977-.1648-.1648-.2485-.1648-.3977v-15.14159l-5.78997 5.78909c-.10663.0993-.24767.1534-.39339.1509-.14573-.0026-.28477-.0617-.38783-.1647-.10306-.1031-.16209-.2421-.16466-.3878-.00257-.1458.05152-.2868.15088-.3934l6.74997-6.75003c.1055-.10534.2485-.1645.3975-.1645.1491 0 .2921.05916.3975.1645l6.75 6.75003c.1054.1054.1645.2484.1645.3975 0 .149-.0591.292-.1645.3975z" fill="#000" fill-opacity=".8"/></svg>