<svg fill="none" height="24" viewBox="0 0 24 24" width="24" xmlns="http://www.w3.org/2000/svg"><path d="m19.4429 10.7867c-.0567.1371-.1528.2542-.2761.3367-.1234.0824-.2684.1264-.4167.1265h-6v9c0 .1989-.079.3896-.2197.5303-.1406.1406-.3314.2197-.5303.2197s-.3897-.0791-.5303-.2197c-.1407-.1407-.2197-.3314-.2197-.5303v-9h-6c-.14842.0001-.29354-.0438-.41698-.1263-.12345-.0824-.21967-.1995-.27648-.3366-.05682-.1372-.07167-.2881-.04268-.4336.02898-.1456.10051-.2793.20552-.38417l6.75002-6.75c.0696-.06973.1523-.12505.2434-.16279.091-.03775.1886-.05717.2872-.05717s.1962.01942.2872.05717c.0911.03774.1738.09306.2434.16279l6.75 6.75c.1049.10497.1763.23867.2051.38417.0289.1455.014.2963-.0429.4333z" fill="#000" fill-opacity=".8"/></svg>