<svg width="24" height="24" fill="none" xmlns="http://www.w3.org/2000/svg"><path d="M18.398 17.602a.563.563 0 0 1 0 .796c-.099.098-2.46 2.415-6.398 2.415-3.718 0-6.337-2.415-7.688-4.056V19.5a.562.562 0 1 1-1.125 0V15a.562.562 0 0 1 .563-.563h4.5a.563.563 0 0 1 0 1.126H4.814c1.07 1.416 3.584 4.124 7.186 4.124 3.477 0 5.582-2.062 5.602-2.085a.563.563 0 0 1 .796 0zM20.25 3.938a.562.562 0 0 0-.563.563v2.743C18.337 5.602 15.719 3.187 12 3.187c-3.938 0-6.3 2.317-6.397 2.416a.563.563 0 0 0 .795.795c.02-.023 2.125-2.085 5.602-2.085 3.602 0 6.116 2.708 7.186 4.125H15.75a.562.562 0 1 0 0 1.124h4.5A.562.562 0 0 0 20.813 9V4.5a.563.563 0 0 0-.563-.563z" fill="#000"/></svg>