<svg fill="none" height="24" viewBox="0 0 24 24" width="24" xmlns="http://www.w3.org/2000/svg"><path d="m19.2806 11.0305c-.0697.0697-.1524.125-.2435.1628-.091.0377-.1886.0571-.2872.0571-.0985 0-.1961-.0194-.2872-.0571-.091-.0378-.1737-.0931-.2434-.1628l-5.4694-5.47033v14.68973c0 .1989-.079.3896-.2196.5303-.1407.1406-.3315.2197-.5304.2197s-.3896-.0791-.5303-.2197c-.1407-.1407-.2197-.3314-.2197-.5303v-14.68973l-5.46935 5.47033c-.14073.1407-.3316.2198-.53062.2198s-.3899-.0791-.53063-.2198-.21979-.3316-.21979-.5306c0-.1991.07906-.3899.21979-.53067l6.75-6.75c.0697-.06973.1524-.12505.2434-.16279.0911-.03775.1887-.05717.2872-.05717.0986 0 .1962.01942.2872.05717.0911.03774.1738.09306.2435.16279l6.75 6.75c.0697.06967.125.15237.1627.24347.0378.091.0572.1886.0572.2872 0 .0985-.0194.1961-.0572.2872-.0377.091-.093.1737-.1627.2434z" fill="#000" fill-opacity=".8"/></svg>