<svg width="24" height="24" fill="none" xmlns="http://www.w3.org/2000/svg"><path d="M18.53 17.47a.747.747 0 0 1 0 1.06c-.1.1-2.516 2.47-6.53 2.47-2.19 0-4.325-.853-6.214-2.476l-1.505 1.507A.75.75 0 0 1 3 19.5V15a.75.75 0 0 1 .75-.75h4.5a.75.75 0 0 1 .53 1.28l-1.929 1.93C8.07 18.483 9.828 19.5 12 19.5c3.4 0 5.45-2.01 5.47-2.03a.747.747 0 0 1 1.06 0zm2.007-13.663a.75.75 0 0 0-.818.162l-1.505 1.507C16.324 3.853 14.19 3 12 3 7.986 3 5.57 5.37 5.47 5.47a.75.75 0 1 0 1.06 1.06C6.55 6.51 8.6 4.5 12 4.5c2.172 0 3.93 1.017 5.149 2.04l-1.93 1.93a.75.75 0 0 0 .531 1.28h4.5A.75.75 0 0 0 21 9V4.5a.75.75 0 0 0-.463-.693z" fill="#000"/></svg>