<svg fill="none" height="24" viewBox="0 0 24 24" width="24" xmlns="http://www.w3.org/2000/svg"><path d="m11.1929 16.2133c.0569.1371.0718.2879.0429.4334-.0288.1455-.1002.2792-.2051.3841l-2.99997 3c-.06966.0698-.15237.1251-.24342.1628-.09105.0378-.18865.0572-.28721.0572s-.19615-.0194-.2872-.0572c-.09105-.0377-.17377-.093-.24342-.1628l-3-3c-.10501-.1048-.17654-.2385-.20552-.3841-.02899-.1456-.01414-.2965.04268-.4336.05681-.1371.15303-.2543.27648-.3367.12344-.0824.26856-.1263.41698-.1262h2.25v-11.24998c0-.19891.07902-.38967.21967-.53033.14066-.14065.33142-.21967.53033-.21967.19892 0 .38968.07902.53033.21967.14065.14066.21967.33142.21967.53033v11.24998h2.25c.1483.0001.2933.0441.4167.1265.1233.0824.2194.1996.2761.3366zm8.8378-9.2437-3-3c-.0696-.06973-.1523-.12505-.2434-.1628-.091-.03774-.1886-.05717-.2872-.05717s-.1962.01943-.2872.05717c-.091.03775-.1738.09307-.2434.1628l-3 3c-.105.10489-.1766.23858-.2055.38414-.029.14557-.0142.29646.0426.43358.0569.13711.1531.25429.2765.33669.1235.08241.2686.12633.417.12621h2.25v11.24998c0 .1989.079.3897.2197.5304.1406.1406.3314.2196.5303.2196s.3897-.079.5303-.2196c.1407-.1407.2197-.3315.2197-.5304v-11.24998h2.25c.1484.00012.2935-.0438.417-.12621.1234-.0824.2197-.19958.2765-.33669.0568-.13712.0716-.28801.0426-.43358-.0289-.14556-.1005-.27925-.2055-.38414z" fill="#000" fill-opacity=".8"/></svg>