<svg fill="none" height="24" viewBox="0 0 24 24" width="24" xmlns="http://www.w3.org/2000/svg"><path d="m21.75 12v.1425c-.0319 1.3368-.5278 2.8575-2.625 2.8575-2.1694 0-2.625-1.6313-2.625-3v-3.75004c.0002-.10282-.0207-.20458-.0615-.29897-.0407-.09439-.1004-.1794-.1754-.24973-.075-.07034-.1637-.1245-.2605-.15913s-.1997-.04898-.3023-.04217c-.1932.01659-.3729.10583-.5029.24972-.1299.14389-.2005.33172-.1974.52559v.375c-.6771-.60682-1.5221-.99431-2.4237-1.11143-.9016-.11713-1.8176.04161-2.62719.45529-.80964.41369-1.47497 1.06292-1.90836 1.86218-.43339.79929-.61451 1.71109-.5195 2.61529s.46169 1.7584 1.05175 2.4502c.59005.6917 1.3758 1.1884 2.2537 1.4248.878.2364 1.8069.2013 2.6645-.1007s1.6036-.8566 2.1397-1.5909c.0938.1639.1997.3206.3169.4687.5035.6263 1.4625 1.3763 3.1772 1.3763.2896.0009.5787-.0226.8644-.0704.0706-.0117.1431-.003.2089.0251.0659.0281.1223.0745.1626.1336.0403.0592.0629.1286.065.2002s-.0163.1422-.0531.2036c-.8814 1.4786-2.1385 2.6976-3.6434 3.5333-1.505.8356-3.2043 1.2581-4.9253 1.2246-5.13566-.1032-9.34785-4.2319-9.5466-9.3647-.05084-1.2954.15716-2.58788.61182-3.80189.45465-1.21401 1.14684-2.32516 2.03607-3.26846.88923-.94329 1.95765-1.69979 3.14274-2.22523 1.1851-.52543 2.46307-.80927 3.75917-.83489s2.5843.20749 3.7892.68568c1.205.4782 2.3025 1.19188 3.2283 2.09929.9258.90742 1.6613 1.99035 2.1636 3.18545.5023 1.19509.7612 2.47835.7616 3.77475zm-12.75 0c0 .5933.17595 1.1733.50559 1.6667.32965.4933.79821.8778 1.34631 1.1049.5482.2271 1.1514.2865 1.7334.1707.5819-.1157 1.1165-.4015 1.536-.821.4196-.4196.7053-.9541.8211-1.5361.1157-.5819.0563-1.1851-.1708-1.7333-.227-.5482-.6115-1.01671-1.1049-1.34635-.4933-.32964-1.0734-.50559-1.6667-.50559-.7956 0-1.5587.31607-2.12132.87868-.56261.56256-.87868 1.32566-.87868 2.12136z" fill="#000" fill-opacity=".8"/></svg>