<svg fill="none" height="24" viewBox="0 0 24 24" width="24" xmlns="http://www.w3.org/2000/svg"><path d="m12 2.4375c-2.53613 0-4.96839 1.00747-6.76171 2.80079s-2.80079 4.22558-2.80079 6.76171c0 2.5361 1.00747 4.9684 2.80079 6.7617s4.22558 2.8008 6.76171 2.8008c1.9809 0 4.0603-.5953 5.5613-1.5937.1243-.0827.2107-.2114.2401-.3578.0295-.1463-.0004-.2984-.0831-.4227s-.2114-.2107-.3577-.2402c-.1464-.0294-.2985.0005-.4228.0831-1.3031.8672-3.1959 1.4063-4.9378 1.4063-1.6688 0-3.30008-.4949-4.68762-1.422s-2.469-2.2449-3.10761-3.7866c-.63862-1.5418-.80571-3.2383-.48015-4.875.32557-1.63669 1.12916-3.14011 2.30917-4.32011 1.18-1.18001 2.68342-1.9836 4.32011-2.30917 1.6367-.32556 3.3332-.15847 4.875.48015 1.5417.63861 2.8595 1.72007 3.7866 3.10761s1.422 3.01882 1.422 4.68762c0 2.7731-1.2919 3.1875-2.0625 3.1875s-2.0625-.4144-2.0625-3.1875v-3.75c0-.14918-.0593-.29226-.1648-.39775-.1054-.10549-.2485-.16475-.3977-.16475s-.2923.05926-.3977.16475c-.1055.10549-.1648.24857-.1648.39775v.84375c-.6046-.66482-1.4018-1.12415-2.2802-1.31382s-1.7941-.1002-2.6192.25591c-.82504.35611-1.51825.96107-1.98274 1.73035-.4645.76931-.67708 1.66441-.60803 2.56041.06904.896.41626 1.748.99313 2.4371.57687.689 1.35454 1.1806 2.22444 1.4061s1.7885.1736 2.6275-.1484c.8389-.322 1.5564-.898 2.052-1.6476.5081 1.245 1.4681 1.9387 2.7806 1.9387 1.9959 0 3.1875-1.6125 3.1875-4.3125-.003-2.53522-1.0114-4.96575-2.8041-6.75842s-4.2232-2.8011-6.7584-2.80408zm0 12.75c-.6304 0-1.2467-.1869-1.7709-.5372-.52416-.3502-.93271-.8481-1.17397-1.4305-.24125-.5824-.30437-1.2233-.18138-1.8417.12299-.6183.42657-1.1862.87235-1.632.4458-.44578 1.0137-.74936 1.632-.87235.6184-.12299 1.2593-.05987 1.8417.18138.5824.24126 1.0803.64981 1.4305 1.17397.3503.5242.5372 1.1405.5372 1.7709 0 .8454-.3358 1.6561-.9336 2.2539s-1.4085.9336-2.2539.9336z" fill="#000" fill-opacity=".8"/></svg>