<svg fill="none" height="24" viewBox="0 0 24 24" width="24" xmlns="http://www.w3.org/2000/svg"><path d="m12 2.25c-2.58586 0-5.06581 1.02723-6.89429 2.85571s-2.85571 4.30843-2.85571 6.89429c0 2.5859 1.02723 5.0658 2.85571 6.8943s4.30843 2.8557 6.89429 2.8557c2.0166 0 4.1344-.6075 5.6653-1.6247.0821-.0545.1526-.1247.2075-.2065.055-.0818.0932-.1736.1127-.2702s.0197-.196.0007-.2927-.0568-.1887-.1114-.2707c-.0545-.0821-.1247-.1526-.2065-.2075-.0817-.055-.1736-.0933-.2701-.1127-.0966-.0195-.1961-.0197-.2928-.0007-.0967.0189-.1887.0568-.2707.1113-1.2722.8475-3.1275 1.3744-4.8347 1.3744-1.6317 0-3.22675-.4839-4.58345-1.3904-1.35671-.9065-2.41413-2.195-3.03856-3.7025-.62442-1.5075-.7878-3.1663-.46947-4.7666.31833-1.60034 1.10407-3.07035 2.25785-4.22413s2.62379-1.93952 4.22413-2.25785c1.6003-.31833 3.2591-.15495 4.7666.46947 1.5075.62443 2.796 1.68185 3.7025 3.03856.9065 1.3567 1.3904 2.95175 1.3904 4.58345 0 2.4797-1.02 3-1.875 3s-1.875-.5203-1.875-3v-3.75c0-.19891-.079-.38968-.2197-.53033-.1406-.14065-.3314-.21967-.5303-.21967s-.3897.07902-.5303.21967c-.1407.14065-.2197.33142-.2197.53033v.39937c-.673-.60344-1.5122-.99019-2.4082-1.10986-.896-.11968-1.8073.03326-2.61514.43891-.80783.40564-1.47477 1.04518-1.91393 1.83529-.43916.79009-.63018 1.69419-.54818 2.59439.08201.9002.43323 1.7549 1.00792 2.4527.57469.6977 1.3462 1.2062 2.21403 1.4592.8678.253 1.7917.2388 2.6514-.0408.8596-.2796 1.6151-.8116 2.168-1.5267.5625 1.125 1.5328 1.7475 2.8191 1.7475 2.1131 0 3.375-1.6819 3.375-4.5-.0027-2.58502-1.0308-5.06339-2.8587-6.89128-1.8279-1.82788-4.3063-2.85599-6.8913-2.85872zm0 12.75c-.5933 0-1.1734-.1759-1.6667-.5056-.49336-.3296-.87788-.7982-1.10494-1.3463-.22706-.5482-.28647-1.1514-.17072-1.7334.11576-.5819.40148-1.1165.82104-1.53602.41952-.41956.95412-.70528 1.53602-.82104.582-.11575 1.1852-.05634 1.7334.17072.5481.22706 1.0167.61158 1.3463 1.10494.3297.4933.5056 1.0734.5056 1.6667 0 .7956-.3161 1.5587-.8787 2.1213s-1.3257.8787-2.1213.8787z" fill="#000" fill-opacity=".8"/></svg>