<svg fill="none" height="24" viewBox="0 0 24 24" width="24" xmlns="http://www.w3.org/2000/svg"><path d="m20.7936 16.4944c-.5203-.8963-1.2937-3.4322-1.2937-6.7444 0-1.98912-.7902-3.89678-2.1967-5.3033s-3.3142-2.1967-5.3033-2.1967-3.89679.79018-5.30331 2.1967-2.1967 3.31418-2.1967 5.3033c0 3.3131-.77438 5.8481-1.29469 6.7444-.13287.2278-.20331.4867-.20421.7505-.00091.2637.06775.5231.19906.7518.1313.2288.3206.4189.54881.5511.22822.1323.48727.202.75103.2022h3.82594c.17303.8467.63321 1.6077 1.30269 2.1542s1.50718.845 2.37138.845 1.7019-.2985 2.3714-.845c.6694-.5465 1.1296-1.3075 1.3027-2.1542h3.8259c.2637-.0004.5226-.0702.7507-.2025.2281-.1324.4172-.3225.5484-.5512s.1998-.488.1989-.7517c-.001-.2637-.0714-.5224-.2043-.7502zm-8.7937 3.7556c-.4652-.0001-.9189-.1445-1.2986-.4131-.3798-.2686-.667-.6483-.82203-1.0869h4.24123c-.155.4386-.4422.8183-.822 1.0869-.3797.2686-.8334.413-1.2986.4131z" fill="#000" fill-opacity=".8"/></svg>