<svg fill="none" height="24" viewBox="0 0 24 24" width="24" xmlns="http://www.w3.org/2000/svg"><path d="m21 4.5h-6c-.5822 0-1.1563.13554-1.6771.3959-.5207.26035-.9736.63836-1.3229 1.1041-.3493-.46574-.8022-.84375-1.3229-1.1041-.5208-.26036-1.09493-.3959-1.6771-.3959h-6c-.39782 0-.77936.15804-1.06066.43934s-.43934.66284-.43934 1.06066v12c0 .3978.15804.7794.43934 1.0607s.66284.4393 1.06066.4393h6c.59674 0 1.169.2371 1.591.659.4219.422.659.9943.659 1.591 0 .1989.079.3897.2197.5303.1406.1407.3314.2197.5303.2197s.3897-.079.5303-.2197c.1407-.1406.2197-.3314.2197-.5303 0-.5967.2371-1.169.659-1.591.422-.4219.9943-.659 1.591-.659h6c.3978 0 .7794-.158 1.0607-.4393s.4393-.6629.4393-1.0607v-12c0-.39782-.158-.77936-.4393-1.06066s-.6629-.43934-1.0607-.43934zm-12 13.5h-6v-12h6c.59674 0 1.169.23705 1.591.65901.4219.42196.659.99425.659 1.59099v10.5c-.6485-.488-1.4384-.7513-2.25-.75zm12 0h-6c-.8116-.0013-1.6015.262-2.25.75v-10.5c0-.59674.2371-1.16903.659-1.59099.422-.42196.9943-.65901 1.591-.65901h6z" fill="#000" fill-opacity=".8"/></svg>