<svg fill="none" height="24" viewBox="0 0 24 24" width="24" xmlns="http://www.w3.org/2000/svg"><path d="m22.5 6v12c0 .3978-.158.7794-.4393 1.0607s-.6629.4393-1.0607.4393h-6c-.5967 0-1.169.2371-1.591.659-.4219.422-.659.9943-.659 1.591 0 .1989-.079.3897-.2197.5303-.1406.1407-.3314.2197-.5303.2197s-.3897-.079-.5303-.2197c-.1407-.1406-.2197-.3314-.2197-.5303 0-.5967-.2371-1.169-.659-1.591-.422-.4219-.99426-.659-1.591-.659h-6c-.39782 0-.77936-.158-1.06066-.4393s-.43934-.6629-.43934-1.0607v-12c0-.39782.15804-.77936.43934-1.06066s.66284-.43934 1.06066-.43934h5.25c.79565 0 1.55871.31607 2.1213.87868.5626.56261.8787 1.32567.8787 2.12132v8.25c0 .1989.079.3897.2197.5303.1406.1407.3314.2197.5303.2197s.3897-.079.5303-.2197c.1407-.1406.2197-.3314.2197-.5303v-8.25c0-.79565.3161-1.55871.8787-2.12132s1.3257-.87868 2.1213-.87868h5.25c.3978 0 .7794.15804 1.0607.43934s.4393.66284.4393 1.06066z" fill="#000" fill-opacity=".8"/></svg>