<svg fill="none" height="24" viewBox="0 0 24 24" width="24" xmlns="http://www.w3.org/2000/svg"><path d="m21 4.6875h-6c-.598.00044-1.1862.15139-1.7105.43892-.5242.28754-.9677.70241-1.2895 1.20639-.3218-.50398-.7653-.91885-1.2895-1.20639-.5243-.28753-1.11255-.43848-1.7105-.43892h-6c-.3481 0-.68194.13828-.92808.38442s-.38442.57998-.38442.92808v12c0 .3481.13828.6819.38442.9281.24614.2461.57998.3844.92808.3844h6c.64647 0 1.2665.2568 1.7236.7139s.7139 1.0771.7139 1.7236c0 .1492.0593.2923.1648.3977.1054.1055.2485.1648.3977.1648s.2923-.0593.3977-.1648c.1055-.1054.1648-.2485.1648-.3977 0-.6465.2568-1.2665.7139-1.7236s1.0771-.7139 1.7236-.7139h6c.3481 0 .6819-.1383.9281-.3844.2461-.2462.3844-.58.3844-.9281v-12c0-.3481-.1383-.68194-.3844-.92808-.2462-.24614-.58-.38442-.9281-.38442zm-12 13.5h-6c-.04973 0-.09742-.0198-.13258-.0549-.03517-.0352-.05492-.0829-.05492-.1326v-12c0-.04973.01975-.09742.05492-.13258.03516-.03517.08285-.05492.13258-.05492h6c.64647 0 1.2665.25681 1.7236.71393s.7139 1.0771.7139 1.72357v10.9041c-.6593-.6215-1.53141-.9673-2.4375-.9666zm12.1875-.1875c0 .0497-.0198.0974-.0549.1326-.0352.0351-.0829.0549-.1326.0549h-6c-.9062-.0004-1.7783.3457-2.4375.9675v-10.905c0-.64647.2568-1.26645.7139-1.72357s1.0771-.71393 1.7236-.71393h6c.0497 0 .0974.01975.1326.05492.0351.03516.0549.08285.0549.13258z" fill="#000" fill-opacity=".8"/></svg>