<svg fill="none" height="24" viewBox="0 0 24 24" width="24" xmlns="http://www.w3.org/2000/svg"><path d="m17.25 3h-10.5c-.39782 0-.77936.15804-1.06066.43934s-.43934.66284-.43934 1.06066v16.5c.00007.1338.03595.2652.10393.3805s.16557.2103.28266.2752c.11708.0649.24939.0972.38319.0937.1338-.0036.26422-.0428.37772-.1138l5.6025-3.5015 5.6034 3.5015c.1135.0707.2438.1098.3775.1132s.2658-.029.3827-.0938c.117-.0648.2145-.1597.2824-.2749s.1038-.2464.104-.3801v-16.5c0-.39782-.158-.77936-.4393-1.06066s-.6629-.43934-1.0607-.43934z" fill="#000" fill-opacity=".8"/></svg>