<svg fill="none" height="24" viewBox="0 0 24 24" width="24" xmlns="http://www.w3.org/2000/svg"><path d="m19.5 3.1875h-2.4375v-.9375c0-.14918-.0593-.29226-.1648-.39775-.1054-.10549-.2485-.16475-.3977-.16475s-.2923.05926-.3977.16475c-.1055.10549-.1648.24857-.1648.39775v.9375h-7.875v-.9375c0-.14918-.05926-.29226-.16475-.39775s-.24857-.16475-.39775-.16475-.29226.05926-.39775.16475-.16475.24857-.16475.39775v.9375h-2.4375c-.3481 0-.68194.13828-.92808.38442s-.38442.57998-.38442.92808v15c0 .3481.13828.6819.38442.9281.24614.2461.57998.3844.92808.3844h15c.3481 0 .6819-.1383.9281-.3844.2461-.2462.3844-.58.3844-.9281v-15c0-.3481-.1383-.68194-.3844-.92808-.2462-.24614-.58-.38442-.9281-.38442zm-15 1.125h2.4375v.9375c0 .14918.05926.29226.16475.39775s.24857.16475.39775.16475.29226-.05926.39775-.16475.16475-.24857.16475-.39775v-.9375h7.875v.9375c0 .14918.0593.29226.1648.39775.1054.10549.2485.16475.3977.16475s.2923-.05926.3977-.16475c.1055-.10549.1648-.24857.1648-.39775v-.9375h2.4375c.0497 0 .0974.01975.1326.05492.0351.03516.0549.08285.0549.13258v3.1875h-15.375v-3.1875c0-.04973.01975-.09742.05492-.13258.03516-.03517.08285-.05492.13258-.05492zm15 15.375h-15c-.04973 0-.09742-.0198-.13258-.0549-.03517-.0352-.05492-.0829-.05492-.1326v-10.6875h15.375v10.6875c0 .0497-.0198.0974-.0549.1326-.0352.0351-.0829.0549-.1326.0549zm-3.7275-8.085c.1053.1055.1645.2484.1645.3975s-.0592.292-.1645.3975l-4.5 4.5c-.1055.1053-.2484.1645-.3975.1645s-.292-.0592-.3975-.1645l-2.25-2.25c-.09936-.1066-.15345-.2477-.15088-.3934s.0616-.2848.16466-.3878c.10306-.1031.2421-.1621.38783-.1647.14572-.0026.28676.0515.39339.1509l1.8525 1.8516 4.1025-4.1016c.1055-.1053.2484-.1645.3975-.1645s.292.0592.3975.1645z" fill="#000" fill-opacity=".8"/></svg>