<svg fill="none" height="24" viewBox="0 0 24 24" width="24" xmlns="http://www.w3.org/2000/svg"><path d="m19.5 3h-2.25v-.75c0-.19891-.079-.38968-.2197-.53033-.1406-.14065-.3314-.21967-.5303-.21967s-.3897.07902-.5303.21967c-.1407.14065-.2197.33142-.2197.53033v.75h-7.5v-.75c0-.19891-.07902-.38968-.21967-.53033s-.33142-.21967-.53033-.21967-.38968.07902-.53033.21967-.21967.33142-.21967.53033v.75h-2.25c-.39782 0-.77936.15804-1.06066.43934s-.43934.66284-.43934 1.06066v15c0 .3978.15804.7794.43934 1.0607s.66284.4393 1.06066.4393h15c.3978 0 .7794-.158 1.0607-.4393s.4393-.6629.4393-1.0607v-15c0-.39782-.158-.77936-.4393-1.06066s-.6629-.43934-1.0607-.43934zm-12.75 1.5v.75c0 .19891.07902.38968.21967.53033s.33142.21967.53033.21967.38968-.07902.53033-.21967.21967-.33142.21967-.53033v-.75h7.5v.75c0 .19891.079.38968.2197.53033.1406.14065.3314.21967.5303.21967s.3897-.07902.5303-.21967c.1407-.14065.2197-.33142.2197-.53033v-.75h2.25v3h-15v-3zm12.75 15h-15v-10.5h15zm-3.5944-8.0306c.0698.0696.1251.1523.1628.2434.0378.091.0572.1886.0572.2872s-.0194.1962-.0572.2872c-.0377.0911-.093.1738-.1628.2434l-4.5 4.5c-.0696.0698-.1523.1251-.2434.1628-.091.0378-.1886.0572-.2872.0572s-.1962-.0194-.2872-.0572c-.0911-.0377-.1738-.093-.2434-.1628l-2.25003-2.25c-.14073-.1407-.21979-.3316-.21979-.5306s.07906-.3899.21979-.5306c.14074-.1408.33161-.2198.53063-.2198s.38989.079.53063.2198l1.71937 1.7203 3.9694-3.9703c.0696-.0698.1523-.1251.2434-.1628.091-.0378.1886-.0572.2872-.0572s.1962.0194.2872.0572c.0911.0377.1738.093.2434.1628z" fill="#000" fill-opacity=".8"/></svg>