<svg fill="none" height="24" viewBox="0 0 24 24" width="24" xmlns="http://www.w3.org/2000/svg"><path d="m20.0306 18.9696c.0696.0697.1249.1524.1626.2435.0377.091.0571.1886.0571.2871 0 .0986-.0194.1962-.0571.2872s-.093.1738-.1626.2434c-.0697.0697-.1525.125-.2435.1627s-.1886.0571-.2872.0571c-.0985 0-.1961-.0194-.2871-.0571-.0911-.0377-.1738-.093-.2435-.1627l-6.9694-6.9703-6.96935 6.9703c-.14073.1408-.3316.2198-.53062.2198s-.3899-.079-.53063-.2198c-.14073-.1407-.21979-.3316-.21979-.5306s.07906-.3899.21979-.5306l7.5-7.5c.0697-.0697.1524-.1251.2434-.1628.0911-.0377.1887-.0572.2872-.0572.0986 0 .1962.0195.2872.0572.0911.0377.1738.0931.2435.1628zm-15.00005-6.4388 6.96935-6.97026 6.9694 6.97026c.0697.0697.1524.125.2435.1627.091.0377.1886.0571.2871.0571.0986 0 .1962-.0194.2872-.0571s.1738-.093.2435-.1627c.0696-.0696.1249-.1524.1626-.2434s.0571-.1886.0571-.2872c0-.0985-.0194-.1961-.0571-.2871-.0377-.0911-.093-.1738-.1626-.2435l-7.5-7.5c-.0697-.06973-.1524-.12505-.2435-.1628-.091-.03774-.1886-.05717-.2872-.05717-.0985 0-.1961.01943-.2872.05717-.091.03775-.1737.09307-.2434.1628l-7.5 7.5c-.14073.1407-.21979.3316-.21979.5306s.07906.3899.21979.5306c.14073.1408.33161.2198.53063.2198s.38989-.079.53062-.2198z" fill="#000" fill-opacity=".8"/></svg>