<svg width="24" height="24" viewBox="0 0 24 24" fill="none" xmlns="http://www.w3.org/2000/svg">
<path d="M15.3975 19.1028C15.4528 19.1542 15.4971 19.2163 15.5278 19.2853C15.5586 19.3543 15.5751 19.4288 15.5764 19.5044C15.5778 19.5799 15.5639 19.6549 15.5356 19.7249C15.5073 19.795 15.4652 19.8586 15.4118 19.912C15.3584 19.9654 15.2947 20.0076 15.2247 20.0358C15.1546 20.0641 15.0796 20.078 15.0041 20.0767C14.9286 20.0754 14.8541 20.0588 14.7851 20.0281C14.7161 19.9973 14.654 19.953 14.6025 19.8978L7.10249 12.3978C6.99716 12.2923 6.93799 12.1493 6.93799 12.0003C6.93799 11.8512 6.99716 11.7082 7.10249 11.6028L14.6025 4.10275C14.7091 4.00339 14.8502 3.9493 14.9959 3.95187C15.1416 3.95444 15.2807 4.01347 15.3837 4.11653C15.4868 4.21959 15.5458 4.35863 15.5484 4.50436C15.5509 4.65008 15.4969 4.79112 15.3975 4.89775L8.29593 12.0003L15.3975 19.1028Z" fill="black" fill-opacity="0.8"/>
</svg>
