<svg fill="none" height="24" viewBox="0 0 24 24" width="24" xmlns="http://www.w3.org/2000/svg"><path d="m20.0307 18.9696c.105.1049.1766.2386.2055.3841.029.1456.0142.2965-.0426.4336s-.1531.2543-.2765.3367c-.1235.0824-.2686.1263-.417.1262h-15c-.14842.0001-.29354-.0438-.41698-.1262-.12345-.0824-.21967-.1996-.27648-.3367-.05682-.1371-.07167-.288-.04268-.4336.02898-.1455.10051-.2792.20552-.3841l6.22032-6.2194h-5.6897c-.14842.0001-.29354-.0438-.41698-.1262-.12345-.0824-.21967-.1996-.27648-.3367-.05682-.1371-.07167-.288-.04268-.4336.02898-.1455.10051-.2792.20552-.3841l7.50002-7.5c.0696-.06973.1523-.12505.2434-.1628.091-.03774.1886-.05717.2872-.05717s.1962.01943.2872.05717c.0911.03775.1738.09307.2434.1628l7.5 7.5c.105.1049.1766.2386.2055.3841.029.1456.0142.2965-.0426.4336s-.1531.2543-.2765.3367c-.1235.0824-.2686.1263-.417.1262h-5.6897z" fill="#000" fill-opacity=".8"/></svg>