<svg fill="none" height="24" viewBox="0 0 24 24" width="24" xmlns="http://www.w3.org/2000/svg"><path d="m19.8976 19.1024c.0553.0515.0996.1136.1304.1826.0307.069.0472.1435.0486.219.0013.0755-.0126.1505-.0409.2206-.0283.07-.0704.1336-.1238.187-.0534.0535-.117.0956-.1871.1239-.07.0283-.145.0421-.2206.0408-.0755-.0013-.15-.0178-.219-.0486-.069-.0307-.1311-.0751-.1826-.1303l-7.1025-7.1016-7.10247 7.1016c-.10663.0993-.24767.1534-.39339.1509-.14573-.0026-.28477-.0617-.38783-.1647-.10306-.1031-.16209-.2421-.16466-.3878-.00257-.1458.05152-.2868.15088-.3934l7.49997-7.5c.1055-.1054.2485-.1645.3975-.1645.1491 0 .2921.0591.3975.1645zm-14.99997-6.705 7.10247-7.10159 7.1025 7.10159c.1067.0993.2477.1534.3934.1509.1457-.0026.2848-.0617.3878-.1647.1031-.1031.1621-.2421.1647-.3878.0026-.1458-.0515-.2868-.1509-.3934l-7.5-7.50003c-.1054-.10534-.2484-.1645-.3975-.1645-.149 0-.292.05916-.3975.1645l-7.49997 7.50003c-.09936.1066-.15345.2476-.15088.3934.00257.1457.0616.2847.16466.3878.10306.103.2421.1621.38783.1647.14572.0025.28676-.0516.39339-.1509z" fill="#000" fill-opacity=".8"/></svg>