<svg width="24" height="24" viewBox="0 0 24 24" fill="none" xmlns="http://www.w3.org/2000/svg">
<path d="M15.7501 4.50022V19.5002C15.7502 19.6486 15.7063 19.7938 15.6239 19.9172C15.5415 20.0407 15.4243 20.1369 15.2872 20.1937C15.1501 20.2505 14.9992 20.2654 14.8536 20.2364C14.7081 20.2074 14.5744 20.1359 14.4695 20.0309L6.96948 12.5309C6.89974 12.4612 6.84443 12.3785 6.80668 12.2874C6.76894 12.1964 6.74951 12.0988 6.74951 12.0002C6.74951 11.9017 6.76894 11.8041 6.80668 11.713C6.84443 11.622 6.89974 11.5393 6.96948 11.4696L14.4695 3.9696C14.5744 3.86459 14.7081 3.79307 14.8536 3.76408C14.9992 3.73509 15.1501 3.74994 15.2872 3.80676C15.4243 3.86357 15.5415 3.95979 15.6239 4.08324C15.7063 4.20668 15.7502 4.3518 15.7501 4.50022Z" fill="black" fill-opacity="0.8"/>
</svg>
