<svg fill="none" height="24" viewBox="0 0 24 24" width="24" xmlns="http://www.w3.org/2000/svg"><path d="m21 18.9375h-.9375v-15.1875c0-.14918-.0593-.29226-.1648-.39775-.1054-.10549-.2485-.16475-.3977-.16475h-5.25c-.1492 0-.2923.05926-.3977.16475-.1055.10549-.1648.24857-.1648.39775v3.9375h-4.6875c-.14918 0-.29226.05926-.39775.16475s-.16475.24857-.16475.39775v3.9375h-3.9375c-.14918 0-.29226.0593-.39775.1648-.10549.1054-.16475.2485-.16475.3977v6.1875h-.9375c-.14918 0-.29226.0593-.39775.1648-.10549.1054-.16475.2485-.16475.3977s.05926.2923.16475.3977c.10549.1055.24857.1648.39775.1648h18c.1492 0 .2923-.0593.3977-.1648.1055-.1054.1648-.2485.1648-.3977s-.0593-.2923-.1648-.3977c-.1054-.1055-.2485-.1648-.3977-.1648zm-6.1875-14.625h4.125v14.625h-4.125zm-5.25 4.5h4.125v10.125h-4.125zm-4.5 4.5h3.375v5.625h-3.375z" fill="#000" fill-opacity=".8"/></svg>