<svg fill="none" height="24" viewBox="0 0 24 24" width="24" xmlns="http://www.w3.org/2000/svg"><path d="m21.75 19.5c0 .1989-.079.3897-.2197.5303-.1406.1407-.3314.2197-.5303.2197h-18c-.19891 0-.38968-.079-.53033-.2197-.14065-.1406-.21967-.3314-.21967-.5303s.07902-.3897.21967-.5303c.14065-.1407.33142-.2197.53033-.2197h.75v-6c0-.1989.07902-.3897.21967-.5303.14065-.1407.33142-.2197.53033-.2197h2.25c.19891 0 .38968.079.53033.2197.14065.1406.21967.3314.21967.5303v6h1.5v-10.5c0-.19891.07902-.38968.21967-.53033s.33142-.21967.53033-.21967h3c.1989 0 .3897.07902.5303.21967.1407.14065.2197.33142.2197.53033v10.5h1.5v-15c0-.19891.079-.38968.2197-.53033.1406-.14065.3314-.21967.5303-.21967h3.75c.1989 0 .3897.07902.5303.21967.1407.14065.2197.33142.2197.53033v15h.75c.1989 0 .3897.079.5303.2197.1407.1406.2197.3314.2197.5303z" fill="#000" fill-opacity=".8"/></svg>