<svg fill="none" height="24" viewBox="0 0 24 24" width="24" xmlns="http://www.w3.org/2000/svg"><path d="m20.25 4.5h-16.49997c-.39783 0-.77936.15804-1.06066.43934-.28131.2813-.43934.66284-.43934 1.06066v15c-.00173.286.07918.5665.23302.8076.15384.2412.37405.4328.63416.5518.19822.0923.41417.1403.63282.1406.35213-.0008.69257-.1264.96093-.3544.00448-.0029.00857-.0064.01219-.0103l3.01125-2.6353h12.5156c.3979 0 .7794-.158 1.0607-.4393s.4393-.6629.4393-1.0607v-12c0-.39782-.158-.77936-.4393-1.06066s-.6628-.43934-1.0607-.43934zm-5.25 9.75h-5.99997c-.19891 0-.38968-.079-.53033-.2197-.14066-.1406-.21967-.3314-.21967-.5303s.07901-.3897.21967-.5303c.14065-.1407.33142-.2197.53033-.2197h5.99997c.1989 0 .3897.079.5304.2197.1406.1406.2196.3314.2196.5303s-.079.3897-.2196.5303c-.1407.1407-.3315.2197-.5304.2197zm0-3h-5.99997c-.19891 0-.38968-.079-.53033-.2197-.14066-.1406-.21967-.3314-.21967-.5303s.07901-.3897.21967-.53033c.14065-.14065.33142-.21967.53033-.21967h5.99997c.1989 0 .3897.07902.5304.21967.1406.14063.2196.33143.2196.53033s-.079.3897-.2196.5303c-.1407.1407-.3315.2197-.5304.2197z" fill="#000" fill-opacity=".8"/></svg>