<svg fill="none" height="24" viewBox="0 0 24 24" width="24" xmlns="http://www.w3.org/2000/svg"><path d="m20.25 4.6875h-16.49998c-.3481 0-.68194.13828-.92808.38442s-.38442.57998-.38442.92808v15c-.00136.2502.06947.4956.20399.7066.13451.211.32702.3787.55445.4831.17362.0805.36266.1224.55406.1228.3092.0002.60834-.1098.84375-.3103l.00844-.0075 3.01312-2.6409c.03374-.0271.07581-.0417.11906-.0413h12.51561c.3481 0 .682-.1383.9281-.3844.2461-.2462.3844-.58.3844-.9281v-12c0-.3481-.1383-.68194-.3844-.92808s-.58-.38442-.9281-.38442zm.1875 13.3125c0 .0497-.0197.0974-.0549.1326-.0352.0351-.0829.0549-.1326.0549h-12.51561c-.30877.0004-.60753.1096-.84375.3084l-.00843.0075-3.015 2.641c-.02745.0219-.06052.0358-.09544.0398-.03492.0041-.07028-.0017-.10205-.0167-.03177-.0151-.05867-.0388-.07763-.0684-.01895-.0296-.0292-.0639-.02957-.0991v-15c0-.04973.01975-.09742.05492-.13258.03516-.03517.08285-.05492.13258-.05492h16.49998c.0497 0 .0974.01975.1326.05492.0352.03516.0549.08285.0549.13258zm-4.875-7.5c0 .1492-.0592.2923-.1647.3977-.1055.1055-.2486.1648-.3978.1648h-5.99998c-.14919 0-.29226-.0593-.39775-.1648-.10549-.1054-.16475-.2485-.16475-.3977s.05926-.2923.16475-.3977c.10549-.10554.24856-.1648.39775-.1648h5.99998c.1492 0 .2923.05926.3978.1648.1055.1054.1647.2485.1647.3977zm0 3c0 .1492-.0592.2923-.1647.3977-.1055.1055-.2486.1648-.3978.1648h-5.99998c-.14919 0-.29226-.0593-.39775-.1648-.10549-.1054-.16475-.2485-.16475-.3977s.05926-.2923.16475-.3977c.10549-.1055.24856-.1648.39775-.1648h5.99998c.1492 0 .2923.0593.3978.1648.1055.1054.1647.2485.1647.3977z" fill="#000" fill-opacity=".8"/></svg>