<svg fill="none" height="24" viewBox="0 0 24 24" width="24" xmlns="http://www.w3.org/2000/svg"><path d="m12.0002 2.25c-1.6833-.00037-3.33807.43508-4.80316 1.26396-1.4651.82889-2.69063 2.02296-3.55733 3.46601-.86669 1.44304-1.34502 3.08593-1.38842 4.76863-.0434 1.6828.3496 3.3481 1.14076 4.8339l-1.06406 3.1922c-.08814.2643-.10093.5479-.03694.8191.06399.2711.20223.5191.39924.7161.197.197.44497.3352.71613.3992.27115.064.55477.0512.81907-.0369l3.19219-1.0641c1.30759.6955 2.75642 1.084 4.23662 1.1359 1.4801.0519 2.9526-.234 4.3058-.8361 1.3531-.6022 2.5513-1.5046 3.5035-2.6389.9523-1.1344 1.6336-2.4707 1.9923-3.9077.3587-1.4369.3853-2.9367.0778-4.38552-.3074-1.44877-.9409-2.80846-1.8524-3.97586-.9114-1.16739-2.0768-2.11181-3.4077-2.76156s-2.7924-.98775-4.2734-.98836zm0 18c-1.4504.001-2.87525-.3809-4.13065-1.1072-.09192-.0533-.19411-.0865-.29981-.0973s-.2125.0009-.31331.0345l-3.50625 1.17 1.16906-3.5062c.0337-.1008.04561-.2076.03494-.3133s-.04367-.2079-.09682-.2999c-.9094-1.5722-1.27452-3.4007-1.03872-5.2016.2358-1.80099 1.05934-3.4738 2.34287-4.75894 1.28352-1.28515 2.95528-2.11081 4.75599-2.34888 1.8006-.23808 3.6295.12473 5.2029 1.03215 1.5734.90741 2.8034 2.30871 3.4992 3.9865.6957 1.67777.8183 3.53827.3488 5.29287s-1.505 3.3052-2.9457 4.4112c-1.4407 1.1061-3.2062 1.7058-5.0225 1.7061z" fill="#000" fill-opacity=".8"/></svg>