<svg fill="none" height="24" viewBox="0 0 24 24" width="24" xmlns="http://www.w3.org/2000/svg"><path d="m12.0001 2.4375c-1.6577-.00035-3.28706.43024-4.72815 1.24953s-2.64444 1.99913-3.492 3.42378c-.84757 1.42464-1.31022 3.04519-1.34258 4.70249-.03236 1.6574.36669 3.2947 1.158 4.7514l-1.08938 3.269c-.07712.2313-.08831.4795-.03232.7167.05599.2373.17696.4543.34933.6267.17238.1723.38936.2933.62662.3493s.48543.0448.71668-.0323l3.26907-1.0894c1.27967.6944 2.70103 1.0875 4.15563 1.1492 1.4547.0617 2.9042-.2095 4.2381-.7931s2.5169-1.464 3.4589-2.5742c.9419-1.1102 1.6179-2.4209 1.9764-3.832s.3901-2.8855.0923-4.3106c-.2979-1.42521-.9172-2.76356-1.8108-3.91303-.8936-1.14948-2.0379-2.07972-3.3456-2.7198-1.3077-.64009-2.7443-.97311-4.2002-.97367zm0 18c-1.4832.0004-2.94031-.3903-4.22442-1.1325-.08561-.0492-.18251-.0754-.28125-.0759-.06053.0003-.12063.0101-.17812.029l-3.50532 1.1682c-.03303.011-.06849.0126-.10238.0046-.0339-.008-.06489-.0253-.08952-.0499-.02462-.0247-.0419-.0557-.0499-.0896-.008-.0338-.0064-.0693.00461-.1023l1.16813-3.5016c.02527-.0757.03417-.1558.02608-.2352-.00808-.0794-.03295-.1561-.07295-.2251-.9307-1.6077-1.3048-3.4777-1.06426-5.3197.24054-1.84206 1.08226-3.55322 2.39459-4.86805 1.31234-1.31482 3.02191-2.1598 4.86351-2.40383s3.7122.12651 5.3217 1.05416c1.6095.92764 2.8678 2.36053 3.5798 4.07634.712 1.71578.8379 3.61868.358 5.41328-.4798 1.7947-1.5385 3.3808-3.0118 4.5123s-3.2789 1.7452-5.1365 1.7458z" fill="#000" fill-opacity=".8"/></svg>