<svg fill="none" height="24" viewBox="0 0 24 24" width="24" xmlns="http://www.w3.org/2000/svg"><path d="m20.25 4.5h-16.49997c-.39783 0-.77936.15804-1.06066.43934-.28131.2813-.43934.66284-.43934 1.06066v15c-.0017.2859.07913.5662.23278.8074.15365.2411.3736.4327.63347.552.19858.0922.41481.1402.63375.1406.35212-.0008.69257-.1264.96093-.3544.00448-.0029.00857-.0064.01219-.0103l3.01125-2.6353h12.5156c.3979 0 .7794-.158 1.0607-.4393s.4393-.6629.4393-1.0607v-12c0-.39782-.158-.77936-.4393-1.06066s-.6628-.43934-1.0607-.43934zm0 13.5h-12.5156c-.35323-.0002-.69518.1243-.96562.3516l-.01125.0103-3.0075 2.6381v-15h16.49997zm-11.99997-7.5c0-.1989.07901-.3897.21967-.53033.14065-.14065.33141-.21967.53033-.21967h5.99997c.1989 0 .3897.07902.5304.21967.1406.14063.2196.33143.2196.53033s-.079.3897-.2196.5303c-.1407.1407-.3315.2197-.5304.2197h-5.99997c-.19892 0-.38968-.079-.53033-.2197-.14066-.1406-.21967-.3314-.21967-.5303zm0 3c0-.1989.07901-.3897.21967-.5303.14065-.1407.33141-.2197.53033-.2197h5.99997c.1989 0 .3897.079.5304.2197.1406.1406.2196.3314.2196.5303s-.079.3897-.2196.5303c-.1407.1407-.3315.2197-.5304.2197h-5.99997c-.19892 0-.38968-.079-.53033-.2197-.14066-.1406-.21967-.3314-.21967-.5303z" fill="#000" fill-opacity=".8"/></svg>