<svg fill="none" height="24" viewBox="0 0 24 24" width="24" xmlns="http://www.w3.org/2000/svg"><path d="m21.75 11.9999c.0004 1.6833-.4351 3.3381-1.264 4.8031-.8288 1.4651-2.0229 2.6907-3.466 3.5574-1.443.8667-3.0859 1.345-4.7686 1.3884-1.6828.0434-3.3481-.3496-4.8339-1.1408l-3.19219 1.0641c-.26429.0881-.54791.1009-.81907.0369-.27115-.064-.51913-.2022-.71613-.3992s-.33525-.445-.39924-.7161c-.06399-.2712-.0512-.5548.03694-.8191l1.06406-3.1922c-.69548-1.3076-1.08394-2.7564-1.13587-4.2366-.05194-1.4801.23401-2.95264.83613-4.30577s1.50459-2.5513 2.63892-3.50357c1.13432-.95227 2.47068-1.63361 3.90764-1.9923 1.43691-.35868 2.93671-.3853 4.38551-.07781 1.4488.30748 2.8085.94098 3.9759 1.8524 1.1674.91143 2.1118 2.07683 2.7615 3.40775.6498 1.33091.9878 2.7924.9884 4.2734z" fill="#000" fill-opacity=".8"/></svg>