<svg fill="none" height="24" viewBox="0 0 24 24" width="24" xmlns="http://www.w3.org/2000/svg"><path d="m15.765 6.97672c-.643-1.56678-1.8098-2.8618-3.3014-3.66397-1.4915-.80217-3.21529-1.06175-4.87693-.73443-1.66164.32733-3.15815 1.22127-4.23403 2.5292s-1.66442 2.94875-1.66514 4.64232v6.18746c0 .2984.11853.5846.3295.7955.21098.211.49713.3295.7955.3295h5.4375c.5568 1.3316 1.49446 2.469 2.6953 3.2696 1.2009.8005 2.6114 1.2286 4.0547 1.2304h6.1875c.2984 0 .5845-.1185.7955-.3295.211-.2109.3295-.4971.3295-.7955v-6.1875c.0002-1.807-.6687-3.5502-1.8778-4.89321-1.209-1.34303-2.8725-2.19083-4.6697-2.37987zm-12.9525 2.77312c0-1.22377.36289-2.42006 1.04278-3.43759s1.64625-1.81059 2.77687-2.27891c1.13061-.46832 2.37471-.59085 3.57495-.35211 1.2003.23875 2.3028.82805 3.1681 1.69339.8654.86534 1.4547 1.96784 1.6934 3.1681.2388 1.20026.1162 2.44438-.3521 3.57498s-1.2614 2.097-2.2789 2.7769-2.2138 1.0427-3.4376 1.0427h-6.1875zm18.375 10.68746h-6.1875c-1.1437-.0012-2.2647-.3188-3.239-.9176-.9744-.5988-1.76416-1.4554-2.28194-2.4752 1.05184-.0684 2.07634-.3637 3.00324-.8655.927-.5017 1.7343-1.1982 2.3667-2.0414.6324-.8433 1.0748-1.8134 1.2968-2.8438s.2185-2.09665-.0105-3.12552c1.4194.26494 2.7015 1.01794 3.6241 2.12862.9227 1.1106 1.4279 2.509 1.4281 3.9529z" fill="#000" fill-opacity=".8"/></svg>