<svg fill="none" height="24" viewBox="0 0 24 24" width="24" xmlns="http://www.w3.org/2000/svg"><path d="m15.8972 6.80549c-.6788-1.5891-1.8854-2.89508-3.416-3.69714-1.5306-.80207-3.29114-1.05102-4.98408-.70476-1.69294.34627-3.21438 1.26649-4.30711 2.60511-1.09274 1.33861-1.68971 3.01349-1.69001 4.74148v6.18752c0 .3481.13828.6819.38442.9281.24614.2461.57998.3844.92808.3844h5.31281c.58527 1.3365 1.547 2.4738 2.76779 3.2729 1.2208.7991 2.6478 1.2255 4.1069 1.2271h6.1875c.3481 0 .6819-.1383.9281-.3844.2461-.2462.3844-.58.3844-.9281v-6.1875c-.0004-1.8335-.6723-3.6034-1.8889-4.9751-1.2166-1.37172-2.8936-2.25027-4.7139-2.46961zm5.1028 13.44471h-6c-1.061-.0012-2.1027-.2831-3.0195-.8171s-1.676-1.301-2.2005-2.2232c1.0272-.1066 2.0213-.4244 2.9199-.9334.8986-.5091 1.6823-1.1983 2.3019-2.0246.6195-.8263 1.0616-1.7717 1.2985-2.7769.2368-1.0052.2633-2.04855.0778-3.06451 1.3156.31047 2.4878 1.05607 3.3267 2.11601.8388 1.0599 1.2952 2.372 1.2952 3.7237z" fill="#000" fill-opacity=".8"/></svg>