<svg fill="none" height="24" viewBox="0 0 24 24" width="24" xmlns="http://www.w3.org/2000/svg"><path d="m6.35997 8.68218-3.98156 3.31782 3.98156 3.3178c.05743.0471.10497.105.13988.1706.03492.0655.05651.1373.06355.2112.00703.0739-.00064.1485-.02257.2194s-.05768.1368-.1052.1939c-.04752.057-.10587.1041-.17167.1385s-.13776.0554-.21173.0618c-.07396.0065-.14847-.0018-.21923-.0243s-.13636-.0587-.19303-.1067l-4.5-3.75c-.06337-.0528-.11435-.1189-.149343-.1936-.03499-.0747-.053127-.1561-.053127-.2386s.018137-.164.053127-.2386c.034993-.0747.085973-.1408.149343-.1936l4.5-3.75c.11479-.09407.26209-.13896.40983-.1249s.28394.08593.37892.19996.14105.26097.12818.40881c-.01288.14785-.08366.28462-.19693.38051zm16.50003 2.88562-4.5-3.75c-.0567-.04797-.1223-.08425-.1931-.10675-.0707-.02249-.1452-.03076-.2192-.02432-.074.00645-.1459.02747-.2117.06186s-.1242.08146-.1717.13851-.0833.12294-.1052.19388c-.0219.07093-.0296.1455-.0226.21942.0071.07391.0287.1457.0636.21123.0349.06552.0824.12349.1399.17055l3.9815 3.31782-3.9815 3.3178c-.0575.0471-.105.105-.1399.1706-.0349.0655-.0565.1373-.0636.2112-.007.0739.0007.1485.0226.2194s.0577.1368.1052.1939c.0475.057.1059.1041.1717.1385s.1377.0554.2117.0618c.074.0065.1485-.0018.2192-.0243.0708-.0225.1364-.0587.1931-.1067l4.5-3.75c.0633-.0528.1143-.1189.1493-.1936s.0531-.1561.0531-.2386-.0181-.164-.0531-.2386c-.035-.0747-.086-.1408-.1493-.1936zm-7.6678-8.34375c-.0696-.0252-.1434-.03644-.2173-.03307-.0739.00338-.1465.0213-.2134.05273-.067.03144-.1271.07578-.1769.13048s-.0883.11869-.1134.1883l-5.99998 16.50001c-.04931.1402-.0411.2943.02284.4285.06395.1342.17842.2377.31841.2877.0602.0216.12356.033.1875.0338.11549 0 .22819-.0355.32278-.1018.0946-.0662.16651-.16.20597-.2685l5.99998-16.50002c.0253-.06944.0366-.14317.0333-.21698-.0032-.07381-.021-.14626-.0522-.21321-.0313-.06695-.0754-.12709-.1299-.17697-.0545-.04989-.1183-.08855-.1877-.11378z" fill="#000" fill-opacity=".8"/></svg>