<svg fill="none" height="24" viewBox="0 0 24 24" width="24" xmlns="http://www.w3.org/2000/svg"><path d="m20.25 3.75h-16.5c-.39782 0-.77936.15804-1.06066.43934s-.43934.66284-.43934 1.06066v13.5c0 .3978.15804.7794.43934 1.0607s.66284.4393 1.06066.4393h16.5c.3978 0 .7794-.158 1.0607-.4393s.4393-.6629.4393-1.0607v-13.5c0-.39782-.158-.77936-.4393-1.06066s-.6629-.43934-1.0607-.43934zm-11.55 9.9c.15913.1193.26433.297.29246.4939s-.02311.397-.14246.5561-.29702.2643-.49393.2925c-.19692.0281-.39694-.0232-.55607-.1425l-3-2.25c-.09315-.0699-.16875-.1604-.22082-.2646-.05207-.1041-.07918-.219-.07918-.3354s.02711-.2313.07918-.3354c.05207-.1042.12767-.1947.22082-.2646l3-2.25c.15913-.11935.35915-.17059.55607-.14246.19691.02813.37458.13333.49393.29246s.17059.35915.14246.55607c-.02813.19693-.13333.37463-.29246.49393l-2.20031 1.65zm5.5209-6.69375-3 10.49995c-.0255.0964-.0701.1867-.1309.2657-.0609.079-.137.145-.2237.1942-.0867.0493-.1823.0807-.2813.0925-.099.0119-.1994.0038-.2953-.0236-.0958-.0274-.1853-.0737-.263-.1361-.07782-.0624-.14237-.1397-.18992-.2273-.04755-.0877-.07714-.1839-.08705-.2831s.00006-.1994.02933-.2947l3.00004-10.50005c.0576-.18775.1866-.34539.3593-.43905.1726-.09365.3751-.11586.5639-.06184s.3489.17996.4459.35075.1231.3728.0727.56264zm4.9791 5.64375-3 2.25c-.1591.1193-.3592.1706-.5561.1425-.1969-.0282-.3746-.1334-.4939-.2925s-.1706-.3592-.1425-.5561c.0282-.1969.1334-.3746.2925-.4939l2.2003-1.65-2.2003-1.65c-.0788-.0591-.1452-.1331-.1954-.2179-.0501-.0847-.0831-.17853-.0971-.27603-.0139-.09751-.0085-.1968.016-.29221.0244-.09541.0674-.18507.1265-.26386s.1331-.14518.2179-.19536c.0847-.05018.1785-.08317.276-.0971s.1968-.00852.2922.01592c.0954.02445.1851.06745.2639.12654l3 2.25c.0931.0699.1687.1604.2208.2646.0521.1041.0792.219.0792.3354s-.0271.2313-.0792.3354c-.0521.1042-.1277.1947-.2208.2646z" fill="#000" fill-opacity=".8"/></svg>