<svg fill="none" height="24" viewBox="0 0 24 24" width="24" xmlns="http://www.w3.org/2000/svg"><path d="m6.47977 8.82656-3.80812 3.17344 3.80812 3.1734c.07786.0624.1425.1396.19015.2272s.07735.1838.08736.2831c.01001.0992.00013.1994-.02906.2948-.02919.0953-.07711.1839-.14095.2605s-.14232.1398-.23084.1857c-.08853.0459-.18532.0737-.28472.0818-.09941.008-.19942-.0038-.29419-.0349-.09477-.031-.18239-.0807-.25775-.146l-4.49999-3.75c-.084443-.0704-.152377-.1585-.198996-.258-.046619-.0996-.070784-.2081-.070784-.3181 0-.1099.024165-.2185.070784-.318.046619-.0996.114553-.1877.198996-.2581l4.49999-3.74997c.15292-.1273.35014-.18865.54828-.17054.19815.01811.38098.11419.50829.2671.1273.15292.18865.35014.17054.54828-.01811.19815-.11419.38098-.26711.50829zm16.50003 2.59684-4.5-3.74997c-.0757-.06303-.1631-.11054-.2572-.1398s-.193-.0397-.2911-.03074c-.0981.00897-.1935.03717-.2807.083s-.1646.10839-.2276.1841c-.1273.15292-.1886.35014-.1705.54828.0181.19815.1142.38098.2671.50829l3.8081 3.17344-3.8081 3.1734c-.0779.0624-.1425.1396-.1902.2272-.0476.0876-.0773.1838-.0873.2831-.01.0992-.0002.1994.029.2948.0292.0953.0771.1839.141.2605.0638.0766.1423.1398.2308.1857s.1853.0737.2847.0818c.0994.008.1995-.0038.2942-.0349.0948-.031.1824-.0807.2578-.146l4.5-3.75c.0844-.0704.1523-.1585.199-.258.0466-.0996.0707-.2081.0707-.3181 0-.1099-.0241-.2185-.0707-.318-.0467-.0996-.1146-.1877-.199-.2581zm-7.7241-8.37841c-.0926-.03361-.1909-.04866-.2893-.04428s-.1949.02809-.2842.06979c-.0892.0417-.1693.10057-.2358.17324-.0665.07268-.118.15773-.1516.25032l-6.00003 16.50004c-.03375.0926-.04891.191-.04461.2895.00431.0985.02799.1952.0697.2845s.10063.1696.17338.2361c.07275.0666.1579.1181.2506.1517.08216.0292.16873.0441.25593.0441.15403 0 .30432-.0474.43045-.1358s.22199-.2135.27455-.3583l6.00003-16.49997c.0336-.09258.0486-.19088.0443-.28927-.0044-.0984-.0281-.19497-.0698-.2842-.0417-.08924-.1006-.16938-.1733-.23586-.0726-.06648-.1577-.118-.2503-.15161z" fill="#000" fill-opacity=".8"/></svg>