<svg fill="none" height="24" viewBox="0 0 24 24" width="24" xmlns="http://www.w3.org/2000/svg"><path d="m21 4.5h-18c-.39782 0-.77936.15804-1.06066.43934s-.43934.66284-.43934 1.06066v12c0 .3978.15804.7794.43934 1.0607s.66284.4393 1.06066.4393h18c.3978 0 .7794-.158 1.0607-.4393s.4393-.6629.4393-1.0607v-12c0-.39782-.158-.77936-.4393-1.06066s-.6629-.43934-1.0607-.43934zm-8.25 12h-1.5c-.1989 0-.3897-.079-.5303-.2197-.1407-.1406-.2197-.3314-.2197-.5303s.079-.3897.2197-.5303c.1406-.1407.3314-.2197.5303-.2197h1.5c.1989 0 .3897.079.5303.2197.1407.1406.2197.3314.2197.5303s-.079.3897-.2197.5303c-.1406.1407-.3314.2197-.5303.2197zm6 0h-3c-.1989 0-.3897-.079-.5303-.2197-.1407-.1406-.2197-.3314-.2197-.5303s.079-.3897.2197-.5303c.1406-.1407.3314-.2197.5303-.2197h3c.1989 0 .3897.079.5303.2197.1407.1406.2197.3314.2197.5303s-.079.3897-.2197.5303c-.1406.1407-.3314.2197-.5303.2197zm-15.75-8.25v-2.25h18v2.25z" fill="#000" fill-opacity=".8"/></svg>