<svg fill="none" height="24" viewBox="0 0 24 24" width="24" xmlns="http://www.w3.org/2000/svg"><path d="m21 4.6875h-18c-.3481 0-.68194.13828-.92808.38442s-.38442.57998-.38442.92808v12c0 .3481.13828.6819.38442.9281.24614.2461.57998.3844.92808.3844h18c.3481 0 .6819-.1383.9281-.3844.2461-.2462.3844-.58.3844-.9281v-12c0-.3481-.1383-.68194-.3844-.92808-.2462-.24614-.58-.38442-.9281-.38442zm-18 1.125h18c.0497 0 .0974.01975.1326.05492.0351.03516.0549.08285.0549.13258v2.4375h-18.375v-2.4375c0-.04973.01975-.09742.05492-.13258.03516-.03517.08285-.05492.13258-.05492zm18 12.375h-18c-.04973 0-.09742-.0198-.13258-.0549-.03517-.0352-.05492-.0829-.05492-.1326v-8.4375h18.375v8.4375c0 .0497-.0198.0974-.0549.1326-.0352.0351-.0829.0549-.1326.0549zm-1.6875-2.4375c0 .1492-.0593.2923-.1648.3977-.1054.1055-.2485.1648-.3977.1648h-3c-.1492 0-.2923-.0593-.3977-.1648-.1055-.1054-.1648-.2485-.1648-.3977s.0593-.2923.1648-.3977c.1054-.1055.2485-.1648.3977-.1648h3c.1492 0 .2923.0593.3977.1648.1055.1054.1648.2485.1648.3977zm-6 0c0 .1492-.0593.2923-.1648.3977-.1054.1055-.2485.1648-.3977.1648h-1.5c-.1492 0-.2923-.0593-.3977-.1648-.1055-.1054-.1648-.2485-.1648-.3977s.0593-.2923.1648-.3977c.1054-.1055.2485-.1648.3977-.1648h1.5c.1492 0 .2923.0593.3977.1648.1055.1054.1648.2485.1648.3977z" fill="#000" fill-opacity=".8"/></svg>