<svg fill="none" height="24" viewBox="0 0 24 24" width="24" xmlns="http://www.w3.org/2000/svg"><path d="m20.97 6.20158-8.25-4.51406c-.2204-.1218-.4682-.18569-.72-.18569s-.4996.06389-.72.18569l-8.25 4.51593c-.2356.12892-.43228.31872-.56948.54959-.13721.23087-.20991.49435-.21052.76291v8.96625c.00061.2686.07331.532.21052.7629.1372.2309.33388.4207.56948.5496l8.25 4.5159c.2204.1218.4682.1857.72.1857s.4996-.0639.72-.1857l8.25-4.5159c.2356-.1289.4323-.3187.5695-.5496s.2099-.4943.2105-.7629v-8.96531c-.0001-.26904-.0726-.5331-.2098-.76451-.1372-.23142-.3342-.42166-.5702-.5508zm-8.97 5.04842-7.53281-4.12498 7.53281-4.125 7.5328 4.125zm.75 9.3413v-8.0447l7.5-4.1044v8.04z" fill="#000" fill-opacity=".8"/></svg>