<svg fill="none" height="24" viewBox="0 0 24 24" width="24" xmlns="http://www.w3.org/2000/svg"><path d="m20.88 6.3656-8.25-4.51594c-.1929-.10653-.4096-.1624-.63-.1624s-.4371.05587-.63.1624l-8.25 4.51688c-.20643.11295-.3787.27932-.49877.48169-.12008.20238-.18353.43331-.18373.66862v8.96625c.0002.2353.06365.4662.18373.6686.12007.2024.29234.3688.49877.4817l8.25 4.5169c.1929.1064.4097.1621.63.1621s.4371-.0557.63-.1621l8.25-4.5169c.2064-.1129.3787-.2793.4988-.4817.12-.2024.1835-.4333.1837-.6686v-8.96625c0-.23547-.0634-.4666-.1835-.66915s-.2924-.36907-.499-.4821zm-8.9738-3.52969c.0276-.01509.0586-.02301.0901-.02301.0314 0 .0624.00792.09.02301l7.8365 4.28907-7.9228 4.33502-7.92281-4.33502zm-8.24995 13.81129c-.02875-.0166-.05258-.0406-.06905-.0694s-.025-.0615-.0247-.0947v-8.35875l7.875 4.31255v8.4693zm16.68005 0-7.7738 4.259v-8.4712l7.875-4.31252v8.35872c.0006.0335-.0077.0666-.0242.0958s-.0405.0534-.0695.0702z" fill="#000" fill-opacity=".8"/></svg>