<svg fill="none" height="24" viewBox="0 0 24 24" width="24" xmlns="http://www.w3.org/2000/svg"><path d="m13.125 12c0 .2225-.066.44-.1896.625s-.2993.3292-.5049.4144c-.2055.0851-.4317.1074-.65.064-.2182-.0434-.4187-.1506-.576-.3079s-.2645-.3578-.3079-.576c-.0434-.2183-.0211-.4445.064-.65.0852-.2056.2294-.3813.4144-.5049s.4025-.1896.625-.1896c.2984 0 .5845.1185.7955.3295s.3295.4971.3295.7955zm5.25-1.125c-.2225 0-.44.066-.625.1896s-.3292.2993-.4144.5049c-.0851.2055-.1074.4317-.064.65.0434.2182.1506.4187.3079.576s.3578.2645.576.3079c.2183.0434.4445.0211.65-.064.2056-.0852.3813-.2294.5049-.4144s.1896-.4025.1896-.625c0-.2984-.1185-.5845-.3295-.7955s-.4971-.3295-.7955-.3295zm-12.75 0c-.2225 0-.44001.066-.62502.1896-.185.1236-.3292.2993-.41434.5049-.08515.2055-.10743.4317-.06402.65.04341.2182.15055.4187.30789.576.15733.1573.35779.2645.57601.3079.21823.0434.44443.0211.65-.064.20557-.0852.38127-.2294.50488-.4144.12362-.185.1896-.4025.1896-.625 0-.2984-.11853-.5845-.3295-.7955-.21098-.211-.49713-.3295-.7955-.3295z" fill="#000" fill-opacity=".8"/></svg>