<svg fill="none" height="24" viewBox="0 0 24 24" width="24" xmlns="http://www.w3.org/2000/svg"><path d="m21 4.5h-18c-.39782 0-.77936.15804-1.06066.43934s-.43934.66284-.43934 1.06066v12c0 .3978.15804.7794.43934 1.0607s.66284.4393 1.06066.4393h18c.3978 0 .7794-.158 1.0607-.4393s.4393-.6629.4393-1.0607v-12c0-.39782-.158-.77936-.4393-1.06066s-.6629-.43934-1.0607-.43934zm-15.375 8.625c-.2225 0-.44001-.066-.62502-.1896-.185-.1236-.3292-.2993-.41434-.5049-.08515-.2055-.10743-.4317-.06402-.65.0434-.2182.15055-.4187.30788-.576.15734-.1573.35779-.2645.57602-.3079s.44443-.0211.65.064c.20557.0852.38127.2294.50488.4144.12362.185.1896.4025.1896.625 0 .2984-.11853.5845-.3295.7955-.21098.211-.49713.3295-.7955.3295zm6.375 0c-.2225 0-.44-.066-.625-.1896s-.3292-.2993-.4144-.5049c-.0851-.2055-.1074-.4317-.064-.65.0434-.2182.1506-.4187.3079-.576s.3578-.2645.576-.3079c.2183-.0434.4445-.0211.65.064.2056.0852.3813.2294.5049.4144s.1896.4025.1896.625c0 .2984-.1185.5845-.3295.7955s-.4971.3295-.7955.3295zm6.375 0c-.2225 0-.44-.066-.625-.1896s-.3292-.2993-.4144-.5049c-.0851-.2055-.1074-.4317-.064-.65.0434-.2182.1506-.4187.3079-.576s.3578-.2645.576-.3079c.2183-.0434.4445-.0211.65.064.2056.0852.3813.2294.5049.4144s.1896.4025.1896.625c0 .2984-.1185.5845-.3295.7955s-.4971.3295-.7955.3295z" fill="#000" fill-opacity=".8"/></svg>