<svg fill="none" height="24" viewBox="0 0 24 24" width="24" xmlns="http://www.w3.org/2000/svg"><path d="m12.9375 12c0 .1854-.055.3667-.158.5208-.103.1542-.2494.2744-.4207.3453-.1713.071-.3598.0896-.5417.0534s-.3489-.1255-.48-.2566-.2204-.2981-.2566-.48-.0176-.3704.0534-.5417c.0709-.1713.1911-.3177.3453-.4207.1541-.103.3354-.158.5208-.158.2486 0 .4871.0988.6629.2746s.2746.4143.2746.6629zm-7.3125-.9375c-.18542 0-.36668.055-.52085.158s-.27433.2494-.34529.4207c-.07095.1713-.08952.3598-.05335.5417.03618.1819.12547.3489.25658.48s.29816.2204.48001.2566c.18186.0362.37036.0176.54167-.0534.1713-.0709.31772-.1911.42073-.3453.10302-.1541.158-.3354.158-.5208 0-.2486-.09877-.4871-.27459-.6629-.17581-.1758-.41427-.2746-.66291-.2746zm12.75 0c-.1854 0-.3667.055-.5208.158-.1542.103-.2744.2494-.3453.4207-.071.1713-.0896.3598-.0534.5417s.1255.3489.2566.48.2981.2204.48.2566.3704.0176.5417-.0534c.1713-.0709.3177-.1911.4207-.3453.103-.1541.158-.3354.158-.5208 0-.2486-.0988-.4871-.2746-.6629s-.4143-.2746-.6629-.2746z" fill="#000" fill-opacity=".8"/></svg>