<svg fill="none" height="24" viewBox="0 0 24 24" width="24" xmlns="http://www.w3.org/2000/svg"><path d="m23.1853 11.6962c-.0328-.074-.8269-1.83558-2.5922-3.60089-2.3522-2.35219-5.3231-3.59531-8.5931-3.59531-3.27001 0-6.24095 1.24312-8.59313 3.59531-1.76532 1.76531-2.563129 3.52969-2.592191 3.60089-.042644.096-.064679.1998-.064679.3047 0 .105.022035.2088.064679.3047.032812.0741.826871 1.8347 2.592191 3.6 2.35218 2.3513 5.32312 3.5944 8.59313 3.5944 3.27 0 6.2409-1.2431 8.5931-3.5944 1.7653-1.7653 2.5594-3.5259 2.5922-3.6.0426-.0959.0647-.1997.0647-.3047 0-.1049-.0221-.2087-.0647-.3047zm-11.1853 4.0538c-.7417 0-1.4667-.2199-2.0834-.632-.61668-.412-1.09733-.9977-1.38116-1.6829-.28383-.6853-.35809-1.4393-.21339-2.1667.14469-.7274.50184-1.3956 1.02629-1.92005s1.19266-.8816 1.92006-1.0263c.7274-.14469 1.4814-.07043 2.1667.2134.6852.28383 1.2708.76448 1.6829 1.38116.4121.61669.632 1.34169.632 2.08339 0 .9946-.3951 1.9484-1.0984 2.6517-.7032.7032-1.657 1.0983-2.6516 1.0983z" fill="#000" fill-opacity=".8"/></svg>