<svg fill="none" height="24" viewBox="0 0 24 24" width="24" xmlns="http://www.w3.org/2000/svg"><path d="m23.1853 11.6962c-.0328-.074-.8269-1.83558-2.5922-3.60089-2.3522-2.35219-5.3231-3.59531-8.5931-3.59531-3.27001 0-6.24095 1.24312-8.59313 3.59531-1.76532 1.76531-2.563129 3.52969-2.592191 3.60089-.042644.096-.064679.1998-.064679.3047 0 .105.022035.2088.064679.3047.032812.0741.826871 1.8347 2.592191 3.6 2.35218 2.3513 5.32312 3.5944 8.59313 3.5944 3.27 0 6.2409-1.2431 8.5931-3.5944 1.7653-1.7653 2.5594-3.5259 2.5922-3.6.0426-.0959.0647-.1997.0647-.3047 0-.1049-.0221-.2087-.0647-.3047zm-11.1853 6.3038c-2.88563 0-5.40657-1.0491-7.49345-3.1172-.85627-.8515-1.58476-1.8225-2.16281-2.8828.5779-1.0604 1.3064-2.0314 2.16281-2.88281 2.08688-2.06813 4.60782-3.11719 7.49345-3.11719 2.8856 0 5.4066 1.04906 7.4934 3.11719.858.85121 1.5881 1.82221 2.1675 2.88281-.6759 1.2619-3.6206 6-9.6609 6zm0-10.5c-.89 0-1.7601.26392-2.50007.75839-.74003.49446-1.3168 1.19727-1.6574 2.01951-.34059.8223-.42971 1.7271-.25607 2.6.17363.8729.60221 1.6747 1.23155 2.3041.62934.6293 1.43119 1.0579 2.30409 1.2315.8729.1737 1.7777.0846 2.6-.256.8222-.3406 1.525-.9174 2.0195-1.6574.4945-.7401.7584-1.6101.7584-2.5001-.0012-1.1931-.4758-2.33697-1.3194-3.18061s-1.9875-1.31815-3.1806-1.31939zm0 7.5c-.5934 0-1.1734-.1759-1.6667-.5056-.49337-.3296-.87788-.7982-1.10495-1.3463-.22706-.5482-.28647-1.1514-.17071-1.7334.11575-.5819.40147-1.1165.82103-1.53602.41953-.41956.95413-.70528 1.53603-.82104.582-.11575 1.1852-.05634 1.7333.17072.5482.22706 1.0168.61158 1.3464 1.10494.3296.4933.5056 1.0734.5056 1.6667 0 .7956-.3161 1.5587-.8787 2.1213s-1.3257.8787-2.1213.8787z" fill="#000" fill-opacity=".8"/></svg>