<svg fill="none" height="24" viewBox="0 0 24 24" width="24" xmlns="http://www.w3.org/2000/svg"><path d="m21.75 6.75v8.625c-.002 1.0602-.4121 2.0788-1.1453 2.8447-.7331.7658-1.7329 1.2199-2.792 1.2682-1.059.0482-2.096-.3131-2.8957-1.0091-.7998-.696-1.3008-1.6732-1.3992-2.7288h-3.0356c-.0984 1.0556-.59945 2.0328-1.39916 2.7288s-1.83669 1.0573-2.89576 1.0091c-1.05906-.0483-2.0589-.5024-2.79202-1.2682-.73312-.7659-1.14324-1.7845-1.14526-2.8447v-8.625c0-.79565.31607-1.55871.87868-2.12132s1.32567-.87868 2.12132-.87868c.19891 0 .38968.07902.53033.21967s.21967.33142.21967.53033-.07902.38968-.21967.53033-.33142.21967-.53033.21967c-.39782 0-.77936.15804-1.06066.43934s-.43934.66284-.43934 1.06066v5.445c.52876-.4361 1.15784-.7335 1.8304-.8655.67256-.1319 1.36739-.0942 2.02172.1098.65433.2039 1.24752.5677 1.72597 1.0584.47846.4908.82711 1.093 1.01441 1.7523h3.315c.1873-.6593.5359-1.2615 1.0144-1.7523.4785-.4907 1.0717-.8545 1.726-1.0584.6543-.204 1.3491-.2417 2.0217-.1098.6726.132 1.3016.4294 1.8304.8655v-5.445c0-.39782-.158-.77936-.4393-1.06066s-.6629-.43934-1.0607-.43934c-.1989 0-.3897-.07902-.5303-.21967-.1407-.14065-.2197-.33142-.2197-.53033s.079-.38968.2197-.53033c.1406-.14065.3314-.21967.5303-.21967.7956 0 1.5587.31607 2.1213.87868s.8787 1.32567.8787 2.12132z" fill="#000" fill-opacity=".8"/></svg>