<svg fill="none" height="24" viewBox="0 0 24 24" width="24" xmlns="http://www.w3.org/2000/svg"><path d="m18.75 3.75c-.1989 0-.3897.07902-.5303.21967-.1407.14065-.2197.33142-.2197.53033s.079.38968.2197.53033c.1406.14065.3314.21967.5303.21967.3978 0 .7794.15804 1.0607.43934s.4393.66284.4393 1.06066v5.445c-.5288-.4361-1.1578-.7335-1.8304-.8655-.6726-.1319-1.3674-.0942-2.0217.1098-.6543.2039-1.2475.5677-1.726 1.0584-.4785.4908-.8271 1.093-1.0144 1.7523h-3.315c-.1873-.6593-.53595-1.2615-1.01441-1.7523-.47845-.4907-1.07164-.8545-1.72597-1.0584-.65433-.204-1.34916-.2417-2.02172-.1098-.67256.132-1.30164.4294-1.8304.8655v-5.445c0-.39782.15804-.77936.43934-1.06066s.66284-.43934 1.06066-.43934c.19891 0 .38968-.07902.53033-.21967s.21967-.33142.21967-.53033-.07902-.38968-.21967-.53033-.33142-.21967-.53033-.21967c-.79565 0-1.55871.31607-2.12132.87868s-.87868 1.32567-.87868 2.12132v8.625c.00202 1.0602.41214 2.0788 1.14526 2.8447.73312.7658 1.73296 1.2199 2.79202 1.2682 1.05907.0482 2.09605-.3131 2.89576-1.0091s1.30076-1.6732 1.39916-2.7288h3.0356c.0984 1.0556.5994 2.0328 1.3992 2.7288.7997.696 1.8367 1.0573 2.8957 1.0091 1.0591-.0483 2.0589-.5024 2.792-1.2682.7332-.7659 1.1433-1.7845 1.1453-2.8447v-8.625c0-.79565-.3161-1.55871-.8787-2.12132s-1.3257-.87868-2.1213-.87868zm-12.375 14.25c-.51918 0-1.02669-.154-1.45837-.4424s-.76813-.6984-.96681-1.1781c-.19868-.4796-.25067-1.0074-.14938-1.5166.10128-.5092.35129-.9769.7184-1.3441.36712-.3671.83485-.6171 1.34405-.7184.5092-.1012 1.037-.0493 1.51665.1494.47966.1987.88963.5351 1.17807.9668s.44239.9392.44239 1.4584c0 .6962-.27656 1.3639-.76884 1.8562-.49229.4922-1.15997.7688-1.85616.7688zm11.25 0c-.5192 0-1.0267-.154-1.4584-.4424s-.7681-.6984-.9668-1.1781c-.1987-.4796-.2506-1.0074-.1494-1.5166.1013-.5092.3513-.9769.7184-1.3441.3672-.3671.8349-.6171 1.3441-.7184.5092-.1012 1.037-.0493 1.5166.1494.4797.1987.8897.5351 1.1781.9668s.4424.9392.4424 1.4584c0 .6962-.2766 1.3639-.7688 1.8562-.4923.4922-1.16.7688-1.8562.7688z" fill="#000" fill-opacity=".8"/></svg>