<svg fill="none" height="24" viewBox="0 0 24 24" width="24" xmlns="http://www.w3.org/2000/svg"><path d="m18.7501 3.9375c-.1491 0-.2922.05926-.3977.16475s-.1648.24857-.1648.39775.0593.29226.1648.39775.2486.16475.3977.16475c.4476 0 .8768.17779 1.1933.49426.3164.31647.4942.74569.4942 1.19324v5.8734c-.4908-.5012-1.1066-.8621-1.7837-1.0455s-1.3909-.1826-2.0676.0024-1.2917.5473-1.7813 1.0497c-.4897.5023-.8363 1.1263-1.0039 1.8075h-3.6019c-.1676-.6812-.51422-1.3052-1.00388-1.8075-.48967-.5024-1.10465-.8647-1.78133-1.0497s-1.39049-.1858-2.06759-.0024c-.67711.1834-1.29293.5443-1.78376 1.0455v-5.8734c0-.44755.17779-.87677.49426-1.19324.31646-.31647.74569-.49426 1.19324-.49426.14918 0 .29226-.05926.39775-.16475s.16475-.24857.16475-.39775-.05926-.29226-.16475-.39775-.24857-.16475-.39775-.16475c-.74592 0-1.46129.29632-1.98874.82376-.52744.52745-.82376 1.24282-.82376 1.98874v8.625c-.01231.5171.07734 1.0315.26385 1.514.1865.4824.4662.9234.82313 1.2977.72084.756 1.71248 1.1947 2.75677 1.2195 1.04429.0249 2.05569-.3661 2.81169-1.0869.75601-.7209 1.19472-1.7125 1.21952-2.7568h3.3844c.0674 1.013.5235 1.9609 1.273 2.6457.7496.6847 1.7347 1.0535 2.7497 1.0293 1.0149-.0242 1.9813-.4395 2.6974-1.1592s1.1265-1.6882 1.1455-2.7033v-8.625c0-.74592-.2963-1.46129-.8237-1.98874-.5275-.52744-1.2428-.82376-1.9888-.82376zm-12.37496 14.25c-.55626 0-1.10003-.165-1.56254-.474-.46252-.309-.823-.7483-1.03587-1.2622s-.26857-1.0794-.16005-1.625.37639-1.0467.76972-1.44c.39334-.3934.89448-.6612 1.44005-.7698.54557-.1085 1.11107-.0528 1.62499.1601.51391.2129.95317.5733 1.26221 1.0359.30904.4625.47399 1.0062.47399 1.5625 0 .7459-.29632 1.4613-.82376 1.9887-.52745.5275-1.24282.8238-1.98874.8238zm11.24996 0c-.5562 0-1.1-.165-1.5625-.474s-.823-.7483-1.0359-1.2622c-.2128-.5139-.2685-1.0794-.16-1.625s.3764-1.0467.7697-1.44c.3933-.3934.8945-.6612 1.44-.7698.5456-.1085 1.1111-.0528 1.625.1601.514.2129.9532.5733 1.2622 1.0359.3091.4625.474 1.0062.474 1.5625 0 .7459-.2963 1.4613-.8237 1.9887-.5275.5275-1.2428.8238-1.9888.8238z" fill="#000" fill-opacity=".8"/></svg>