<svg fill="none" height="24" viewBox="0 0 24 24" width="24" xmlns="http://www.w3.org/2000/svg"><path d="m3 7.5c0-.19891.07902-.38968.21967-.53033s.33142-.21967.53033-.21967h3c.19891 0 .38968.07902.53033.21967s.21967.33142.21967.53033-.07902.38968-.21967.53033-.33142.21967-.53033.21967h-3c-.19891 0-.38968-.07902-.53033-.21967s-.21967-.33142-.21967-.53033zm17.25 8.25h-2.25v-1.5c0-.1989-.079-.3897-.2197-.5303-.1406-.1407-.3314-.2197-.5303-.2197h-1.5c-.1989 0-.3897.079-.5303.2197-.1407.1406-.2197.3314-.2197.5303v4.5c0 .1989.079.3897.2197.5303.1406.1407.3314.2197.5303.2197h1.5c.1989 0 .3897-.079.5303-.2197.1407-.1406.2197-.3314.2197-.5303v-1.5h2.25c.1989 0 .3897-.079.5303-.2197.1407-.1406.2197-.3314.2197-.5303s-.079-.3897-.2197-.5303c-.1406-.1407-.3314-.2197-.5303-.2197zm-7.5 0h-9c-.19891 0-.38968.079-.53033.2197-.14065.1406-.21967.3314-.21967.5303s.07902.3897.21967.5303c.14065.1407.33142.2197.53033.2197h9c.1989 0 .3897-.079.5303-.2197.1407-.1406.2197-.3314.2197-.5303s-.079-.3897-.2197-.5303c-.1406-.1407-.3314-.2197-.5303-.2197zm-3-5.25h1.5c.1989 0 .3897-.079.5303-.2197.1407-.1406.2197-.33139.2197-.5303v-1.5h8.25c.1989 0 .3897-.07902.5303-.21967.1407-.14065.2197-.33142.2197-.53033s-.079-.38968-.2197-.53033c-.1406-.14065-.3314-.21967-.5303-.21967h-8.25v-1.5c0-.19891-.079-.38968-.2197-.53033-.1406-.14065-.3314-.21967-.5303-.21967h-1.5c-.19891 0-.38968.07902-.53033.21967s-.21967.33142-.21967.53033v4.5c0 .19891.07902.3897.21967.5303.14065.1407.33142.2197.53033.2197z" fill="#000" fill-opacity=".8"/></svg>