<svg fill="none" height="24" viewBox="0 0 24 24" width="24" xmlns="http://www.w3.org/2000/svg"><path d="m3.1875 7.5c0-.14918.05926-.29226.16475-.39775s.24857-.16475.39775-.16475h3c.14918 0 .29226.05926.39775.16475s.16475.24857.16475.39775-.05926.29226-.16475.39775-.24857.16475-.39775.16475h-3c-.14918 0-.29226-.05926-.39775-.16475s-.16475-.24857-.16475-.39775zm17.0625 8.4375h-3.9375v-1.6875c0-.1492-.0593-.2923-.1648-.3977-.1054-.1055-.2485-.1648-.3977-.1648s-.2923.0593-.3977.1648c-.1055.1054-.1648.2485-.1648.3977v4.5c0 .1492.0593.2923.1648.3977.1054.1055.2485.1648.3977.1648s.2923-.0593.3977-.1648c.1055-.1054.1648-.2485.1648-.3977v-1.6875h3.9375c.1492 0 .2923-.0593.3977-.1648.1055-.1054.1648-.2485.1648-.3977s-.0593-.2923-.1648-.3977c-.1054-.1055-.2485-.1648-.3977-.1648zm-7.5 0h-9c-.14918 0-.29226.0593-.39775.1648-.10549.1054-.16475.2485-.16475.3977s.05926.2923.16475.3977c.10549.1055.24857.1648.39775.1648h9c.1492 0 .2923-.0593.3977-.1648.1055-.1054.1648-.2485.1648-.3977s-.0593-.2923-.1648-.3977c-.1054-.1055-.2485-.1648-.3977-.1648zm-3-5.625c.14918 0 .2923-.0593.3977-.1648.1055-.1054.1648-.24852.1648-.3977v-1.6875h9.9375c.1492 0 .2923-.05926.3977-.16475.1055-.10549.1648-.24857.1648-.39775s-.0593-.29226-.1648-.39775c-.1054-.10549-.2485-.16475-.3977-.16475h-9.9375v-1.6875c0-.14918-.0593-.29226-.1648-.39775-.1054-.10549-.24852-.16475-.3977-.16475s-.29226.05926-.39775.16475-.16475.24857-.16475.39775v4.5c0 .14918.05926.2923.16475.3977.10549.1055.24857.1648.39775.1648z" fill="#000" fill-opacity=".8"/></svg>