<svg fill="none" height="24" viewBox="0 0 24 24" width="24" xmlns="http://www.w3.org/2000/svg"><path d="m19.8975 7.8525-5.25-5.25c-.1054-.10552-.2484-.16487-.3975-.165h-9c-.3481 0-.68194.13828-.92808.38442s-.38442.57998-.38442.92808v16.5c0 .3481.13828.6819.38442.9281.24614.2461.57998.3844.92808.3844h13.5c.3481 0 .6819-.1383.9281-.3844.2461-.2462.3844-.58.3844-.9281v-12c-.0001-.14913-.0595-.29211-.165-.3975zm-5.085-3.495 3.33 3.33h-3.33zm3.9375 16.08h-13.5c-.04973 0-.09742-.0198-.13258-.0549-.03517-.0352-.05492-.0829-.05492-.1326v-16.5c0-.04973.01975-.09742.05492-.13258.03516-.03517.08285-.05492.13258-.05492h8.4375v4.6875c0 .14918.0593.29226.1648.39775.1054.10549.2485.16475.3977.16475h4.6875v11.4375c0 .0497-.0198.0974-.0549.1326-.0352.0351-.0829.0549-.1326.0549zm-3.1875-7.6875c0 .1492-.0593.2923-.1648.3977-.1054.1055-.2485.1648-.3977.1648h-6c-.14918 0-.29226-.0593-.39775-.1648-.10549-.1054-.16475-.2485-.16475-.3977s.05926-.2923.16475-.3977c.10549-.1055.24857-.1648.39775-.1648h6c.1492 0 .2923.0593.3977.1648.1055.1054.1648.2485.1648.3977zm0 3c0 .1492-.0593.2923-.1648.3977-.1054.1055-.2485.1648-.3977.1648h-6c-.14918 0-.29226-.0593-.39775-.1648-.10549-.1054-.16475-.2485-.16475-.3977s.05926-.2923.16475-.3977c.10549-.1055.24857-.1648.39775-.1648h6c.1492 0 .2923.0593.3977.1648.1055.1054.1648.2485.1648.3977z" fill="#000" fill-opacity=".8"/></svg>