<svg fill="none" height="24" viewBox="0 0 24 24" width="24" xmlns="http://www.w3.org/2000/svg"><path d="m20.0306 7.71938-5.25-5.25c-.0697-.06963-.1524-.12484-.2435-.16248-.091-.03764-.1886-.05698-.2871-.0569h-9c-.39782 0-.77936.15804-1.06066.43934s-.43934.66284-.43934 1.06066v16.5c0 .3978.15804.7794.43934 1.0607s.66284.4393 1.06066.4393h13.5c.3978 0 .7794-.158 1.0607-.4393s.4393-.6629.4393-1.0607v-12c.0001-.09852-.0193-.19609-.0569-.28714-.0376-.09104-.0928-.17378-.1625-.24348zm-5.0306 8.78062h-6c-.19891 0-.38968-.079-.53033-.2197-.14065-.1406-.21967-.3314-.21967-.5303s.07902-.3897.21967-.5303c.14065-.1407.33142-.2197.53033-.2197h6c.1989 0 .3897.079.5303.2197.1407.1406.2197.3314.2197.5303s-.079.3897-.2197.5303c-.1406.1407-.3314.2197-.5303.2197zm0-3h-6c-.19891 0-.38968-.079-.53033-.2197-.14065-.1406-.21967-.3314-.21967-.5303s.07902-.3897.21967-.5303c.14065-.1407.33142-.2197.53033-.2197h6c.1989 0 .3897.079.5303.2197.1407.1406.2197.3314.2197.5303s-.079.3897-.2197.5303c-.1406.1407-.3314.2197-.5303.2197zm-.75-5.25v-4.125l4.125 4.125z" fill="#000" fill-opacity=".8"/></svg>