<svg fill="none" height="24" viewBox="0 0 24 24" width="24" xmlns="http://www.w3.org/2000/svg"><path d="m20.0306 6.21938-3.75-3.75c-.0697-.06963-.1524-.12484-.2435-.16248-.091-.03764-.1886-.05698-.2871-.0569h-7.5c-.39782 0-.77936.15804-1.06066.43934s-.43934.66284-.43934 1.06066v1.5h-1.5c-.39782 0-.77936.15804-1.06066.43934s-.43934.66284-.43934 1.06066v13.5c0 .3978.15804.7794.43934 1.0607s.66284.4393 1.06066.4393h10.5c.3978 0 .7794-.158 1.0607-.4393s.4393-.6629.4393-1.0607v-1.5h1.5c.3978 0 .7794-.158 1.0607-.4393s.4393-.6629.4393-1.0607v-10.5c.0001-.09852-.0193-.19609-.0569-.28714-.0376-.09104-.0928-.17378-.1625-.24348zm-7.2806 11.78062h-4.5c-.19891 0-.38968-.079-.53033-.2197-.14065-.1406-.21967-.3314-.21967-.5303s.07902-.3897.21967-.5303c.14065-.1407.33142-.2197.53033-.2197h4.5c.1989 0 .3897.079.5303.2197.1407.1406.2197.3314.2197.5303s-.079.3897-.2197.5303c-.1406.1407-.3314.2197-.5303.2197zm0-3h-4.5c-.19891 0-.38968-.079-.53033-.2197-.14065-.1406-.21967-.3314-.21967-.5303s.07902-.3897.21967-.5303c.14065-.1407.33142-.2197.53033-.2197h4.5c.1989 0 .3897.079.5303.2197.1407.1406.2197.3314.2197.5303s-.079.3897-.2197.5303c-.1406.1407-.3314.2197-.5303.2197zm6 2.25h-1.5v-7.5c.0001-.09852-.0193-.19609-.0569-.28714-.0376-.09104-.0928-.17378-.1625-.24349l-3.75-3.74999c-.0697-.06963-.1524-.12484-.2435-.16248-.091-.03764-.1886-.05698-.2871-.0569h-4.5v-1.5h7.1897l3.3103 3.31031z" fill="#000" fill-opacity=".8"/></svg>