<svg fill="none" height="24" viewBox="0 0 24 24" width="24" xmlns="http://www.w3.org/2000/svg"><path d="m20.2557 18v1.125c0 .8958-.3559 1.755-.9893 2.3885-.6335.6334-1.4927.9893-2.3885.9893-.8959 0-1.755-.3559-2.3885-.9893-.6334-.6335-.9893-1.4927-.9893-2.3885v-1.125c0-.1989.079-.3897.2197-.5303.1406-.1407.3314-.2197.5303-.2197h5.25c.0989-.0007.1971.0181.2887.0555.0917.0373.175.0925.2453.1622.0702.0697.1259.1526.164.244.038.0913.0576.1893.0576.2883zm-10.50562-3h-5.25c-.19891 0-.38968.079-.53033.2197-.14065.1406-.21967.3314-.21967.5303v1.125c0 .8951.35558 1.7535.98852 2.3865.63293.6329 1.49138.9885 2.38648.9885.89511 0 1.75355-.3556 2.38649-.9885.63293-.633.98853-1.4914.98853-2.3865v-1.125c0-.1989-.079-.3897-.2197-.5303-.1406-.1407-.33141-.2197-.53032-.2197zm-2.625-13.5c-1.09125 0-2.14969.96656-2.98125 2.71875-1.30594 2.75437-1.74 6.84375.02719 8.99995.07046.0861.15917.1553.2597.2028s.21036.0721.32155.0719h4.73906c.11119.0002.22102-.0244.32155-.0719s.18922-.1167.25972-.2028c1.7672-2.1562 1.3331-6.24839.0272-8.99995-.83253-1.75219-1.89003-2.71875-2.97472-2.71875zm7.38752 14.25h4.739c.1112.0002.2211-.0244.3216-.0719s.1892-.1168.2597-.2028c1.7672-2.1562 1.3331-6.24843.0272-8.99999-.8353-1.75875-1.8938-2.72531-2.985-2.72531-1.0913 0-2.146.96656-2.9785 2.71875-1.3059 2.75437-1.74 6.84375.0272 8.99995.0702.0878.1593.1586.2605.2072.1013.0487.2122.074.3245.0741z" fill="#000" fill-opacity=".8"/></svg>