<svg fill="none" height="24" viewBox="0 0 24 24" width="24" xmlns="http://www.w3.org/2000/svg"><path d="m9.75017 15.1875h-5.25c-.14918 0-.29226.0593-.39775.1648-.10548.1054-.16475.2485-.16475.3977v1.125c0 .8454.33583 1.6561.9336 2.2539s1.40852.9336 2.2539.9336 1.65613-.3358 2.25391-.9336c.59777-.5978.93362-1.4085.93362-2.2539v-1.125c0-.1492-.0593-.2923-.1648-.3977-.1055-.1055-.24854-.1648-.39773-.1648zm-.5625 1.6875c0 .547-.2173 1.0716-.60409 1.4584s-.9114.6041-1.45841.6041-1.07161-.2173-1.45841-.6041c-.38679-.3868-.60409-.9114-.60409-1.4584v-.5625h4.125zm-2.0625-15.1875c-1.0125 0-2.01.92906-2.8125 2.61563-1.28062 2.70187-1.71469 6.70597 0 8.80317.05283.0645.11935.1165.19475.1522.07539.0356.15778.0541.24119.054h4.73719c.08341.0001.16579-.0184.24119-.054.0754-.0357.14192-.0877.19475-.1522 1.71746-2.0972 1.28346-6.1013 0-8.80317-.78938-1.68657-1.78688-2.61563-2.79657-2.61563zm2.08407 10.5h-4.17094c-.94594-1.4231-1.09594-4.46719.29437-7.40625.69-1.45219 1.39594-1.96875 1.7925-1.96875.39657 0 1.10156.51656 1.79063 1.96875 1.3894 2.93906 1.2394 5.98315.29344 7.40625zm10.29096 5.25h-5.25c-.1492 0-.2923.0593-.3978.1648-.1055.1054-.1647.2485-.1647.3977v1.125c0 .8454.3358 1.6561.9336 2.2539.5977.5978 1.4085.9336 2.2539.9336.8453 0 1.6561-.3358 2.2539-.9336.5977-.5978.9336-1.4085.9336-2.2539v-1.125c0-.1492-.0593-.2923-.1648-.3977-.1055-.1055-.2485-.1648-.3977-.1648zm-.5625 1.6875c0 .547-.2173 1.0716-.6041 1.4584s-.9114.6041-1.4584.6041-1.0716-.2173-1.4584-.6041-.6041-.9114-.6041-1.4584v-.5625h4.125zm-4.4316-3.5625h4.7372c.0834.0001.1658-.0184.2412-.054.0754-.0357.1419-.0877.1947-.1522 1.7175-2.0972 1.2835-6.1013 0-8.80317-.794-1.68657-1.7915-2.61563-2.804-2.61563s-2.0091.92906-2.8125 2.61563c-1.2807 2.70187-1.7147 6.70597 0 8.80317.0538.0657.1218.1185.199.1542.0771.0357.1613.0535.2463.052zm.5784-8.53125c.6891-1.45594 1.395-1.96875 1.7907-1.96875.3956 0 1.1006.51656 1.7906 1.96875 1.3903 2.93531 1.2403 5.97935.2944 7.40625h-4.1691c-.9459-1.4231-1.0959-4.46719.2953-7.40625z" fill="#000" fill-opacity=".8"/></svg>