<svg fill="none" height="24" viewBox="0 0 24 24" width="24" xmlns="http://www.w3.org/2000/svg"><path d="m19.5057 17.25h-5.2556c-.1989 0-.3897.079-.5303.2197-.1407.1406-.2197.3314-.2197.5303v1.125c0 .8957.3558 1.7548.9892 2.3881.6334.6334 1.4924.9892 2.3881.9892.8958 0 1.7548-.3558 2.3882-.9892.6333-.6333.9892-1.4924.9892-2.3881v-1.125c0-.1988-.0789-.3894-.2194-.53-.1404-.1406-.3309-.2198-.5297-.22zm-.75 1.875c0 .4973-.1975.9742-.5492 1.3258-.3516.3517-.8285.5492-1.3258.5492s-.9742-.1975-1.3258-.5492c-.3517-.3516-.5492-.8285-.5492-1.3258v-.375h3.75zm-9.00562-4.125h-5.25c-.19891 0-.38968.079-.53033.2197-.14065.1406-.21967.3314-.21967.5303v1.125c0 .8951.35558 1.7535.98852 2.3865.63293.6329 1.49138.9885 2.38648.9885.89511 0 1.75355-.3556 2.38649-.9885.63293-.633.98853-1.4914.98853-2.3865v-1.125c0-.1989-.079-.3897-.2197-.5303-.1406-.1407-.33141-.2197-.53032-.2197zm-.75 1.875c0 .4973-.19754.9742-.54917 1.3258-.35163.3517-.82855.5492-1.32583.5492s-.97419-.1975-1.32582-.5492c-.35163-.3516-.54918-.8285-.54918-1.3258v-.375h3.75zm-1.875-15.375c-1.09125 0-2.14969.96656-2.98125 2.71875-1.30594 2.75437-1.74 6.84375.02719 8.99995.07046.0861.15917.1553.2597.2028s.21036.0721.32155.0719h4.73906c.11119.0002.22102-.0244.32155-.0719s.18922-.1167.25972-.2028c1.7672-2.1562 1.3331-6.24839.0272-8.99995-.83253-1.75219-1.89003-2.71875-2.97472-2.71875zm1.98281 10.5h-3.97218c-1.06875-1.6969-.67594-4.94063.36468-7.13531.60657-1.28157 1.26563-1.86469 1.62469-1.86469s1.01438.58312 1.62188 1.86469c1.03687 2.19468 1.42964 5.43841.36093 7.13531zm5.40091 3.75h4.7391c.1112.0002.221-.0244.3215-.0719.1006-.0475.1893-.1168.2597-.2028 1.7672-2.1562 1.3332-6.24843.0272-8.99999-.8315-1.75875-1.89-2.72531-2.9812-2.72531-1.0913 0-2.146.96656-2.9785 2.71875-1.3059 2.75437-1.74 6.84375.0272 8.99995.0705.0875.1595.1581.2607.2068.1013.0486.212.0741.3243.0745zm.75-8.63531c.6057-1.28157 1.2647-1.86469 1.6163-1.86469.3515 0 1.0144.58312 1.6209 1.86469 1.0406 2.19468 1.4335 5.43751.3656 7.13531h-3.9693c-1.0688-1.6969-.676-4.94063.3647-7.13531z" fill="#000" fill-opacity=".8"/></svg>