<svg fill="none" height="24" viewBox="0 0 24 24" width="24" xmlns="http://www.w3.org/2000/svg"><path d="m12.0002 7.5001c-.89 0-1.7601.26393-2.50009.75839-.74002.49447-1.3168 1.19727-1.65739 2.01951-.34059.8223-.42971 1.7271-.25608 2.6.17364.8729.60222 1.6747 1.23156 2.3041.62933.6293 1.4312 1.0579 2.3041 1.2315.8729.1737 1.7777.0846 2.6-.256.8222-.3406 1.525-.9174 2.0195-1.6574.4945-.7401.7584-1.6101.7584-2.5001-.0013-1.1931-.4758-2.33696-1.3194-3.18061-.8437-.84364-1.9875-1.31814-3.1806-1.31939zm0 7.5c-.5934 0-1.1734-.1759-1.6667-.5056-.49338-.3296-.8779-.7982-1.10496-1.3463-.22706-.5482-.28647-1.1514-.17072-1.7334.11576-.5819.40148-1.1165.82104-1.53602.41954-.41955.95414-.70528 1.53604-.82103.582-.11576 1.1851-.05635 1.7333.17072.5482.22706 1.0167.61158 1.3464 1.10493.3296.4933.5056 1.0734.5056 1.6667 0 .7957-.3161 1.5587-.8787 2.1213s-1.3257.8787-2.1213.8787zm10.3069-4.9491c-.0209-.10557-.0643-.20545-.1272-.29281-.063-.08735-.144-.16013-.2375-.2134l-2.7966-1.59375-.0112-3.15187c-.0004-.10855-.0243-.21573-.0701-.31415-.0458-.09841-.1124-.1857-.1953-.25585-1.0144-.8581-2.1826-1.51569-3.4425-1.93782-.0992-.03358-.2043-.046-.3086-.03648-.1043.00953-.2055.0408-.297.0918l-2.8209 1.57687-2.82377-1.57969c-.09155-.05128-.19283-.08279-.29732-.09248-.10448-.00969-.20983.00266-.30924.03623-1.25893.42521-2.42579 1.08531-3.43875 1.94532-.08272.07004-.14927.15719-.19508.25543-.0458.09824-.06976.20524-.07024.31363l-.01406 3.15469-2.79656 1.59375c-.09356.05326-.17456.12604-.23749.2134-.06293.08735-.10631.18723-.1272.29288-.25594 1.2861-.25594 2.6101 0 3.8962.02089.1056.06427.2055.1272.2929.06293.0873.14393.1601.23749.2134l2.79656 1.5937.01125 3.1519c.00034.1085.02424.2157.07005.3141.0458.0984.11243.1857.19526.2559 1.01445.8581 2.18265 1.5157 3.4425 1.9378.09922.0336.20437.046.30867.0365.10431-.0095.20547-.0408.29696-.0918l2.82377-1.5806 2.8237 1.5797c.1118.0622.2377.0945.3657.0937.0819 0 .1632-.0133.2409-.0394 1.2588-.4246 2.4256-1.0841 3.4387-1.9434.0828-.0701.1493-.1572.1951-.2554.0458-.0983.0698-.2053.0703-.3137l.014-3.1547 2.7966-1.5937c.0935-.0533.1745-.1261.2375-.2134.0629-.0874.1063-.1872.1272-.2929.2545-1.2851.2535-2.6077-.0028-3.8925zm-1.4063 3.2729-2.6784 1.5234c-.1174.0667-.2146.1639-.2813.2812-.0544.0938-.1115.1932-.1697.2869-.0744.1182-.114.255-.1143.3947l-.0141 3.0234c-.7199.5654-1.522 1.0175-2.3784 1.3407l-2.7019-1.5057c-.1122-.062-.2384-.0943-.3666-.0937h-.0178c-.1134 0-.2278 0-.3412 0-.1342-.0034-.2669.029-.3844.0937l-2.70377 1.5094c-.85827-.3207-1.66254-.7705-2.385-1.334l-.01031-3.0188c-.00047-.14-.04008-.277-.11438-.3956-.05812-.0938-.11531-.1875-.16875-.2869-.06626-.1192-.16342-.2183-.28125-.2869l-2.68125-1.5272c-.13875-.8776-.13875-1.7717 0-2.6493l2.67375-1.52628c.11735-.06673.21452-.1639.28125-.28125.05438-.09375.11156-.19313.16969-.28688.0744-.11822.11404-.255.11437-.39469l.01407-3.02343c.71993-.56537 1.52199-1.01745 2.37843-1.34063l2.69815 1.50563c.1174.06509.2501.09746.3844.09375h.3412c.1342.00335.2668-.029.3844-.09375l2.7037-1.50938c.8583.3207 1.6626.77057 2.385 1.33406l.0103 3.01875c.0005.13997.0401.27701.1144.39563.0581.09375.1153.1875.1688.28687.0662.11917.1634.21827.2812.28688l2.6813 1.52722c.1406.8783.1421 1.7733.0047 2.6522z" fill="#000" fill-opacity=".8"/></svg>