<svg fill="none" height="24" viewBox="0 0 24 24" width="24" xmlns="http://www.w3.org/2000/svg"><path d="m12.0002 7.68758c-.8529 0-1.6867.25292-2.39586.72679-.70919.47386-1.26193 1.14738-1.58834 1.93543-.3264.788-.4118 1.6551-.2454 2.4916s.57712 1.605 1.18024 2.2081c.60311.6031 1.37156 1.0138 2.20806 1.1802s1.7036.081 2.4917-.2454c.788-.3264 1.4615-.8791 1.9353-1.5883.4739-.7092.7268-1.543.7268-2.3959-.0015-1.1433-.4563-2.23935-1.2647-3.04778-.8084-.80842-1.9045-1.26325-3.0478-1.26474zm0 7.50002c-.6304 0-1.2467-.187-1.7708-.5372-.52423-.3503-.93278-.8481-1.17403-1.4305-.24126-.5825-.30438-1.2234-.18139-1.8417s.42657-1.1862.87235-1.63202c.44577-.44578 1.01377-.74936 1.63207-.87235.6183-.123 1.2592-.05987 1.8416.18138.5825.24126 1.0803.64981 1.4305 1.17399.3503.5242.5372 1.1405.5372 1.7709 0 .8454-.3358 1.6561-.9336 2.2539-.5977.5978-1.4085.9336-2.2539.9336zm10.125-5.1c-.0163-.0784-.0491-.15241-.0963-.21708-.0473-.06467-.1077-.11852-.1774-.15794l-2.8538-1.62938-.0393-.06656-.0113-3.21656c0-.08125-.0176-.16153-.0516-.23533s-.0835-.13936-.1453-.19217c-.9967-.84275-2.1441-1.48885-3.3815-1.90406-.0744-.02502-.1532-.03418-.2314-.02692-.0781.00727-.1539.03081-.2224.0691l-2.8715 1.60125h-.0938l-2.86405-1.60312c-.06882-.03841-.14494-.06193-.22343-.06904-.07849-.0071-.1576.00236-.2322.02779-1.2373.41643-2.3842 1.06416-3.37969 1.90875-.06196.05253-.11181.11786-.14612.1915-.03431.07363-.05227.15383-.05263.23506l-.015 3.21938c-.01312.02156-.02625.04406-.03843.06656l-2.85 1.62094c-.07004.04002-.13066.09464-.17773.16015-.04707.06552-.0795.14038-.09509.21958-.25031 1.262-.25031 2.561 0 3.8231.01632.0784.04917.1524.09638.217.04721.0647.10768.1186.17737.158l2.85188 1.6247.03937.0665.01125 3.2166c-.00045.0822.01711.1635.05144.2381.03434.0747.08462.1409.14731.1941.99669.8427 2.14415 1.4888 3.38157 1.904.07439.0251.15319.0342.23133.027.07815-.0073.15391-.0308.22242-.0691l2.86965-1.6013h.0938l2.865 1.6031c.0838.0464.178.0709.2737.0713.0616.0002.1228-.0099.181-.03 1.2356-.417 2.3809-1.0647 3.375-1.9088.0619-.0525.1118-.1178.1461-.1915.0343-.0736.0523-.1538.0526-.235l.015-3.2194c.0131-.0216.0263-.0441.0385-.0666l2.8518-1.6209c.0702-.0399.131-.0945.1783-.16.0472-.0655.0798-.1405.0955-.2197.2515-1.2618.2528-2.5608.0037-3.8231zm-1.0547 3.3553-2.759 1.5666c-.0895.0511-.1634.1257-.2138.2156-.0553.0937-.1134.1978-.1743.2944-.0555.0888-.0851.1914-.0854.2962l-.015 3.1134c-.7757.6215-1.647 1.1132-2.58 1.456l-2.774-1.5525c-.0839-.0472-.1785-.072-.2747-.0722h-.0131c-.1163 0-.2344 0-.3507 0-.1005-.0024-.1999.0222-.2878.0712l-2.78153 1.5525c-.93417-.341-1.80677-.8314-2.58375-1.4521l-.01125-3.1097c-.00029-.1048-.02984-.2074-.08531-.2963-.06-.0937-.11906-.195-.17438-.2944-.04988-.0899-.12349-.1645-.21281-.2156l-2.75906-1.5722c-.16039-.9555-.16039-1.931 0-2.8865l2.75437-1.5666c.09085-.05064.16607-.12522.2175-.21562.05532-.09375.11344-.19781.17438-.29438.05547-.08887.08502-.19148.08531-.29625l.015-3.11343c.77458-.62113 1.64458-1.1128 2.57625-1.45594l2.77408 1.5525c.0875.04991.1871.07457.2878.07125h.3506c.1006.00242.2-.02219.2878-.07125l2.7797-1.5525c.9342.34104 1.8068.83148 2.5838 1.45219l.0112 3.10968c.0003.10477.0299.20738.0853.29625.06.09375.1191.195.1744.29438.0499.08998.1235.16456.2128.21562l2.761 1.5731c.1613.9554.1622 1.9309.0028 2.8866z" fill="#000" fill-opacity=".8"/></svg>