<svg fill="none" height="24" viewBox="0 0 24 24" width="24" xmlns="http://www.w3.org/2000/svg"><path d="m20.25 12.2025c.0038-.135.0038-.27 0-.405l1.3988-1.7475c.0733-.09171.1241-.1994.1482-.31437.0241-.11496.0209-.23398-.0095-.34746-.2297-.8618-.5727-1.68933-1.02-2.46094-.0586-.10095-.1399-.18683-.2376-.25079s-.2089-.10425-.3249-.11765l-2.2237-.2475c-.0925-.0975-.1863-.19125-.2813-.28125l-.2625-2.22937c-.0135-.11605-.0539-.22734-.118-.325s-.1502-.17899-.2513-.2375c-.7716-.44696-1.5992-.78933-2.461-1.01813-.1135-.03032-.2325-.03356-.3474-.00946-.115.0241-.2227.07487-.3144.14821l-1.7429 1.39125c-.135 0-.27 0-.405 0l-1.7475-1.39593c-.09171-.07335-.1994-.12411-.31437-.14821-.11496-.0241-.23398-.02086-.34746.00946-.8618.22971-1.68933.5727-2.46094 1.02-.10095.05861-.18683.13999-.25079.23764s-.10425.20889-.11765.32486l-.2475 2.2275c-.0975.09312-.19125.18687-.28125.28125l-2.22937.25593c-.11605.01351-.22734.05393-.325.11806s-.17899.15019-.2375.25132c-.44686.77171-.78953 1.59922-1.01906 2.46094-.0302.11355-.03328.23261-.00902.34758.02426.11496.0752.22262.1487.31426l1.39125 1.7428v.405l-1.39593 1.7475c-.07335.0918-.12411.1995-.14821.3145-.0241.1149-.02086.2339.00946.3474.22971.8618.5727 1.6893 1.02 2.461.05861.1009.13999.1868.23764.2507.09765.064.20889.1043.32486.1177l2.22375.2475c.09312.0975.18687.1912.28125.2812l.25968 2.2294c.01351.1161.05393.2274.11806.325.06413.0977.15019.179.25132.2375.77171.4469 1.59922.7896 2.46094 1.0191.11355.0302.23261.0333.34758.009.11496-.0243.22262-.0752.31426-.1487l1.7428-1.3913c.135.0038.27.0038.405 0l1.7475 1.3988c.0918.0733.1995.1241.3145.1482.1149.0241.2339.0209.3474-.0095.862-.2293 1.6895-.5723 2.461-1.02.1009-.0586.1868-.1399.2507-.2376.064-.0977.1043-.2089.1177-.3249l.2475-2.2237c.0975-.0925.1912-.1863.2812-.2813l2.2294-.2625c.1161-.0135.2274-.0539.325-.118.0977-.0641.179-.1502.2375-.2513.4469-.7717.7896-1.5993 1.0191-2.461.0302-.1135.0333-.2326.009-.3475-.0243-.115-.0752-.2227-.1487-.3143zm-8.25 3.5475c-.7416 0-1.4667-.2199-2.08334-.6319-.61669-.4121-1.09734-.9978-1.38117-1.683-.28382-.6852-.35809-1.4392-.21339-2.1666.14469-.7275.50185-1.39566 1.02629-1.92011.52445-.52444 1.19261-.8816 1.92011-1.02629.7274-.1447 1.4814-.07043 2.1666.21339.6852.28383 1.2709.76448 1.683 1.38117.412.61664.6319 1.34174.6319 2.08334 0 .9946-.395 1.9484-1.0983 2.6517s-1.6571 1.0983-2.6517 1.0983z" fill="#000" fill-opacity=".8"/></svg>