<svg fill="none" height="24" viewBox="0 0 24 24" width="24" xmlns="http://www.w3.org/2000/svg"><path d="m22.3071 10.051c-.0209-.10557-.0643-.20545-.1272-.29281-.063-.08735-.144-.16013-.2375-.2134l-2.7966-1.59375-.0112-3.15187c-.0004-.10855-.0243-.21573-.0701-.31415-.0458-.09841-.1124-.1857-.1953-.25585-1.0144-.8581-2.1826-1.51569-3.4425-1.93782-.0992-.03358-.2043-.046-.3086-.03648-.1043.00953-.2055.0408-.297.0918l-2.8209 1.57687-2.82377-1.57969c-.09155-.05128-.19283-.08279-.29732-.09248-.10448-.00969-.20983.00266-.30924.03623-1.2591.42484-2.42603 1.08498-3.43875 1.94532-.08272.07004-.14927.15719-.19508.25543-.0458.09824-.06976.20524-.07024.31363l-.01406 3.15469-2.79656 1.59375c-.09356.05326-.17456.12604-.23749.2134-.06293.08735-.10631.18723-.1272.29288-.25594 1.2861-.25594 2.6101 0 3.8962.02089.1056.06427.2055.1272.2929.06293.0873.14393.1601.23749.2134l2.79656 1.5937.01125 3.1528c.00034.1086.02424.2158.07005.3142.0458.0984.11243.1857.19526.2558 1.01445.8581 2.18265 1.5157 3.4425 1.9378.09922.0336.20437.0461.30867.0365.10431-.0095.20547-.0408.29696-.0918l2.82377-1.5815 2.8237 1.5797c.1118.0622.2377.0945.3657.0937.0819 0 .1632-.0133.2409-.0394 1.2588-.4246 2.4256-1.0841 3.4387-1.9434.0828-.0701.1493-.1572.1951-.2554.0458-.0983.0698-.2053.0703-.3137l.014-3.1547 2.7966-1.5937c.0935-.0533.1745-.1261.2375-.2134.0629-.0874.1063-.1872.1272-.2929.2545-1.2851.2535-2.6077-.0028-3.8925zm-10.3069 5.6991c-.7417 0-1.4667-.2199-2.08341-.632-.61668-.412-1.09733-.9977-1.38116-1.6829-.28383-.6853-.35809-1.4393-.2134-2.1667.1447-.7274.50185-1.3956 1.0263-1.92005.52444-.52444 1.19267-.8816 1.92007-1.02629.7274-.1447 1.4814-.07043 2.1666.2134.6853.28382 1.2709.76447 1.683 1.38116.412.61668.632 1.34168.632 2.08338 0 .9946-.3951 1.9484-1.0984 2.6517-.7032.7032-1.6571 1.0983-2.6516 1.0983z" fill="#000" fill-opacity=".8"/></svg>