<svg fill="none" height="24" viewBox="0 0 24 24" width="24" xmlns="http://www.w3.org/2000/svg"><path d="m12.0002 7.68737c-.853 0-1.6868.25293-2.39594.72679-.70919.47386-1.26193 1.14738-1.58833 1.93544-.32641.788-.41181 1.6551-.24541 2.4916s.57713 1.605 1.18024 2.2081 1.37154 1.0138 2.20804 1.1802c.8366.1664 1.7037.081 2.4917-.2454s1.4615-.8791 1.9354-1.5883c.4738-.7092.7268-1.543.7268-2.3959-.0015-1.1433-.4564-2.23935-1.2648-3.04778s-1.9045-1.26326-3.0477-1.26475zm0 7.50003c-.6305 0-1.2467-.187-1.7709-.5372-.5242-.3503-.93275-.8481-1.17401-1.4305-.24125-.5825-.30438-1.2234-.18139-1.8417.123-.6183.42658-1.1862.87235-1.63203.44575-.44578 1.01375-.74936 1.63205-.87235s1.2592-.05987 1.8417.18139c.5824.24125 1.0802.6498 1.4305 1.17399.3502.5242.5372 1.1404.5372 1.7709 0 .8454-.3359 1.6561-.9336 2.2539-.5978.5977-1.4086.9336-2.2539.9336zm8.0625-2.9213c.0056-.1772.0056-.3553 0-.5325l1.4371-1.79623c.055-.06876.093-.14945.1111-.23558.0181-.08614.0157-.17531-.007-.26035-.2249-.84744-.5616-1.66115-1.0012-2.41969-.0437-.07699-.1049-.14258-.1787-.19145s-.1581-.07964-.246-.0898l-2.2922-.25406c-.1206-.12938-.2456-.25438-.375-.375l-.255-2.29313c-.0102-.08792-.0409-.17221-.0898-.246-.0489-.0738-.1145-.13502-.1915-.17869-.7576-.43841-1.57-.77446-2.4159-.99937-.0853-.02228-.1746-.02421-.2607-.00565s-.1667.05711-.2352.11252l-1.8 1.44094c-.1772-.00562-.3554-.00562-.5325 0l-1.79254-1.44187c-.06876-.05494-.14945-.09297-.23559-.11105-.08613-.01807-.17531-.01568-.26035.00698-.84743.22486-1.66115.56157-2.41969 1.00125-.07698.04367-.14258.10489-.19145.17869-.04887.07379-.07963.15808-.0898.246l-.25031 2.29219c-.12937.12125-.25437.24625-.375.375l-2.29406.26062c-.08793.01016-.17221.04093-.24601.0898-.07379.04887-.13501.11447-.17868.19145-.43841.75762-.77447 1.57001-.99937 2.41594-.02174.08421-.02366.17231-.0056.25739.01805.08507.05559.1648.10966.23292l1.44094 1.80003c-.00563.1772-.00563.3553 0 .5325l-1.44188 1.7972c-.05493.0687-.09297.1494-.11104.2355-.01807.0862-.01568.1754.00698.2604.22525.8458.56195 1.6579 1.00125 2.415.04367.077.10489.1426.17868.1914.0738.0489.15808.0797.24601.0898l2.29218.2541c.12125.1294.24625.2544.375.375l.26063 2.2903c.01016.0879.04093.1722.0898.246s.11446.135.19145.1787c.75761.4384 1.57.7745 2.41594.9994.08504.0226.17421.025.26035.007.08613-.0181.16682-.0561.23558-.1111l1.79062-1.4362c.1772.0056.3553.0056.5325 0l1.8009 1.4418c.0999.0797.2239.123.3516.1229.0487-.0002.0972-.0065.1444-.0188.8458-.2252 1.6579-.5619 2.415-1.0012.077-.0437.1426-.1049.1914-.1787.0489-.0738.0797-.1581.0898-.246l.2541-2.2922c.1294-.1206.2544-.2456.375-.375l2.2931-.255c.0879-.0102.1722-.0409.246-.0898s.135-.1145.1787-.1915c.4386-.7575.7746-1.5699.9994-2.4159.0226-.085.025-.1742.007-.2604-.0181-.0861-.0561-.1668-.1111-.2355zm-.2907 3.9028-2.2162.2466c-.1385.016-.2661.0828-.3581.1875-.1853.2087-.3829.4063-.5916.5916-.1047.092-.1715.2196-.1875.3581l-.2466 2.2153c-.5188.2767-1.064.5009-1.6275.6694l-1.7409-1.3932c-.0998-.0796-.2238-.1229-.3516-.1228h-.0337c-.2785.016-.5577.016-.8363 0-.1391-.0085-.2764.035-.3853.1219l-1.73998 1.3941c-.56291-.1694-1.10749-.3946-1.62562-.6722l-.24657-2.2144c-.01596-.1385-.08278-.2661-.1875-.3581-.20873-.1853-.40627-.3828-.59156-.5916-.09202-.1047-.21964-.1715-.35812-.1875l-2.21532-.2465c-.27642-.5174-.50065-1.061-.66937-1.6229l1.39312-1.7409c.08696-.1089.13039-.2462.12188-.3853-.01594-.2785-.01594-.5577 0-.8363.00851-.1391-.03492-.2764-.12188-.3853l-1.39312-1.73996c.16936-.56291.39454-1.1075.67219-1.62563l2.21437-.24656c.13849-.01597.26611-.08278.35813-.1875.18529-.20873.38283-.40627.59156-.59156.10471-.09202.17153-.21965.1875-.35813l.24656-2.21531c.51739-.27642 1.061-.50066 1.62281-.66938l1.74092 1.39313c.1089.08695.2462.13038.3853.12187.2786-.01593.5578-.01593.8363 0 .1391.00851.2764-.03492.3853-.12187l1.74-1.39313c.5629.16936 1.1075.39454 1.6256.67219l.2466 2.21625c.0159.13848.0828.26611.1875.35813.2087.18529.4063.38283.5915.59156.0921.10472.2197.17153.3582.1875l2.2153.24656c.2763.51679.5005 1.05977.6694 1.62094l-1.3932 1.7409c-.0869.1089-.1303.2462-.1218.3853.0159.2786.0159.5578 0 .8363-.0085.1391.0349.2764.1218.3853l1.3932 1.74c-.1688.5629-.3934 1.1074-.6704 1.6256z" fill="#000" fill-opacity=".8"/></svg>