<svg fill="none" height="24" viewBox="0 0 24 24" width="24" xmlns="http://www.w3.org/2000/svg"><path d="m12 7.50004c-.89 0-1.76.26392-2.50002.75839s-1.3168 1.19727-1.65739 2.01957c-.3406.8222-.42971 1.727-.25608 2.5999.17363.873.60222 1.6748 1.23155 2.3041.62934.6294 1.43114 1.0579 2.30404 1.2316.873.1736 1.7778.0845 2.6-.2561.8223-.3406 1.5251-.9174 2.0196-1.6574.4944-.74.7583-1.61.7583-2.5001-.0012-1.193-.4757-2.33692-1.3193-3.18057-.8437-.84364-1.9876-1.31815-3.1807-1.31939zm0 7.49996c-.5933 0-1.1733-.1759-1.6667-.5055-.49331-.3297-.87783-.7982-1.1049-1.3464-.22706-.5482-.28647-1.1514-.17071-1.7333.11575-.582.40148-1.1165.82103-1.53608.41958-.41955.95408-.70528 1.53608-.82103.5819-.11576 1.1851-.05635 1.7333.17071.5482.22707 1.0167.61159 1.3464 1.1049.3296.4934.5055 1.0734.5055 1.6667 0 .7957-.316 1.5588-.8786 2.1214s-1.3257.8786-2.1214.8786zm8.25-2.7975c.0038-.135.0038-.27 0-.405l1.3988-1.7475c.0733-.09171.1241-.1994.1482-.31437.0241-.11496.0209-.23398-.0095-.34746-.2293-.86194-.5723-1.68952-1.02-2.46094-.0586-.10095-.1399-.18683-.2376-.25079s-.2089-.10425-.3249-.11765l-2.2237-.2475c-.0925-.0975-.1863-.19125-.2813-.28125l-.2625-2.22937c-.0135-.11605-.0539-.22734-.118-.325s-.1502-.17899-.2513-.2375c-.7717-.44686-1.5993-.78953-2.461-1.01906-.1135-.0302-.2326-.03328-.3475-.00902-.115.02426-.2227.0752-.3143.1487l-1.7429 1.39125c-.135 0-.27 0-.405 0l-1.7475-1.39593c-.09171-.07335-.1994-.12411-.31437-.14821-.11496-.0241-.23398-.02086-.34746.00946-.8618.22971-1.68933.5727-2.46094 1.02-.10095.05861-.18683.13999-.25079.23764s-.10425.20889-.11765.32486l-.2475 2.2275c-.0975.09312-.19125.18687-.28125.28125l-2.22937.25593c-.11605.01351-.22734.05393-.325.11806s-.17899.15019-.2375.25132c-.44686.77171-.78953 1.59922-1.01906 2.46094-.0302.11355-.03328.23261-.00902.34758.02426.11496.0752.22262.1487.31426l1.39125 1.7428v.405l-1.39593 1.7475c-.07335.0918-.12411.1995-.14821.3145-.0241.1149-.02086.2339.00946.3474.2293.862.57231 1.6895 1.02 2.461.05861.1009.13999.1868.23764.2507.09765.064.20889.1043.32486.1177l2.22375.2475c.09312.0975.18687.1912.28125.2812l.25968 2.2294c.01351.1161.05393.2274.11806.325.06413.0977.15019.179.25132.2375.77171.4469 1.59922.7896 2.46094 1.0191.11355.0302.23261.0333.34758.009.11496-.0243.22262-.0752.31426-.1487l1.7428-1.3913c.135.0038.27.0038.405 0l1.7475 1.3988c.0918.0733.1995.1241.3145.1482.1149.0241.2339.0209.3474-.0095.862-.2293 1.6895-.5723 2.461-1.02.1009-.0586.1868-.1399.2507-.2376.064-.0977.1043-.2089.1177-.3249l.2475-2.2237c.0975-.0925.1912-.1863.2812-.2813l2.2294-.2625c.1161-.0135.2274-.0539.325-.118.0977-.0641.179-.1502.2375-.2513.4469-.7717.7896-1.5993 1.0191-2.461.0302-.1135.0333-.2326.009-.3475-.0243-.115-.0752-.2227-.1487-.3143zm-1.5093-.6093c.0159.271.0159.5427 0 .8137-.0112.1856.0469.3687.1631.5138l1.3303 1.6622c-.1526.4851-.3481.9557-.5841 1.4062l-2.1187.24c-.1845.0205-.3549.1087-.4781.2475-.1805.203-.3727.3952-.5757.5756-.1388.1233-.227.2936-.2475.4782l-.2353 2.1168c-.4504.2361-.9211.4316-1.4062.5841l-1.6631-1.3303c-.1331-.1064-.2984-.1642-.4688-.1641h-.045c-.271.016-.5427.016-.8137 0-.1856-.0112-.3687.047-.5138.1631l-1.66687 1.3313c-.48512-.1527-.95573-.3481-1.40625-.5841l-.24-2.1159c-.02048-.1845-.10867-.3549-.2475-.4781-.20296-.1805-.39516-.3727-.57562-.5757-.12325-.1388-.29362-.227-.47813-.2475l-2.11687-.2362c-.23607-.4505-.43154-.9211-.58407-1.4063l1.33032-1.6631c.11616-.1451.17429-.3282.16312-.5137-.01594-.271-.01594-.5428 0-.8138.01117-.1855-.04696-.3686-.16312-.5137l-1.33032-1.66597c.15265-.48512.34811-.95573.58407-1.40625l2.11593-.24c.18452-.02048.35488-.10867.47813-.2475.18046-.20296.37266-.39516.57562-.57562.13939-.12334.22794-.29409.24844-.47907l.23531-2.11593c.45048-.23607.92109-.43154 1.40625-.58407l1.66316 1.33032c.1451.11616.3282.17429.5137.16312.271-.01594.5428-.01594.8138 0 .1855.01117.3686-.04696.5137-.16312l1.666-1.33032c.4851.15265.9557.34811 1.4062.58407l.24 2.11593c.0205.18452.1087.35488.2475.47813.203.18046.3952.37266.5756.57562.1233.13884.2936.22702.4782.2475l2.1168.23532c.2361.45047.4316.92108.5841 1.40625l-1.3303 1.66309c-.1173.1464-.1755.3313-.1631.5185z" fill="#000" fill-opacity=".8"/></svg>