<svg fill="none" height="24" viewBox="0 0 24 24" width="24" xmlns="http://www.w3.org/2000/svg"><path d="m17.2751 2.80596c.0255-.09518.0695-.18441.1294-.2626.06-.07818.1347-.14379.2201-.19307.0853-.04927.1795-.08126.2772-.09412s.1969-.00635.2921.01917c1.4906.40031 2.7187 1.32281 3.4556 2.59969.0995.1723.1264.37706.0749.56923s-.1773.356-.3496.45545c-.1723.09946-.377.12639-.5692.07488s-.356-.17726-.4555-.34956c-.5362-.93-1.44-1.605-2.5443-1.90032-.0952-.02545-.1845-.06942-.2626-.12938-.0782-.05995-.1438-.13473-.1931-.22005s-.0813-.17951-.0941-.2772c-.0129-.09769-.0064-.19695.0191-.29212zm-9.81465 18.35534c-.87938-.6938-1.61438-1.5788-2.31094-2.7863-.04925-.0853-.11481-.1601-.19296-.2201-.07815-.0599-.16734-.1039-.26249-.1294s-.1944-.0321-.29207-.0192c-.09767.0128-.19185.0448-.27717.094-.08531.0493-.1601.1149-.22008.193-.05997.0781-.10397.1673-.12948.2625-.02551.0951-.03202.1944-.01918.2921.01285.0976.04481.1918.09406.2771.79593 1.3782 1.64718 2.3991 2.68125 3.2138.15639.1203.3539.1741.54972.1498s.37417-.1248.4964-.2797.17848-.3517.15657-.5478c-.02192-.1961-.12023-.3757-.27363-.4998zm10.93215-15.6844c-.0971-.17315-.2277-.32529-.3841-.4476-.1564-.1223-.3355-.21235-.5269-.26491-.1915-.05256-.3915-.06659-.5884-.04127-.1969.02531-.3868.08947-.5588.18875-.1719.09928-.3224.2317-.4428.38959s-.2082.3381-.2584.5302c-.0502.19209-.0618.39223-.034.58882.0277.19659.0942.38572.1956.55642l1.5 2.59781c.0493.08532.0813.1795.0941.27717.0129.09768.0064.19692-.0191.29212-.0256.0951-.0696.1843-.1295.2625-.06.0781-.1348.1437-.2202.1929-.6889.3979-1.1916 1.0531-1.3975 1.8216-.2058.7684-.098 1.5872.2997 2.2762.0995.1723.1264.3771.0749.5692-.0515.1922-.1773.356-.3496.4555s-.377.1264-.5692.0749-.356-.1773-.4555-.3496c-.5304-.9217-.7179-2.0012-.5292-3.0478.1888-1.0465.7415-1.9926 1.5605-2.67094l-3.7828-6.54843c-.1989-.34462-.5266-.5961-.9109-.69913-.3844-.10303-.7939-.04916-1.13849.14975-.34461.19891-.5961.52658-.69913.91091-.10302.38433-.04916.79385.14976 1.13847l2.99996 5.19656c.0933.17181.1158.37321.0628.56141-.053.1881-.1774.3482-.3467.4459-.1693.0978-.3701.1256-.5596.0776-.1895-.0481-.3527-.1683-.4549-.3349l-3.75-6.49595c-.19891-.34461-.52658-.5961-.91091-.69912-.38433-.10303-.79385-.04917-1.13847.14975-.34461.19891-.5961.52657-.69912.91091-.10303.38433-.04916.79385.14975 1.13846l4.125 7.14465c.05236.0854.08709.1804.10214.2794s.01012.2001-.01451.2972c-.02462.097-.06844.1882-.12887.2681-.06043.0798-.13625.1468-.22297.1969-.08673.0501-.18261.0823-.28199.0947-.09937.0125-.20024.0049-.29663-.0223-.0964-.0272-.18638-.0734-.26463-.1359s-.14319-.14-.19098-.2281l-2.625-4.5459c-.09849-.17063-.22963-.3202-.38592-.44016-.15629-.11995-.33469-.20795-.52499-.25896-.1903-.05102-.38879-.06405-.58412-.03836-.19534.0257-.38371.08962-.55434.18811-.17064.09849-.32021.22962-.44016.38592-.11996.15629-.20796.33468-.25897.52498-.05102.19031-.06405.38879-.03835.58413.02569.19534.08961.38374.1881.55434l4.125 7.1447c1.09655 1.8899 2.89802 3.2676 5.00914 3.8308 2.1111.5632 4.3594.266 6.2517-.8265 1.8922-1.0925 3.2738-2.891 3.8416-5.0009.5677-2.1099.2753-4.3588-.8131-6.25341z" fill="#000" fill-opacity=".8"/></svg>