<svg fill="none" height="24" viewBox="0 0 24 24" width="24" xmlns="http://www.w3.org/2000/svg"><path d="m17.625 8.4375c-.4655-.00052-.9212.13326-1.3125.38531v-3.19781c-.0002-.44271-.1209-.87701-.3493-1.25629-.2283-.37927-.5557-.68919-.9468-.89649-.3912-.2073-.8315-.30415-1.2735-.28015-.4421.024-.8693.16794-1.2357.41637-.1274-.58788-.4677-1.10789-.9554-1.45998-.4878-.3521-1.0885-.51142-1.68656-.44732-.5981.06411-1.15138.34711-1.55341.79456-.40202.44746-.62439 1.02777-.62433 1.6293v.94781c-.36826-.23532-.79301-.3673-1.22979-.38213-.43677-.01483-.8695.08804-1.25287.29784s-.70329.51881-.92625.89468-.34077.80478-.34109 1.2418v7.125c0 2.1383.84944 4.189 2.36145 5.701 1.51201 1.5121 3.56274 2.3615 5.70105 2.3615 2.1383 0 4.189-.8494 5.701-2.3615 1.5121-1.512 2.3615-3.5627 2.3615-5.701v-3.375c0-.3201-.063-.6371-.1855-.93279-.1225-.29573-.3021-.56444-.5284-.79078-.2264-.22634-.4951-.40589-.7908-.52838-.2957-.1225-.6127-.18555-.9328-.18555zm1.3125 5.8125c0 1.8399-.7309 3.6045-2.0319 4.9056-1.3011 1.301-3.0657 2.0319-4.9056 2.0319s-3.60452-.7309-4.90555-2.0319c-1.30104-1.3011-2.03195-3.0657-2.03195-4.9056v-7.125c0-.34809.13828-.68193.38442-.92808.24614-.24614.57998-.38442.92808-.38442s.68194.13828.92808.38442c.24614.24615.38442.57999.38442.92808v4.125c0 .1492.05926.2923.16475.3977.10549.1055.24857.1648.39775.1648s.29226-.0593.39775-.1648c.10549-.1054.16475-.2485.16475-.3977v-7.125c0-.3481.13828-.68193.38442-.92808.24614-.24614.57998-.38442.92808-.38442s.6819.13828.9281.38442c.2461.24615.3844.57998.3844.92808v6.375c0 .1492.0593.2923.1648.3977.1054.1055.2485.1648.3977.1648s.2923-.0593.3977-.1648c.1055-.1054.1648-.2485.1648-.3977v-4.875c0-.3481.1383-.68193.3844-.92808.2462-.24614.58-.38442.9281-.38442s.6819.13828.9281.38442c.2461.24615.3844.57998.3844.92808v6.5991c-1.0369.1378-1.9885.6472-2.6781 1.4336-.6897.7864-1.0706 1.7963-1.0719 2.8423 0 .1492.0593.2923.1648.3977.1054.1055.2485.1648.3977.1648s.2923-.0593.3977-.1648c.1055-.1054.1648-.2485.1648-.3977 0-.8454.3358-1.6561.9336-2.2539s1.4085-.9336 2.2539-.9336c.1492 0 .2923-.0593.3977-.1648.1055-.1054.1648-.2485.1648-.3977v-1.875c0-.3481.1383-.6819.3844-.92808.2462-.24614.58-.38442.9281-.38442s.6819.13828.9281.38442c.2461.24618.3844.57998.3844.92808z" fill="#000" fill-opacity=".8"/></svg>