<svg fill="none" height="24" viewBox="0 0 24 24" width="24" xmlns="http://www.w3.org/2000/svg"><path d="m20.25 9.75v4.5c0 2.188-.8692 4.2865-2.4164 5.8336-1.5471 1.5472-3.6456 2.4164-5.8336 2.4164-2.18804 0-4.28646-.8692-5.83363-2.4164-1.54718-1.5471-2.41637-3.6456-2.41637-5.8336v-8.25c0-.39782.15804-.77936.43934-1.06066s.66284-.43934 1.06066-.43934.77936.15804 1.06066.43934.43934.66284.43934 1.06066v5.25c0 .1989.07902.3897.21967.5303.14065.1407.33142.2197.53033.2197s.38968-.079.53033-.2197c.14065-.1406.21967-.3314.21967-.5303v-8.25c0-.39782.15804-.77936.43934-1.06066s.66284-.43934 1.06066-.43934c.3978 0 .7794.15804 1.0607.43934s.4393.66284.4393 1.06066v7.5c0 .1989.079.3897.2197.5303.1406.1407.3314.2197.5303.2197s.3897-.079.5303-.2197c.1407-.1406.2197-.3314.2197-.5303v-6c0-.39782.158-.77936.4393-1.06066s.6629-.43934 1.0607-.43934.7794.15804 1.0607.43934.4393.66284.4393 1.06066v7.5628c-1.0479.1787-1.999.7219-2.6852 1.5339-.6862.8119-1.0633 1.8402-1.0648 2.9033 0 .1989.079.3897.2197.5303.1406.1407.3314.2197.5303.2197s.3897-.079.5303-.2197c.1407-.1406.2197-.3314.2197-.5303 0-.7956.3161-1.5587.8787-2.1213s1.3257-.8787 2.1213-.8787c.1989 0 .3897-.079.5303-.2197.1407-.1406.2197-.3314.2197-.5303v-3c0-.39782.158-.77936.4393-1.06066s.6629-.43934 1.0607-.43934.7794.15804 1.0607.43934.4393.66284.4393 1.06066z" fill="#000" fill-opacity=".8"/></svg>