<svg fill="none" height="24" viewBox="0 0 24 24" width="24" xmlns="http://www.w3.org/2000/svg"><path d="m17.4562 2.85471c.0191-.07135.0521-.13822.0971-.19681s.1011-.10774.1651-.14465.1346-.06086.2078-.07048c.0733-.00961.1477-.00471.219.01444 1.4429.38625 2.625 1.27875 3.3422 2.51156.0746.12929.0948.28292.0561.42709s-.133.26707-.2623.34166-.2829.09477-.4271.05609-.2671-.13305-.3417-.26234c-.5625-.97312-1.5056-1.67906-2.6578-1.9875-.0714-.01904-.1384-.05198-.1971-.09693-.0587-.04494-.1079-.10102-.1449-.16501-.037-.064-.0611-.13466-.0707-.20795-.0097-.07329-.0049-.14777.0143-.21917zm-10.1119 18.45379c-.89906-.7088-1.64812-1.6107-2.35687-2.8397-.0746-.1293-.19749-.2237-.34166-.2624-.14417-.0386-.2978-.0185-.42709.0561-.1293.0746-.22366.1975-.26234.3417-.03868.1441-.01851.2978.05609.4271.78375 1.3565 1.62093 2.3606 2.63531 3.1603.0578.0475.1245.083.19619.1044.0717.0214.14694.0283.22134.0203.07439-.008.14643-.0308.21191-.067s.12307-.0851.16941-.1439c.04634-.0587.08049-.1261.10045-.1983.01997-.0721.02535-.1474.01582-.2217-.00953-.0742-.03376-.1457-.07129-.2105-.03753-.0647-.0876-.1213-.14727-.1664zm13.9425-5.7188c-.461 1.7107-1.472 3.2223-2.877 4.3016-1.4049 1.0794-3.126 1.6666-4.8977 1.6712-.7093-.0017-1.4153-.0963-2.1-.2812-1.0233-.2707-1.98281-.7414-2.8231-1.3851-.84029-.6436-1.5447-1.4474-2.07251-2.3649l-3.5625-6.1707c-.2192-.3786-.33245-.8092-.32788-1.2467.00457-.43745.1268-.86562.35386-1.23958.22705-.37395.55058-.67991.93661-.88576.38604-.20584.82037-.304 1.25741-.28416l-.46875-.81844c-.29498-.52038-.38832-1.13105-.26225-1.71579.12608-.58473.46276-1.10268.94597-1.45527.4832-.35259 1.07919-.5152 1.6745-.45686.59532.05834 1.1484.33355 1.55397.77323.19316-.39822.4911-.73633.86185-.97806.37076-.24173.80032-.37794 1.24262-.39404.4423-.01609.8807.08855 1.268.3027.3873.21414.7091.52971.9307.91284l1.5984 2.7675c.2016-.38781.5038-.71427.8748-.9452.3711-.23093.7975-.35783 1.2345-.36742.4369-.00958.8684.0985 1.2493.31294.3808.21444.697.52734.9155.90593l1.6875 2.92312c.5317.91532.8767 1.92702 1.0151 2.97652.1383 1.0495.0674 2.116-.2089 3.1379zm-1.7812-5.5556-1.6875-2.92314c-.0862-.14928-.201-.28012-.3377-.38505-.1368-.10494-.2928-.18191-.4593-.22652-.3363-.09011-.6945-.04295-.996.1311-.1493.08618-.2801.20092-.3851.33766-.1049.13675-.1819.29282-.2265.45931-.0901.33625-.0429.69452.1311.996l.9375 1.62374c.037.064.0611.1346.0708.2078.0097.0733.0049.1477-.0142.2191-.019.0714-.052.1383-.0969.197-.045.0587-.101.1079-.165.1449-.7321.4226-1.2663 1.1187-1.4852 1.9351-.2189.8165-.1045 1.6865.318 2.4186.0386.064.064.1351.0747.209.0108.074.0067.1494-.0119.2217-.0187.0724-.0516.1403-.0968.1998-.0453.0595-.1019.1094-.1666.1468-.0647.0373-.1362.0614-.2104.0709-.0741.0094-.1494.0039-.2214-.0161s-.1393-.0541-.1979-.1004c-.0587-.0463-.1076-.1038-.1437-.1692-.5217-.9066-.6966-1.9717-.4925-2.9975s.7735-1.9428 1.6025-2.5806l-3.3-5.71877c-.0862-.14927-.201-.28011-.3377-.38505-.1368-.10493-.2928-.1819-.4593-.22652-.1665-.04461-.3402-.056-.5111-.0335-.1709.02249-.3356.07842-.4849.1646-.30149.17405-.52148.46073-.61159.79698-.0901.33625-.04294.69452.1311.99599l2.43749 4.21875c.0386.06402.064.13512.0747.20902.0108.074.0067.1493-.0119.2217-.0187.0723-.0516.1403-.0968.1998-.0453.0595-.1019.1094-.1666.1467-.0647.0374-.1362.0615-.2104.0709-.0741.0095-.1494.004-.2214-.016s-.1393-.0541-.1979-.1004c-.0587-.0463-.1076-.1038-.1437-.1692l-3.18755-5.52096c-.08618-.14927-.20092-.28011-.33766-.38504-.13675-.10494-.29282-.18191-.45931-.22653-.1665-.04461-.34015-.056-.51104-.0335-.17089.02249-.33568.07843-.48496.16461-.14927.08618-.28011.20091-.38505.33766-.10493.13675-.1819.29282-.22652.45931-.04461.16649-.056.34014-.0335.51104.02249.17089.07842.33568.1646.48495l3.5625 6.16966c.03855.0641.06395.1351.07473.2091.01077.0739.0067.1493-.01198.2216-.01867.0724-.05158.1403-.0968.1998-.04521.0595-.10183.1094-.16655.1468s-.13623.0615-.21037.0709c-.07413.0094-.1494.004-.22141-.016s-.13931-.0542-.19798-.1005c-.05866-.0463-.10751-.1038-.1437-.1692l-2.0625-3.57184c-.08618-.14928-.20092-.28012-.33766-.38505-.13675-.10494-.29282-.18191-.45931-.22652-.1665-.04462-.34015-.056-.51104-.03351s-.33568.07843-.48496.16461c-.30147.17405-.52146.46073-.61157.79697-.0901.33624-.04294.69454.1311.99604l3.56344 6.1753c.92445 1.5845 2.43887 2.7384 4.21195 3.2091 1.773.4708 3.6604.2201 5.2491-.6971 1.5887-.9173 2.7494-2.4264 3.2282-4.1973s.2367-3.6594-.6733-5.2522z" fill="#000" fill-opacity=".8"/></svg>