<svg fill="none" height="24" viewBox="0 0 24 24" width="24" xmlns="http://www.w3.org/2000/svg"><path d="m17.625 8.25005c-.3893-.00055-.7737.08628-1.125.25407v-2.87907c-.0001-.45489-.1184-.90196-.3434-1.29735-.2249-.39539-.5488-.72554-.9397-.95808-.391-.23254-.8357-.35949-1.2905-.3684-.4548-.0089-.9041.10053-1.3039.31758-.1925-.59476-.5909-1.10132-1.1235-1.42853-.5327-.32721-1.1646-.45358-1.78213-.35639-.61753.0972-1.1801.41158-1.58649.88659s-.62993 1.07945-.63038 1.70458v.62907c-.35127-.16779-.73571-.25462-1.125-.25407-.69619 0-1.36387.27657-1.85616.76885-.49228.49228-.76884 1.15996-.76884 1.85615v7.12505c0 2.188.86919 4.2864 2.41637 5.8336 1.54717 1.5472 3.64559 2.4164 5.83363 2.4164 2.188 0 4.2865-.8692 5.8336-2.4164 1.5472-1.5472 2.4164-3.6456 2.4164-5.8336v-3.375c0-.6962-.2766-1.36392-.7688-1.8562-.4923-.49228-1.16-.76885-1.8562-.76885zm1.125 6.00005c0 1.7902-.7112 3.5071-1.977 4.7729-1.2659 1.2659-2.9828 1.9771-4.773 1.9771s-3.5071-.7112-4.77297-1.9771c-1.26587-1.2658-1.97703-2.9827-1.97703-4.7729v-7.12505c0-.29836.11853-.58451.3295-.79549.21098-.21098.49713-.32951.7955-.32951s.58452.11853.7955.32951c.21097.21098.3295.49713.3295.79549v4.12505c0 .1989.07902.3896.21967.5303.14065.1406.33142.2197.53033.2197s.38968-.0791.53033-.2197c.14065-.1407.21967-.3314.21967-.5303v-7.12505c0-.29837.11853-.58451.3295-.79549.21098-.21098.49713-.32951.7955-.32951.2984 0 .5845.11853.7955.32951s.3295.49712.3295.79549v6.37505c0 .1989.079.3896.2197.5303.1406.1406.3314.2197.5303.2197s.3897-.0791.5303-.2197c.1407-.1407.2197-.3314.2197-.5303v-4.87505c0-.29836.1185-.58451.3295-.79549s.4971-.32951.7955-.32951.5845.11853.7955.32951.3295.49713.3295.79549v6.43785c-1.0479.1786-1.999.7219-2.6852 1.5338-.6862.812-1.0633 1.8403-1.0648 2.9034 0 .1989.079.3896.2197.5303.1406.1406.3314.2197.5303.2197s.3897-.0791.5303-.2197c.1407-.1407.2197-.3314.2197-.5303 0-.7957.3161-1.5588.8787-2.1214s1.3257-.8786 2.1213-.8786c.1989 0 .3897-.0791.5303-.2197.1407-.1407.2197-.3314.2197-.5303v-1.875c0-.2984.1185-.5846.3295-.7955.211-.21102.4971-.32955.7955-.32955s.5845.11853.7955.32955c.211.2109.3295.4971.3295.7955z" fill="#000" fill-opacity=".8"/></svg>