<svg fill="none" height="24" viewBox="0 0 24 24" width="24" xmlns="http://www.w3.org/2000/svg"><path d="m20.5153 9.72855-7.5-7.07625c-.0037-.0032-.0071-.00664-.0103-.01031-.2761-.25113-.636-.39028-1.0092-.39028-.3733 0-.7331.13915-1.0092.39028l-.0103.01031-7.49161 7.07625c-.15282.14052-.2748.31125-.35823.50135s-.12649.3954-.12646.603v8.6672c0 .3978.15804.7794.43934 1.0607s.66284.4393 1.06066.4393h4.5c.39782 0 .77936-.158 1.0607-.4393.2813-.2813.4393-.6629.4393-1.0607v-4.5h3v4.5c0 .3978.158.7794.4393 1.0607s.6629.4393 1.0607.4393h4.5c.3978 0 .7794-.158 1.0607-.4393s.4393-.6629.4393-1.0607v-8.6672c0-.2076-.043-.4129-.1265-.603-.0834-.1901-.2054-.36083-.3582-.50135zm-1.0153 9.77155h-4.5v-4.5c0-.3978-.158-.7793-.4393-1.0606s-.6629-.4394-1.0607-.4394h-3c-.3978 0-.77936.1581-1.06066.4394s-.43934.6628-.43934 1.0606v4.5h-4.5v-8.6672l.01031-.0093 7.48969-7.07349 7.4906 7.07159.0103.0094z" fill="#000" fill-opacity=".8"/></svg>