<svg fill="none" height="24" viewBox="0 0 24 24" width="24" xmlns="http://www.w3.org/2000/svg"><path d="m20.3878 9.86624-7.5-7.07813-.0084-.0075c-.241-.2207-.5559-.34311-.8827-.34311-.3267 0-.6416.12241-.8826.34311l-.0085.0075-7.49996 7.07813c-.13266.1235-.2383.27316-.31026.43946-.07196.1664-.10869.3458-.10787.5271v8.6672c0 .3481.13828.6819.38443.9281.24614.2461.57998.3844.92807.3844h4.5c.3481 0 .68194-.1383.92808-.3844.24611-.2462.38441-.58.38441-.9281v-4.5c0-.0497.0198-.0974.0549-.1326.0352-.0352.0829-.0549.1326-.0549h3c.0497 0 .0974.0197.1326.0549s.0549.0829.0549.1326v4.5c0 .3481.1383.6819.3844.9281.2462.2461.58.3844.9281.3844h4.5c.3481 0 .6819-.1383.9281-.3844.2461-.2462.3844-.58.3844-.9281v-8.6672c0-.1817-.0378-.3615-.1109-.5279-.0731-.1663-.1799-.31573-.3138-.43866zm-.7003 9.63376c0 .0497-.0197.0974-.0549.1326-.0352.0351-.0829.0549-.1326.0549h-4.5c-.0497 0-.0974-.0198-.1326-.0549-.0351-.0352-.0549-.0829-.0549-.1326v-4.5c0-.3481-.1383-.682-.3844-.9281-.2462-.2461-.58-.3844-.9281-.3844h-3c-.3481 0-.68192.1383-.92806.3844-.24615.2461-.38443.58-.38443.9281v4.5c0 .0497-.01975.0974-.05491.1326-.03517.0351-.08286.0549-.13259.0549h-4.5c-.04972 0-.09742-.0198-.13258-.0549-.03516-.0352-.05492-.0829-.05492-.1326v-8.6672c-.00005-.0261.00534-.0519.01583-.0758s.02586-.0453.04511-.063l.00844-.0075 7.49441-7.0762c.0341-.02981.0779-.04623.1232-.04623.0454 0 .0892.01642.1233.04623l7.4953 7.0772.0075.0075c.0195.0175.035.0389.0457.0628.0106.0239.0162.0498.0162.0759z" fill="#000" fill-opacity=".8"/></svg>