<svg fill="none" height="24" viewBox="0 0 24 24" width="24" xmlns="http://www.w3.org/2000/svg"><path d="m21 10.8329v8.6672c0 .3978-.158.7794-.4393 1.0607s-.6629.4393-1.0607.4393h-3.75c-.3978 0-.7794-.158-1.0607-.4393s-.4393-.6629-.4393-1.0607v-3.75c0-.1989-.079-.3897-.2197-.5303-.1406-.1407-.3314-.2197-.5303-.2197h-3c-.1989 0-.3897.079-.53033.2197-.14065.1406-.21967.3314-.21967.5303v3.75c0 .3978-.15804.7794-.43934 1.0607s-.66284.4393-1.06066.4393h-3.75c-.39782 0-.77936-.158-1.06066-.4393s-.43934-.6629-.43934-1.0607v-8.6672c-.00003-.2076.04303-.4129.12646-.603s.20541-.36083.35823-.50135l7.50001-7.07625.0103-.01031c.2761-.25113.636-.39028 1.0092-.39028.3733 0 .7331.13915 1.0092.39028.0032.00367.0067.00711.0104.01031l7.5 7.07625c.1512.14126.2716.31235.3536.50235.082.1901.1237.395.1226.602z" fill="#000" fill-opacity=".8"/></svg>