<svg width="24" height="24" fill="none" xmlns="http://www.w3.org/2000/svg"><path d="M20.25 3.938H3.75A1.313 1.313 0 0 0 2.437 5.25v13.5a1.313 1.313 0 0 0 1.313 1.313h16.5a1.313 1.313 0 0 0 1.313-1.313V5.25a1.313 1.313 0 0 0-1.313-1.313zM3.75 5.062h16.5a.188.188 0 0 1 .188.188v10.085l-2.763-2.763a1.314 1.314 0 0 0-1.857 0L13.81 14.58l-4.257-4.258a1.313 1.313 0 0 0-1.856 0l-4.135 4.134V5.25a.187.187 0 0 1 .188-.188zM3.562 18.75v-2.703l4.93-4.93a.187.187 0 0 1 .266 0l7.82 7.82H3.75a.188.188 0 0 1-.188-.187zm16.688.188h-2.081l-3.563-3.563 2.007-2.008a.187.187 0 0 1 .266 0l3.562 3.562v1.821a.185.185 0 0 1-.056.134.187.187 0 0 1-.135.053zm-6.563-9.563a.938.938 0 1 1 1.876 0 .938.938 0 0 1-1.876 0z" fill="#000" fill-opacity=".8"/></svg>