<svg fill="none" height="24" width="24" xmlns="http://www.w3.org/2000/svg"><path d="M5.055 3.246a.75.75 0 1 0-1.11 1.008l3.68 4.048-3.673 3.938a.75.75 0 0 0 .281 1.219l5.403 2.026-1.37 6.868a.75.75 0 0 0 1.283.656l5.799-6.214 3.597 3.957a.752.752 0 0 0 1.066.057.75.75 0 0 0 .044-1.066l-15-16.497zm5.199 16.817l.981-4.911a.75.75 0 0 0-.469-.85l-4.953-1.86 2.823-3.026 5.699 6.268zm-.067-13.407a.749.749 0 0 1-.037-1.06L14.452.987a.75.75 0 0 1 1.283.656l-1.374 6.879 5.403 2.026a.75.75 0 0 1 .28 1.214l-2.09 2.24a.75.75 0 0 1-1.097-1.023l1.33-1.42-4.95-1.857a.75.75 0 0 1-.468-.85l.982-4.91-2.5 2.679a.75.75 0 0 1-1.064.035z" fill="#000"/></svg>