<svg fill="none" height="24" width="24" xmlns="http://www.w3.org/2000/svg"><path d="M4.916 3.375a.562.562 0 0 0-.832.75l3.796 4.18-3.791 4.062a.563.563 0 0 0 .213.91l5.553 2.082L8.45 22.39a.562.562 0 0 0 .963.493l5.938-6.362 3.734 4.104a.562.562 0 1 0 .832-.758l-15-16.492zm5.022 17.293l1.11-5.557a.562.562 0 0 0-.353-.638l-5.212-1.955 3.153-3.375 5.952 6.547zm.375-14.148a.563.563 0 0 1-.027-.795l4.3-4.608a.563.563 0 0 1 .964.494l-1.407 7.03 5.553 2.083a.562.562 0 0 1 .214.91l-2.09 2.241a.563.563 0 1 1-.822-.768l1.517-1.624-5.213-1.955a.563.563 0 0 1-.353-.638l1.114-5.558-2.953 3.16a.563.563 0 0 1-.797.028z" fill="#000"/></svg>