<svg fill="none" height="24" viewBox="0 0 24 24" width="24" xmlns="http://www.w3.org/2000/svg"><path d="m20.8125 12c0 .1492-.0593.2923-.1648.3977-.1054.1055-.2485.1648-.3977.1648h-16.5c-.14918 0-.29226-.0593-.39775-.1648-.10549-.1054-.16475-.2485-.16475-.3977s.05926-.2923.16475-.3977c.10549-.1055.24857-.1648.39775-.1648h16.5c.1492 0 .2923.0593.3977.1648.1055.1054.1648.2485.1648.3977zm-17.0625-5.4375h16.5c.1492 0 .2923-.05926.3977-.16475.1055-.10549.1648-.24857.1648-.39775s-.0593-.29226-.1648-.39775c-.1054-.10549-.2485-.16475-.3977-.16475h-16.5c-.14918 0-.29226.05926-.39775.16475s-.16475.24857-.16475.39775.05926.29226.16475.39775.24857.16475.39775.16475zm16.5 10.875h-16.5c-.14918 0-.29226.0593-.39775.1648-.10549.1054-.16475.2485-.16475.3977s.05926.2923.16475.3977c.10549.1055.24857.1648.39775.1648h16.5c.1492 0 .2923-.0593.3977-.1648.1055-.1054.1648-.2485.1648-.3977s-.0593-.2923-.1648-.3977c-.1054-.1055-.2485-.1648-.3977-.1648z" fill="#000" fill-opacity=".8"/></svg>