<svg fill="none" height="24" viewBox="0 0 24 24" width="24" xmlns="http://www.w3.org/2000/svg"><path d="m15.75 10.5001c0 1.0384-.3079 2.0534-.8848 2.9168-.5768.8633-1.3968 1.5362-2.3561 1.9336s-2.0149.5013-3.03329.2988c-1.0184-.2026-1.95387-.7026-2.68809-1.4369-.73423-.7342-1.23424-1.6696-1.43681-2.688-.20258-1.0184-.09861-2.07404.29875-3.03335s1.07027-1.77925 1.93363-2.35613c.86335-.57687 1.87839-.88478 2.91671-.88478 1.3924 0 2.7278.55312 3.7123 1.53769.9846.98456 1.5377 2.31992 1.5377 3.71227zm5.7807 11.0307c-.0697.0697-.1524.125-.2435.1628-.091.0377-.1886.0571-.2872.0571-.0985 0-.1961-.0194-.2872-.0571-.091-.0378-.1737-.0931-.2434-.1628l-4.6931-4.6941c-1.6321 1.3578-3.7248 2.0341-5.84284 1.8883-2.11803-.1458-4.09832-1.1025-5.52897-2.6711s-2.20152-3.6283-2.15227-5.7508c.04926-2.12247.91485-4.14425 2.41673-5.6448s3.52442-2.36436 5.64695-2.41174c2.1225-.04738 4.1816.72531 5.7489 2.15735 1.5674 1.43204 2.5223 3.41318 2.6662 5.53133.1439 2.11816-.5342 4.21026-1.8935 5.84116l4.6932 4.6931c.0697.0697.125.1524.1627.2434.0378.0911.0572.1887.0572.2872 0 .0986-.0194.1962-.0572.2872-.0377.0911-.093.1738-.1627.2435zm-11.0307-4.2807c1.3351 0 2.6401-.3958 3.7501-1.1375 1.1101-.7417 1.9752-1.7959 2.4861-3.0293s.6446-2.5906.3841-3.90002c-.2604-1.30937-.9033-2.51211-1.8473-3.45611-.944-.94401-2.1467-1.58688-3.4561-1.84733s-2.66658-.12678-3.89998.38411c-1.23341.51089-2.28761 1.37606-3.02931 2.48609s-1.13758 2.41507-1.13758 3.75006c.00198 1.7896.71378 3.5054 1.97922 4.7708 1.26544 1.2655 2.98118 1.9773 4.77075 1.9792z" fill="#000" fill-opacity=".8"/></svg>