<svg fill="none" height="24" viewBox="0 0 24 24" width="24" xmlns="http://www.w3.org/2000/svg"><path d="m21.5308 20.4692-4.694-4.6931c1.3605-1.6334 2.0389-3.7284 1.8941-5.84931-.1448-2.12087-1.1016-4.10426-2.6716-5.53759-1.5699-1.43333-3.6319-2.20624-5.7572-2.15794-2.12523.0483-4.15005.91409-5.65322 2.41726s-2.36895 3.52799-2.41725 5.65328c-.0483 2.1252.7246 4.1873 2.15793 5.7572s3.41673 2.5268 5.53759 2.6716c2.12085.1448 4.21595-.5337 5.84935-1.8942l4.6931 4.6941c.0697.0697.1524.1249.2434.1626.0911.0378.1887.0572.2872.0572.0986 0 .1961-.0194.2872-.0572.091-.0377.1738-.0929.2434-.1626.0697-.0697.125-.1524.1627-.2435.0377-.091.0571-.1886.0571-.2872 0-.0985-.0194-.1961-.0571-.2871-.0377-.0911-.093-.1738-.1627-.2435zm-17.78059-9.9694c0-1.33498.39588-2.64002 1.13758-3.75005s1.79591-1.9752 3.02931-2.48609 2.5906-.64456 3.9-.38411c1.3093.26045 2.5121.90332 3.4561 1.84733.944.944 1.5869 2.14674 1.8473 3.45611.2605 1.30941.1268 2.66661-.3841 3.90001s-1.3761 2.2876-2.4861 3.0293-2.4151 1.1375-3.7501 1.1375c-1.78959-.0019-3.50532-.7137-4.77076-1.9792-1.26544-1.2654-1.97724-2.9811-1.97923-4.7708z" fill="#000" fill-opacity=".8"/></svg>