<svg fill="none" height="24" viewBox="0 0 24 24" width="24" xmlns="http://www.w3.org/2000/svg"><path d="m21.3973 20.6024-4.8169-4.8169c1.3736-1.5796 2.0802-3.6309 1.9709-5.7214-.1093-2.09048-1.026-4.05686-2.5569-5.48463-1.5309-1.42778-3.5563-2.2054-5.6493-2.16894-2.09302.03645-4.09013.88413-5.57035 2.36434-1.48021 1.48022-2.32789 3.47733-2.36434 5.57033-.03646 2.093.74116 4.1185 2.16893 5.6493 1.42778 1.5309 3.39416 2.4476 5.48466 2.5569s4.1417-.5973 5.7214-1.9709l4.8169 4.8169c.1066.0993.2476.1534.3934.1509.1457-.0026.2847-.0616.3878-.1647.103-.1031.1621-.2421.1646-.3878.0026-.1458-.0515-.2868-.1508-.3934zm-17.83504-10.1025c0-1.37213.40688-2.71342 1.16918-3.85429.7623-1.14086 1.84579-2.03006 3.11345-2.55514 1.26767-.52508 2.66261-.66247 4.00831-.39479 1.3457.26769 2.5819.92842 3.5521 1.89865s1.631 2.20637 1.8987 3.55211c.2676 1.34576.1303 2.74066-.3948 4.00826-.5251 1.2677-1.4143 2.3512-2.5552 3.1135-1.1408.7623-2.4821 1.1692-3.8542 1.1692-1.83929-.0022-3.60258-.7339-4.90313-2.0344-1.30055-1.3006-2.03218-3.0639-2.03441-4.9031z" fill="#000" fill-opacity=".8"/></svg>