<svg fill="none" height="24" viewBox="0 0 24 24" width="24" xmlns="http://www.w3.org/2000/svg"><path d="m7.5 12v-6c0-1.19347.47411-2.33807 1.31802-3.18198s1.98848-1.31802 3.18198-1.31802 2.3381.47411 3.182 1.31802 1.318 1.98851 1.318 3.18198v6c0 1.1935-.4741 2.3381-1.318 3.182s-1.9885 1.318-3.182 1.318-2.33807-.4741-3.18198-1.318-1.31802-1.9885-1.31802-3.182zm12 0c0-.1989-.079-.3897-.2197-.5303-.1406-.1407-.3314-.2197-.5303-.2197s-.3897.079-.5303.2197c-.1407.1406-.2197.3314-.2197.5303 0 1.5913-.6321 3.1174-1.7574 4.2426-1.1252 1.1253-2.6513 1.7574-4.2426 1.7574s-3.11742-.6321-4.24264-1.7574c-1.12522-1.1252-1.75736-2.6513-1.75736-4.2426 0-.1989-.07902-.3897-.21967-.5303-.14065-.1407-.33142-.2197-.53033-.2197s-.38968.079-.53033.2197c-.14065.1406-.21967.3314-.21967.5303.00228 1.8586.69368 3.6504 1.94048 5.0288s2.96043 2.2455 4.80952 2.4337v2.2875c0 .1989.079.3897.2197.5303.1406.1407.3314.2197.5303.2197s.3897-.079.5303-.2197c.1407-.1406.2197-.3314.2197-.5303v-2.2875c1.8491-.1882 3.5627-1.0553 4.8095-2.4337s1.9382-3.1702 1.9405-5.0288z" fill="#000" fill-opacity=".8"/></svg>