<svg fill="none" height="24" viewBox="0 0 24 24" width="24" xmlns="http://www.w3.org/2000/svg"><path d="m10.787 4.34621c-.0388-.03878-.0856-.06858-.1371-.08732-.0515-.01873-.1065-.02594-.1612-.02111-.0546.00483-.1075.02157-.1549.04905s-.0883.06503-.1196.11c-.79112 1.12907-1.21505 2.4745-1.2141 3.85313.00068.29533.02041.59032.05906.88312l-6.51656 8.88752c-.2133.2885-.31562.6441-.28825 1.0018.02738.3577.18261.6936.43731.9463l1.33969 1.3397c.25267.2547.58858.4099.9463.4373s.71334-.0749 1.00182-.2882l8.88843-6.5185c.2925.0393.5871.0596.8822.061 1.3781.0013 2.7232-.422 3.8522-1.2122.045-.0314.0825-.0722.11-.1197.0275-.0474.0442-.1003.049-.1549.0049-.0546-.0023-.1096-.0211-.1612-.0187-.0515-.0485-.0983-.0873-.137zm.2447 9.68249-1.50004 1.5c-.06895.0726-.15173.1306-.24347.1707-.09173.0401-.19056.0614-.29066.0627-.1001.0012-.19944-.0175-.29217-.0552-.09274-.0378-.17698-.0937-.24776-.1644-.07079-.0708-.12669-.1551-.16441-.2478-.03771-.0927-.05648-.1921-.0552-.2922s.02259-.1989.06267-.2906c.04007-.0918.09811-.1746.17069-.2435l1.5-1.5c.14175-.1347.33065-.2087.52615-.2062.1956.0025.3825.0813.5208.2196s.2171.3252.2196.5207c.0025.1956-.0715.3844-.2062.5262zm10.2562-1.9275c-.0313.0451-.0722.0828-.1197.1104-.0476.0276-.1006.0444-.1553.0492-.0548.0048-.1099-.0024-.1615-.0212-.0516-.0189-.0985-.0488-.1372-.0878l-8.866-8.86591c-.0389-.03876-.0689-.08561-.0877-.13723-.0188-.05163-.0261-.10675-.0213-.16149.0049-.05474.0217-.10774.0492-.15527.0276-.04752.0653-.08841.1104-.11976 1.2987-.90614 2.8747-1.32638 4.4521-1.18709 1.5774.1393 3.0554.82926 4.1751 1.94897s1.8097 2.59775 1.949 4.17512-.2809 3.15346-1.1871 4.45206z" fill="#000" fill-opacity=".8"/></svg>