<svg fill="none" height="24" viewBox="0 0 24 24" width="24" xmlns="http://www.w3.org/2000/svg"><path d="m15.7501 1.5c-1.7897.00174-3.5056.71345-4.7711 1.97895-1.26545 1.26549-1.97716 2.98137-1.9789 4.77105.00068.29534.02041.59033.05906.88312l-6.51656 8.88748c-.2133.2885-.31562.6441-.28825 1.0018.02738.3578.18261.6937.43731.9464l1.33969 1.3396c.25267.2547.58858.41.9463.4373.35772.0274.71334-.0749 1.00182-.2882l8.88843-6.5184c.2925.0392.5871.0596.8822.0609 1.7902 0 3.5071-.7112 4.773-1.977 1.2658-1.2659 1.977-2.9828 1.977-4.773 0-1.79021-.7112-3.5071-1.977-4.77297-1.2659-1.26587-2.9828-1.97703-4.773-1.97703zm5.25 6.75c.0014 1.13326-.3659 2.2362-1.0463 3.1425l-7.3453-7.34625c.7803-.58276 1.7073-.937 2.6774-1.02312.97-.08612 1.9449.09928 2.8156.53548.8708.43619 1.603 1.10597 2.1149 1.93447s.7832 1.78305.7837 2.75692zm-15.9075 12-1.3425-1.3425 5.82562-7.9387c.68268 1.5411 1.91448 2.7729 3.45558 3.4556zm5.4075-12c-.0015-1.13299.3657-2.2357 1.0462-3.14156l7.3444 7.34436c-.7802.5825-1.707.9365-2.6768 1.0225-.9699.086-1.9445-.0994-2.815-.5354-.8706-.4361-1.6027-1.1056-2.1146-1.9338s-.7834-1.78246-.7842-2.7561zm-.2203 5.4694c.1405.1406.2195.3313.2195.5301 0 .1989-.079.3895-.2195.5302l-.75001.75c-.06896.0726-.15174.1306-.24347.1707-.09174.0401-.19057.0614-.29067.0626-.1001.0013-.19944-.0174-.29217-.0552-.09273-.0377-.17697-.0936-.24776-.1644-.07078-.0707-.12668-.155-.1644-.2477-.03772-.0928-.05649-.1921-.05521-.2922s.02259-.1989.06267-.2907c.04008-.0917.09812-.1745.17069-.2434l.75-.75c.06961-.07.15234-.1255.24344-.1634s.18879-.0574.28746-.0575c.09868-.0001.1964.0193.28753.057.0912.0378.174.0931.2438.1629z" fill="#000" fill-opacity=".8"/></svg>