<svg fill="none" height="24" viewBox="0 0 24 24" width="24" xmlns="http://www.w3.org/2000/svg"><path d="m12 16.3125c1.1433-.0015 2.2393-.4563 3.0478-1.2647.8084-.8085 1.2632-1.9045 1.2647-3.0478v-6c0-1.14375-.4544-2.24065-1.2631-3.0494-.8088-.80875-1.9057-1.2631-3.0494-1.2631s-2.24065.45435-3.0494 1.2631-1.2631 1.90565-1.2631 3.0494v6c.00149 1.1433.45632 2.2393 1.26475 3.0478.80842.8084 1.90445 1.2632 3.04775 1.2647zm-3.1875-10.3125c0-.84538.33582-1.65613.9336-2.2539.5978-.59778 1.4085-.9336 2.2539-.9336s1.6561.33582 2.2539.9336c.5978.59777.9336 1.40852.9336 2.2539v6c0 .8454-.3358 1.6561-.9336 2.2539s-1.4085.9336-2.2539.9336-1.6561-.3358-2.2539-.9336c-.59778-.5978-.9336-1.4085-.9336-2.2539zm3.75 13.2891v2.4609c0 .1492-.0593.2923-.1648.3977-.1054.1055-.2485.1648-.3977.1648s-.2923-.0593-.3977-.1648c-.1055-.1054-.1648-.2485-.1648-.3977v-2.4609c-1.83554-.1436-3.54959-.9736-4.80057-2.3244-1.25097-1.3509-1.94702-3.1236-1.94943-4.9647 0-.1492.05926-.2923.16475-.3977.10549-.1055.24857-.1648.39775-.1648s.29226.0593.39775.1648c.10549.1054.16475.2485.16475.3977 0 1.641.6519 3.2148 1.81228 4.3752s2.73422 1.8123 4.37522 1.8123 3.2148-.6519 4.3752-1.8123 1.8123-2.7342 1.8123-4.3752c0-.1492.0593-.2923.1648-.3977.1054-.1055.2485-.1648.3977-.1648s.2923.0593.3977.1648c.1055.1054.1648.2485.1648.3977-.0024 1.8411-.6985 3.6138-1.9494 4.9647-1.251 1.3508-2.9651 2.1808-4.8006 2.3244z" fill="#000" fill-opacity=".8"/></svg>