<svg fill="none" height="24" viewBox="0 0 24 24" width="24" xmlns="http://www.w3.org/2000/svg"><path d="m15.7502 1.6875c-.9411-.00063-1.8714.20134-2.7275.5922s-1.6181.96144-2.2341 1.67297-1.07163 1.54734-1.33589 2.45062-.33097 1.85286-.1956 2.78421l-6.5625 8.9494c-.18668.2522-.27626.5631-.25233.876.02393.3128.15977.6066.38264.8274l1.34063 1.3406c.22094.2227.51466.3585.82745.3824s.62374-.0656.87598-.252l8.94942-6.5625c.8907.125 1.7977.0656 2.6645-.1746.8669-.2402 1.6751-.656 2.3745-1.2216.6994-.5657 1.275-1.269 1.6912-2.0665.4161-.7974.6639-1.67189.7279-2.5691.064-.89722-.0571-1.79802-.3558-2.64646-.2987-.84845-.7687-1.62642-1.3807-2.28562s-1.353-1.18554-2.177-1.54635c-.8239-.36081-1.7133-.54838-2.6128-.55107zm5.4375 6.5625c.0012 1.24772-.4294 2.4574-1.2187 3.4238l-7.6416-7.64255c.7971-.64814 1.7616-1.05698 2.7817-1.17911 1.02-.12213 2.0538.04747 2.9814.48912.9275.44165 1.7109 1.13724 2.2591 2.00609.5482.86884.8388 1.87531.8381 2.90265zm-15.98434 12.1491c-.03616.0265-.08063.0392-.12535.0358-.04472-.0035-.08673-.0228-.1184-.0546l-1.33969-1.3397c-.03176-.0316-.05112-.0737-.05456-.1184s.00926-.0892.03581-.1253l6.02063-8.2088c.3312.8621.8398 1.645 1.4929 2.298.6532.6529 1.4362 1.1614 2.2983 1.4923zm5.10934-12.1491c-.0005-1.24761.4301-2.45708 1.2188-3.42375l7.6434 7.64255c-.7976.6467-1.7621 1.0544-2.7817 1.1758-1.0197.1214-2.0529-.0484-2.9801-.4898-.9272-.4413-1.7105-1.1362-2.2591-2.0043-.5487-.868-.8404-1.87361-.8413-2.9005zm-.164 5.6016c.0523.0522.0938.1142.1221.1825s.0428.1415.0428.2154c0 .074-.0145.1472-.0428.2154-.0283.0683-.0698.1304-.1221.1826l-.75003.75c-.05226.0523-.1143.0937-.18259.122-.06828.0283-.14147.0428-.21538.0428s-.14709-.0145-.21538-.0428c-.06828-.0283-.13032-.0697-.18259-.122-.05226-.0523-.09371-.1143-.122-.1826-.02828-.0683-.04284-.1415-.04284-.2154s.01456-.1471.04284-.2153c.02829-.0683.06974-.1304.122-.1826l.75-.75c.0522-.0525.11425-.0942.18259-.1227s.14162-.0432.21566-.0432c.07403-.0001.14735.0144.21576.0427.06836.0283.13056.0698.18286.1222z" fill="#000" fill-opacity=".8"/></svg>