<svg fill="none" height="24" viewBox="0 0 24 24" width="24" xmlns="http://www.w3.org/2000/svg"><path d="m15.75 12c0 .7417-.2199 1.4667-.632 2.0834-.412.6167-.9977 1.0973-1.6829 1.3811-.6853.2839-1.4393.3581-2.1667.2134-.7274-.1446-1.3956-.5018-1.92005-1.0262-.52445-.5245-.8816-1.1927-1.0263-1.9201-.14469-.7274-.07043-1.4814.2134-2.1667.28383-.68519.76448-1.27086 1.38116-1.68291.61669-.41206 1.34169-.63199 2.08339-.63199.9946 0 1.9484.39509 2.6517 1.09835.7032.70325 1.0983 1.65705 1.0983 2.65165zm7.5-6v12c0 .1989-.079.3897-.2197.5303-.1406.1407-.3314.2197-.5303.2197h-21c-.19891 0-.38968-.079-.53033-.2197-.140652-.1406-.21967-.3314-.21967-.5303v-12c0-.19891.079018-.38968.21967-.53033.14065-.14065.33142-.21967.53033-.21967h21c.1989 0 .3897.07902.5303.21967.1407.14065.2197.33142.2197.53033zm-1.5 4.3453c-.8516-.2518-1.6267-.71267-2.2547-1.34063-.6279-.62796-1.0888-1.40305-1.3406-2.25467h-12.30939c-.25181.85162-.71268 1.62671-1.34064 2.25467s-1.40305 1.08883-2.25467 1.34063v3.3094c.85162.2518 1.62671.7127 2.25467 1.3406.62796.628 1.08883 1.4031 1.34064 2.2547h12.30939c.2518-.8516.7127-1.6267 1.3406-2.2547.628-.6279 1.4031-1.0888 2.2547-1.3406z" fill="#000" fill-opacity=".8"/></svg>