<svg fill="none" height="24" viewBox="0 0 24 24" width="24" xmlns="http://www.w3.org/2000/svg"><path d="m12 15.5625c.7046 0 1.3934-.2089 1.9792-.6004.5859-.3914 1.0425-.9478 1.3121-1.5988.2697-.651.3402-1.3673.2027-2.0583-.1374-.6911-.4767-1.32584-.9749-1.82407-.4983-.49822-1.133-.83752-1.8241-.97498-.691-.13746-1.4073-.06691-2.0583.20273-.65097.26964-1.20736.72625-1.59881 1.31212-.39145.5858-.60039 1.2746-.60039 1.9792 0 .9448.37533 1.851 1.04343 2.5191.66807.6681 1.57427 1.0434 2.51907 1.0434zm0-6c.4821 0 .9534.14296 1.3542.41079.4008.26781.7133.64851.8978 1.09391.1844.4454.2327.9355.1387 1.4083-.0941.4729-.3262.9072-.6671 1.2481s-.7752.573-1.2481.6671c-.4728.094-.9629.0457-1.4083-.1387-.4454-.1845-.8261-.497-1.09391-.8978-.26783-.4008-.41079-.8721-.41079-1.3542 0-.6465.25681-1.2665.7139-1.7236.4571-.45709 1.0771-.7139 1.7236-.7139zm10.5-4.125h-21c-.14918 0-.29226.05926-.39775.16475-.105487.10549-.16475.24857-.16475.39775v12c0 .1492.059263.2923.16475.3977.10549.1055.24857.1648.39775.1648h21c.1492 0 .2923-.0593.3977-.1648.1055-.1054.1648-.2485.1648-.3977v-12c0-.14918-.0593-.29226-.1648-.39775-.1054-.10549-.2485-.16475-.3977-.16475zm-20.4375 4.7644c.87341-.23238 1.66995-.69131 2.30902-1.33038s1.098-1.43561 1.33035-2.30902h12.59623c.2324.87341.6913 1.66995 1.3304 2.30902s1.4356 1.098 2.309 1.33038v3.5962c-.8734.2324-1.6699.6913-2.309 1.3304s-1.098 1.4356-1.3304 2.309h-12.59623c-.23235-.8734-.69128-1.6699-1.33035-2.309s-1.43561-1.098-2.30902-1.3304zm19.875-1.17471c-.5697-.19903-1.0872-.52401-1.5139-.95074-.4268-.42673-.7518-.94423-.9508-1.51395h2.4647zm-17.41031-2.46469c-.19903.56972-.52401 1.08722-.95074 1.51395s-.94423.75171-1.51395.95074v-2.46469zm-2.46469 8.4103c.56972.199 1.08722.524 1.51395.9508.42673.4267.75171.9442.95074 1.5139h-2.46469zm17.4103 2.4647c.199-.5697.524-1.0872.9508-1.5139.4267-.4268.9442-.7518 1.5139-.9508v2.4647z" fill="#000" fill-opacity=".8"/></svg>