<svg fill="none" height="24" viewBox="0 0 24 24" width="24" xmlns="http://www.w3.org/2000/svg"><path d="m12 8.25c-.7417 0-1.4667.21993-2.08339.63199-.61668.41205-1.09733.99772-1.38116 1.68291-.28383.6853-.35809 1.4393-.2134 2.1667.1447.7274.50185 1.3956 1.0263 1.9201.52445.5244 1.19265.8816 1.92005 1.0262.7274.1447 1.4814.0705 2.1667-.2134.6852-.2838 1.2709-.7644 1.6829-1.3811.4121-.6167.632-1.3417.632-2.0834 0-.9946-.3951-1.9484-1.0983-2.65165-.7033-.70326-1.6571-1.09835-2.6517-1.09835zm0 6c-.445 0-.88-.132-1.25-.3792s-.6584-.5986-.82873-1.0098c-.1703-.4111-.21485-.8635-.12804-1.3.08682-.4364.30107-.8373.61577-1.152s.7156-.52895 1.152-.61577c.4365-.08681.8889-.04226 1.3.12804.4112.17033.7626.45873 1.0098.82873s.3792.805.3792 1.25c0 .5967-.2371 1.169-.659 1.591-.422.4219-.9943.659-1.591.659zm10.5-9h-21c-.19891 0-.38968.07902-.53033.21967-.140652.14065-.21967.33142-.21967.53033v12c0 .1989.079018.3897.21967.5303.14065.1407.33142.2197.53033.2197h21c.1989 0 .3897-.079.5303-.2197.1407-.1406.2197-.3314.2197-.5303v-12c0-.19891-.079-.38968-.2197-.53033-.1406-.14065-.3314-.21967-.5303-.21967zm-4.3453 12h-12.30939c-.25181-.8516-.71268-1.6267-1.34064-2.2547-.62796-.6279-1.40305-1.0888-2.25467-1.3406v-3.3094c.85162-.2518 1.62671-.71267 2.25467-1.34063s1.08883-1.40305 1.34064-2.25467h12.30939c.2518.85162.7127 1.62671 1.3406 2.25467.628.62796 1.4031 1.08883 2.2547 1.34063v3.3094c-.8516.2518-1.6267.7127-2.2547 1.3406-.6279.628-1.0888 1.4031-1.3406 2.2547zm3.5953-8.49656c-.8996-.38682-1.6166-1.10385-2.0034-2.00344h2.0034zm-17.49656-2.00344c-.38682.89959-1.10385 1.61662-2.00344 2.00344v-2.00344zm-2.00344 8.4966c.89959.3868 1.61662 1.1038 2.00344 2.0034h-2.00344zm17.4966 2.0034c.3868-.8996 1.1038-1.6166 2.0034-2.0034v2.0034z" fill="#000" fill-opacity=".8"/></svg>