<svg fill="none" height="24" viewBox="0 0 24 24" width="24" xmlns="http://www.w3.org/2000/svg"><path d="m19.5 3.9375h-15c-.54701 0-1.07161.2173-1.45841.60409-.38679.3868-.60409.9114-.60409 1.45841v10.5c0 .547.2173 1.0716.60409 1.4584.3868.3868.9114.6041 1.45841.6041h15c.547 0 1.0716-.2173 1.4584-.6041s.6041-.9114.6041-1.4584v-10.5c0-.54701-.2173-1.07161-.6041-1.45841-.3868-.38679-.9114-.60409-1.4584-.60409zm.9375 12.5625c0 .2486-.0988.4871-.2746.6629s-.4143.2746-.6629.2746h-15c-.24864 0-.4871-.0988-.66291-.2746-.17582-.1758-.27459-.4143-.27459-.6629v-10.5c0-.24864.09877-.4871.27459-.66291.17581-.17582.41427-.27459.66291-.27459h15c.2486 0 .4871.09877.6629.27459.1758.17581.2746.41427.2746.66291zm-4.875 4.5c0 .1492-.0593.2923-.1648.3977-.1054.1055-.2485.1648-.3977.1648h-6c-.14918 0-.29226-.0593-.39775-.1648-.10549-.1054-.16475-.2485-.16475-.3977s.05926-.2923.16475-.3977c.10549-.1055.24857-.1648.39775-.1648h6c.1492 0 .2923.0593.3977.1648.1055.1054.1648.2485.1648.3977z" fill="#000" fill-opacity=".8"/></svg>