<svg fill="none" height="24" viewBox="0 0 24 24" width="24" xmlns="http://www.w3.org/2000/svg"><g fill="#000" fill-opacity=".8"><path d="m19.5 3.75h-15c-1.24264 0-2.25 1.00736-2.25 2.25v10.5c0 1.2426 1.00736 2.25 2.25 2.25h15c1.2426 0 2.25-1.0074 2.25-2.25v-10.5c0-1.24264-1.0074-2.25-2.25-2.25z"/><path d="m15 20.25h-6c-.19891 0-.38968.079-.53033.2197-.14065.1406-.21967.3314-.21967.5303s.07902.3897.21967.5303c.14065.1407.33142.2197.53033.2197h6c.1989 0 .3897-.079.5303-.2197.1407-.1406.2197-.3314.2197-.5303s-.079-.3897-.2197-.5303c-.1406-.1407-.3314-.2197-.5303-.2197z"/></g></svg>