<svg fill="none" height="24" viewBox="0 0 24 24" width="24" xmlns="http://www.w3.org/2000/svg"><path d="m19.5 3.75h-15c-.59674 0-1.16903.23705-1.59099.65901s-.65901.99425-.65901 1.59099v10.5c0 .5967.23705 1.169.65901 1.591.42196.4219.99425.659 1.59099.659h15c.5967 0 1.169-.2371 1.591-.659.4219-.422.659-.9943.659-1.591v-10.5c0-.59674-.2371-1.16903-.659-1.59099-.422-.42196-.9943-.65901-1.591-.65901zm.75 12.75c0 .1989-.079.3897-.2197.5303-.1406.1407-.3314.2197-.5303.2197h-15c-.19891 0-.38968-.079-.53033-.2197-.14065-.1406-.21967-.3314-.21967-.5303v-10.5c0-.19891.07902-.38968.21967-.53033s.33142-.21967.53033-.21967h15c.1989 0 .3897.07902.5303.21967.1407.14065.2197.33142.2197.53033zm-4.5 4.5c0 .1989-.079.3897-.2197.5303-.1406.1407-.3314.2197-.5303.2197h-6c-.19891 0-.38968-.079-.53033-.2197-.14065-.1406-.21967-.3314-.21967-.5303s.07902-.3897.21967-.5303c.14065-.1407.33142-.2197.53033-.2197h6c.1989 0 .3897.079.5303.2197.1407.1406.2197.3314.2197.5303z" fill="#000" fill-opacity=".8"/></svg>