<svg fill="none" height="24" viewBox="0 0 24 24" width="24" xmlns="http://www.w3.org/2000/svg"><path d="m17.0625 10.5c0 .1492-.0593.2923-.1648.3977-.1054.1055-.2485.1648-.3977.1648h-7.5c-.14918 0-.29226-.0593-.39775-.1648-.10549-.1054-.16475-.2485-.16475-.3977s.05926-.2923.16475-.3977c.10549-.10554.24857-.1648.39775-.1648h7.5c.1492 0 .2923.05926.3977.1648.1055.1054.1648.2485.1648.3977zm-.5625 2.4375h-7.5c-.14918 0-.29226.0593-.39775.1648-.10549.1054-.16475.2485-.16475.3977s.05926.2923.16475.3977c.10549.1055.24857.1648.39775.1648h7.5c.1492 0 .2923-.0593.3977-.1648.1055-.1054.1648-.2485.1648-.3977s-.0593-.2923-.1648-.3977c-.1054-.1055-.2485-.1648-.3977-.1648zm5.0625-6.9375v11.25c0 .547-.2173 1.0716-.6041 1.4584s-.9114.6041-1.4584.6041h-16.5c-.54555 0-1.06888-.2161-1.45543-.6011s-.604838-.9074-.60707-1.453v-9.0084c0-.14918.059263-.29226.16475-.39775.10549-.10549.24857-.16475.39775-.16475s.29226.05926.39775.16475.16475.24857.16475.39775v9c0 .2486.09877.4871.27459.6629.17581.1758.41427.2746.66291.2746s.4871-.0988.66291-.2746c.17582-.1758.27459-.4143.27459-.6629v-11.25c0-.3481.13828-.68194.38442-.92808s.57998-.38442.92808-.38442h15c.3481 0 .6819.13828.9281.38442.2461.24614.3844.57998.3844.92808zm-1.125 0c0-.04973-.0198-.09742-.0549-.13258-.0352-.03517-.0829-.05492-.1326-.05492h-15c-.04973 0-.09742.01975-.13258.05492-.03517.03516-.05492.08285-.05492.13258v11.25c.0004.326-.07706.6474-.22594.9375h14.66344c.2486 0 .4871-.0988.6629-.2746s.2746-.4143.2746-.6629z" fill="#000" fill-opacity=".8"/></svg>