<svg fill="none" height="24" viewBox="0 0 24 24" width="24" xmlns="http://www.w3.org/2000/svg"><path d="m20.25 4.5h-15c-.39782 0-.77936.15804-1.06066.43934s-.43934.66284-.43934 1.06066v11.25c0 .1989-.07902.3897-.21967.5303-.14065.1407-.33142.2197-.53033.2197s-.38968-.079-.53033-.2197c-.14065-.1406-.21967-.3314-.21967-.5303v-9c0-.19891-.07902-.38968-.21967-.53033s-.33142-.21967-.53033-.21967-.38968.07902-.53033.21967c-.140652.14065-.21967.33142-.21967.53033v9.0103c.002727.595.240983 1.1646.66264 1.5843.42167.4198.99241.6554 1.58736.6554h16.5c.5967 0 1.169-.2371 1.591-.659.4219-.422.659-.9943.659-1.591v-11.25c0-.39782-.158-.77936-.4393-1.06066s-.6629-.43934-1.0607-.43934zm-3.75 9.75h-7.5c-.19891 0-.38968-.079-.53033-.2197-.14065-.1406-.21967-.3314-.21967-.5303s.07902-.3897.21967-.5303c.14065-.1407.33142-.2197.53033-.2197h7.5c.1989 0 .3897.079.5303.2197.1407.1406.2197.3314.2197.5303s-.079.3897-.2197.5303c-.1406.1407-.3314.2197-.5303.2197zm0-3h-7.5c-.19891 0-.38968-.079-.53033-.2197-.14065-.1406-.21967-.3314-.21967-.5303s.07902-.3897.21967-.53033c.14065-.14065.33142-.21967.53033-.21967h7.5c.1989 0 .3897.07902.5303.21967.1407.14063.2197.33143.2197.53033s-.079.3897-.2197.5303c-.1406.1407-.3314.2197-.5303.2197z" fill="#000" fill-opacity=".8"/></svg>