<svg fill="none" height="24" viewBox="0 0 24 24" width="24" xmlns="http://www.w3.org/2000/svg"><path d="m8.25 10.5c0-.1989.07902-.3897.21967-.53033.14065-.14065.33142-.21967.53033-.21967h7.5c.1989 0 .3897.07902.5303.21967.1407.14063.2197.33143.2197.53033s-.079.3897-.2197.5303c-.1406.1407-.3314.2197-.5303.2197h-7.5c-.19891 0-.38968-.079-.53033-.2197-.14065-.1406-.21967-.3314-.21967-.5303zm.75 3.75h7.5c.1989 0 .3897-.079.5303-.2197.1407-.1406.2197-.3314.2197-.5303s-.079-.3897-.2197-.5303c-.1406-.1407-.3314-.2197-.5303-.2197h-7.5c-.19891 0-.38968.079-.53033.2197-.14065.1406-.21967.3314-.21967.5303s.07902.3897.21967.5303c.14065.1407.33142.2197.53033.2197zm12.75-8.25v11.25c0 .5967-.2371 1.169-.659 1.591-.422.4219-.9943.659-1.591.659h-16.5c-.59495 0-1.16569-.2356-1.58736-.6554-.421657-.4197-.659913-.9893-.66264-1.5843v-9.0103c0-.19891.079018-.38968.21967-.53033.14065-.14065.33142-.21967.53033-.21967s.38968.07902.53033.21967.21967.33142.21967.53033v9c0 .1989.07902.3897.21967.5303.14065.1407.33142.2197.53033.2197s.38968-.079.53033-.2197c.14065-.1406.21967-.3314.21967-.5303v-11.25c0-.39782.15804-.77936.43934-1.06066s.66284-.43934 1.06066-.43934h15c.3978 0 .7794.15804 1.0607.43934s.4393.66284.4393 1.06066zm-1.5 0h-15v11.25c.00037.2555-.04307.5092-.12844.75h14.37844c.1989 0 .3897-.079.5303-.2197.1407-.1406.2197-.3314.2197-.5303z" fill="#000" fill-opacity=".8"/></svg>