<svg fill="none" height="24" viewBox="0 0 24 24" width="24" xmlns="http://www.w3.org/2000/svg"><path d="m21.3113 6.87858-4.1897-4.18875c-.1393-.13933-.3047-.24985-.4867-.32525s-.3771-.11421-.5741-.11421-.3921.03881-.5741.11421-.3474.18592-.4867.32525l-11.56031 11.56027c-.13989.1388-.2508.304-.32628.4861-.07549.182-.11403.3772-.1134.5743v4.1896c0 .3979.15803.7794.43934 1.0607.2813.2813.66283.4393 1.06066.4393h15.74999c.1989 0 .3897-.079.5303-.2196.1407-.1407.2197-.3314.2197-.5304 0-.1989-.079-.3896-.2197-.5303-.1406-.1406-.3314-.2197-.5303-.2197h-9.4387l10.5-10.49996c.1393-.13929.2498-.30467.3252-.48668s.1142-.37709.1142-.5741-.0388-.3921-.1142-.57411-.1859-.34738-.3252-.48667zm-13.87504 10.74652 8.46934-8.46933 1.5647 1.56373-8.47029 8.4703zm7.40624-9.53059-8.46749 8.47029-1.56469-1.5647 8.47028-8.46933zm-10.34249 8.71599 2.68968 2.6896h-2.68968z" fill="#000" fill-opacity=".8"/></svg>