<svg fill="none" height="24" viewBox="0 0 24 24" width="24" xmlns="http://www.w3.org/2000/svg"><path d="m21.1791 7.01166-4.1897-4.18969c-.1219-.12189-.2666-.21858-.4258-.28455-.1593-.06597-.33-.09992-.5023-.09992-.1724 0-.3431.03395-.5024.09992-.1592.06597-.3039.16266-.4258.28455l-11.56122 11.56033c-.12213.1217-.21896.2663-.28493.4256s-.09977.3301-.09945.5025v4.1897c0 .3481.13828.6819.38442.9281.24615.2461.57999.3844.92808.3844h15.75c.1492 0 .2923-.0593.3978-.1648.1054-.1054.1647-.2485.1647-.3977s-.0593-.2923-.1647-.3978c-.1055-.1054-.2486-.1647-.3978-.1647h-9.8916l10.8207-10.81969c.1219-.12188.2185-.26658.2845-.42582.066-.15925.0999-.32994.0999-.50231s-.0339-.34305-.0999-.5023-.1626-.30394-.2845-.42582zm-14.00816 10.61344 8.20406-8.205 1.83 1.83-8.205 8.2041zm-.79594-.795-1.82906-1.83 8.20406-8.20407 1.83 1.82906zm-2.0625 2.67v-3.1425l3.33 3.33h-3.1425c-.04973 0-.09742-.0198-.13258-.0549-.03516-.0352-.05492-.0829-.05492-.1326zm16.0706-11.42813-2.3831 2.38313-4.4541-4.455 2.3822-2.38219c.0174-.01744.0381-.03127.0609-.0407.0227-.00944.0471-.01429.0718-.01429.0246 0 .049.00485.0718.01429.0227.00943.0434.02326.0608.0407l4.1897 4.18875c.0175.01741.0313.03809.0407.06085.0095.02277.0143.04716.0143.0718s-.0048.04904-.0143.07181c-.0094.02276-.0232.04344-.0407.06085z" fill="#000" fill-opacity=".8"/></svg>