<svg fill="none" height="24" viewBox="0 0 24 24" width="24" xmlns="http://www.w3.org/2000/svg"><path d="m22.1515 15.1723c-.1983.2535-.4729.4365-.7832.5219s-.6398.0688-.9399-.0475l-4.5938-1.6303-.0272-.0103c-.2297-.0919-.4331-.2392-.5921-.4288s-.2686-.4156-.3191-.6578l-.5822-2.789c-1.5104-.51469-3.1493-.51106-4.65749.0103l-.55312 2.7675c-.04879.2449-.15794.4737-.31756.6658-.15962.192-.36465.3411-.59651.4339l-.02718.0103-4.59375 1.6284c-.17052.0672-.35204.1022-.53532.1031-.22814.0005-.45337-.0512-.65856-.1509-.20518-.0998-.38491-.245-.5255-.4247-1.615311-2.0831-1.434374-4.8478.43969-6.72279 5.26406-5.26594 14.1562-5.26594 19.4231 0 1.8741 1.87309 2.055 4.63779.4397 6.72089zm-1.9012 2.8275h-16.50004c-.19891 0-.38968.0791-.53033.2197-.14065.1407-.21967.3314-.21967.5303 0 .199.07902.3897.21967.5304.14065.1406.33142.2196.53033.2196h16.50004c.1989 0 .3896-.079.5303-.2196.1406-.1407.2197-.3314.2197-.5304 0-.1989-.0791-.3896-.2197-.5303-.1407-.1406-.3314-.2197-.5303-.2197z" fill="#000" fill-opacity=".8"/></svg>