<svg fill="none" height="24" viewBox="0 0 24 24" width="24" xmlns="http://www.w3.org/2000/svg"><path d="m21.7112 8.44957c-5.2641-5.26219-14.1591-5.26219-19.42316 0-1.875 1.87503-2.055 4.63973-.43969 6.72283.14041.18.32005.3256.52524.4257.2052.1001.43053.152.65883.1518.18442.0001.36724-.0343.53906-.1013l4.59375-1.6284.02719-.0103c.23185-.0927.43688-.2419.5965-.4339.15962-.1921.26877-.4209.31756-.6658l.55312-2.7675c1.5081-.52135 3.1471-.52498 4.6575-.0103l.5822 2.789c.0505.2423.1601.4682.3191.6578s.3624.3369.5921.4288l.0272.0103 4.5938 1.6303c.3001.1163.6296.1329.9399.0475s.5849-.2684.7832-.5218c1.6116-2.085 1.4306-4.8497-.4434-6.72473zm-.7425 5.80033-.0282-.0113-4.5768-1.6247-.5822-2.78808c-.0529-.25229-.1698-.4867-.3396-.68064-.1698-.19393-.3867-.34084-.6298-.42655-1.834-.62793-3.8255-.62363-5.65687.01219-.24498.08753-.46298.23726-.6326.43449-.16962.19724-.28503.43519-.3349.69051l-.55313 2.76658-4.57593 1.6144c-.00938 0-.01594.0121-.02532.0159-1.15593-1.4916-1.03125-3.3966.315-4.74188 2.34375-2.34375 5.49844-3.51844 8.65125-3.51844 3.1528 0 6.3066 1.17282 8.6513 3.51844 1.3434 1.34528 1.4737 3.25028.3178 4.73908zm.03 4.5c0 .1989-.0791.3897-.2197.5303-.1407.1407-.3314.2197-.5303.2197h-16.4991c-.19891 0-.38967-.079-.53033-.2197-.14065-.1406-.21967-.3314-.21967-.5303s.07902-.3897.21967-.5303c.14066-.1407.33142-.2197.53033-.2197h16.5c.1989 0 .3897.079.5303.2197.1407.1406.2197.3314.2197.5303z" fill="#000" fill-opacity=".8"/></svg>