<svg fill="none" height="24" viewBox="0 0 24 24" width="24" xmlns="http://www.w3.org/2000/svg"><path d="m21.58 8.58281c-5.1928-5.19375-13.96878-5.19375-19.16065 0-1.804689 1.80659-1.979064 4.46909-.42375 6.47439.17409.2215.41485.3811.68666.4552.27182.0742.56027.0588.82271-.0436l4.59375-1.6294.02063-.0085c.20302-.0805.38259-.2106.5223-.3785.1397-.1679.23508-.3681.27739-.5824l.55312-2.7675c.00538-.0308.01866-.0597.03854-.0839.01989-.02412.04569-.04271.0749-.05391 1.5533-.53914 3.2425-.54277 4.7981-.01031.0292.0109.055.02915.075.05292.0201.0239.0336.0524.0394.083l.5822 2.7891c.0441.2118.14.4095.279.5754.1391.1658.317.2947.5179.3752l.0215.0075 4.5938 1.6313c.2627.1021.5513.117.8232.0424.2718-.0747.5124-.2348.6862-.4568 1.5571-2.0025 1.3828-4.665-.4219-6.47159zm-.4688 5.78529c-.0254.0307-.0598.0525-.0984.0623s-.0793.007-.1163-.0079l-.0206-.0084-4.5937-1.6294c-.0255-.0124-.0479-.0304-.0654-.0526-.0175-.0223-.0298-.0482-.0359-.0759l-.5831-2.78808c-.0461-.22115-.1485-.42667-.2973-.59666-.1488-.16998-.339-.29869-.5521-.37365-1.7934-.61371-3.7406-.60942-5.53124.01219-.21324.07658-.40302.20706-.55088.37874-.14785.17168-.24875.37871-.29287.60095l-.55781 2.76651c-.00583.0295-.01867.0572-.03743.0807-.01877.0235-.0429.0421-.07038.0544l-4.58813 1.6228-.02062.0084c-.03693.0149-.07764.0177-.11623.0079-.0386-.0098-.07309-.0316-.09846-.0623-1.21875-1.5694-1.08375-3.5737.33094-4.98935 2.38031-2.38125 5.58281-3.57188 8.78441-3.57188 3.2015 0 6.404 1.19063 8.7843 3.57188 1.4147 1.41565 1.5479 3.41995.331 4.98935zm-.299 4.3819c0 .1492-.0593.2923-.1648.3977-.1055.1055-.2486.1648-.3977.1648h-16.50004c-.14918 0-.29226-.0593-.39775-.1648-.10549-.1054-.16475-.2485-.16475-.3977s.05926-.2923.16475-.3977c.10549-.1055.24857-.1648.39775-.1648h16.50004c.1491 0 .2922.0593.3977.1648.1055.1054.1648.2485.1648.3977z" fill="#000" fill-opacity=".8"/></svg>