<svg fill="none" height="24" viewBox="0 0 24 24" width="24" xmlns="http://www.w3.org/2000/svg"><path d="m20.8125 12c0 .1492-.0593.2923-.1648.3977-.1054.1055-.2485.1648-.3977.1648h-7.6875v7.6875c0 .1492-.0593.2923-.1648.3977-.1054.1055-.2485.1648-.3977.1648s-.2923-.0593-.3977-.1648c-.1055-.1054-.1648-.2485-.1648-.3977v-7.6875h-7.6875c-.14918 0-.29226-.0593-.39775-.1648-.10549-.1054-.16475-.2485-.16475-.3977s.05926-.2923.16475-.3977c.10549-.1055.24857-.1648.39775-.1648h7.6875v-7.6875c0-.14918.0593-.29226.1648-.39775.1054-.10549.2485-.16475.3977-.16475s.2923.05926.3977.16475c.1055.10549.1648.24857.1648.39775v7.6875h7.6875c.1492 0 .2923.0593.3977.1648.1055.1054.1648.2485.1648.3977z" fill="#000" fill-opacity=".8"/></svg>