<svg fill="none" height="24" viewBox="0 0 24 24" width="24" xmlns="http://www.w3.org/2000/svg"><path d="m21 12c0 .1989-.079.3897-.2197.5303-.1406.1407-.3314.2197-.5303.2197h-7.5v7.5c0 .1989-.079.3897-.2197.5303-.1406.1407-.3314.2197-.5303.2197s-.3897-.079-.5303-.2197c-.1407-.1406-.2197-.3314-.2197-.5303v-7.5h-7.5c-.19891 0-.38968-.079-.53033-.2197-.14065-.1406-.21967-.3314-.21967-.5303s.07902-.3897.21967-.5303c.14065-.1407.33142-.2197.53033-.2197h7.5v-7.5c0-.19891.079-.38968.2197-.53033.1406-.14065.3314-.21967.5303-.21967s.3897.07902.5303.21967c.1407.14065.2197.33142.2197.53033v7.5h7.5c.1989 0 .3897.079.5303.2197.1407.1406.2197.3314.2197.5303z" fill="#000" fill-opacity=".8"/></svg>