<svg fill="none" height="24" viewBox="0 0 24 24" width="24" xmlns="http://www.w3.org/2000/svg"><path d="m20.6507 14.863c-.1069-.0674-.2292-.1068-.3554-.1143s-.2523.017-.3665.0712c-.2857.1352-.6011.1959-.9166.1765s-.621-.1183-.8881-.2874-.4871-.4031-.6395-.68c-.1525-.277-.2324-.588-.2324-.9041s.0799-.6271.2324-.9041c.1524-.2769.3724-.5109.6395-.68s.5726-.268.8881-.2874.6309.0413.9166.1765c.1144.0543.2406.0787.3669.0711.1263-.0077.2487-.0472.3556-.1148.107-.0677.1951-.1613.2561-.2722.0611-.1108.093-.2354.093-.3619v-4.0022c0-.39783-.158-.77936-.4393-1.06067-.2813-.2813-.6629-.43934-1.0607-.43934h-3.3956c.0139-.1245.0208-.24971.0206-.375-.0007-.46094-.0955-.91689-.2786-1.3399-.1832-.42301-.4508-.80416-.7864-1.12009-.4648-.43649-1.0436-.73241-1.6696-.85349-.626-.12107-1.2735-.06236-1.8675.16935s-1.1102.62694-1.4888 1.13991c-.37865.51297-.60425 1.12271-.65067 1.7586-.0144.20685-.01001.41457.01313.62062h-3.39656c-.39783 0-.77936.15804-1.06066.43934-.28131.28131-.43934.66284-.43934 1.06067v3.02062c-.12451-.01396-.24971-.02084-.375-.02062-.46094.00074-.91688.09558-1.33988.2787-.42299.1831-.80415.4507-1.12012.7863-.31824.3362-.56328.7347-.719648 1.1704-.156364.4357-.22065.899-.188793 1.3608.053745.8132.399261 1.5796.973001 2.1584.57375.5787 1.33715.9309 2.14981.9916.20684.0149.41461.0105.62063-.0131v3.0169c0 .3978.15803.7794.43934 1.0607.2813.2813.66283.4393 1.06066.4393h13.5c.3978 0 .7794-.158 1.0607-.4393s.4393-.6629.4393-1.0607v-4.0022c.0001-.1267-.032-.2514-.0931-.3624-.0612-.111-.1494-.2046-.2566-.2723zm-1.1503 4.6369h-13.5v-4.0022c.00004-.1266-.03195-.2511-.09298-.3619-.06104-.1109-.14913-.2045-.25609-.2722-.10696-.0676-.2293-.1071-.35562-.1148-.12633-.0076-.25254.0168-.36688.0711-.28578.1352-.6011.1959-.91663.1765-.31554-.0194-.62105-.1183-.88813-.2874s-.48707-.4031-.6395-.68c-.15243-.277-.23236-.588-.23236-.9041s.07993-.6271.23236-.9041c.15243-.2769.37242-.5109.6395-.68s.57259-.268.88813-.2874c.31553-.0194.63085.0413.91663.1765.11434.0543.24055.0787.36688.0711.12632-.0077.24866-.0472.35562-.1148.10696-.0677.19505-.1613.25609-.2722.06103-.1108.09302-.2354.09298-.3619v-4.0022h4.3772c.1265.00004.2511-.03195.3619-.09298.1109-.06104.2045-.14913.2722-.25609.0676-.10696.1071-.2293.1148-.35563.0076-.12632-.0168-.25253-.0711-.36687-.1352-.28578-.1959-.6011-.1765-.91663.0194-.31554.1183-.62105.2874-.88813s.4031-.48707.68-.6395c.277-.15243.588-.23236.9041-.23236s.6271.07993.9041.23236c.2769.15243.5109.37242.68.6395s.268.57259.2874.88813c.0194.31553-.0413.63085-.1765.91663-.0543.11434-.0787.24055-.0711.36687.0077.12633.0472.24867.1148.35563.0677.10696.1613.19505.2722.25609.1108.06103.2354.09302.3619.09298h4.3772v3.02156c-.206-.0236-.4138-.028-.6206-.01313-.8729.06181-1.6877.46027-2.2725 1.11127-.5847.651-.8938 1.5037-.8619 2.3782s.4021 1.7024 1.0327 2.3092c.6306.6067 1.4722.9448 2.3473.9429.1253.0002.2505-.0067.375-.0206z" fill="#000" fill-opacity=".8"/></svg>