<svg fill="none" height="24" viewBox="0 0 24 24" width="24" xmlns="http://www.w3.org/2000/svg"><path d="m15.5419 21h3.9581c.3978 0 .7794-.158 1.0607-.4393s.4393-.6629.4393-1.0607v-3.5297c-.0006-.123-.0315-.2439-.0899-.3522-.0584-.1082-.1425-.2005-.245-.2685-.1024-.0681-.22-.1099-.3424-.1219-.1225-.0119-.2459.0065-.3596.0535-.2658.1098-.5505.1662-.8381.166-1.2403 0-2.25-1.0406-2.25-2.3185 0-1.2778 1.0097-2.3184 2.25-2.3184.2876-.0002.5723.0562.8381.1659.1143.0473.2384.0657.3614.0534s.2411-.0548.3437-.1238c.1027-.0689.1867-.1621.2445-.2714.0579-.1092.0879-.2311.0873-.3547v-3.5297c0-.39782-.158-.77936-.4393-1.06066s-.6629-.43934-1.0607-.43934h-3.3956c.0139-.12451.0208-.24971.0206-.375 0-.89511-.3556-1.75355-.9885-2.38649-.633-.63293-1.4914-.98851-2.3865-.98851s-1.7536.35558-2.3865.98851c-.63292.63294-.9885 1.49138-.9885 2.38649-.00022.12529.00667.25049.02062.375h-3.39562c-.39783 0-.77936.15804-1.06066.43934-.28131.2813-.43934.66284-.43934 1.06066v3.02063c-.12451-.01396-.24971-.02085-.375-.02063-.89511 0-1.75355.3556-2.38649.9885-.63293.633-.98851 1.4914-.98851 2.3865s.35558 1.7535.98851 2.3865c.63294.6329 1.49138.9885 2.38649.9885.12529.0002.25049-.0067.375-.0206v3.0206c0 .3978.15803.7794.43934 1.0607.2813.2813.66283.4393 1.06066.4393h3.95812" fill="#000" fill-opacity=".8"/></svg>