<svg fill="none" height="24" viewBox="0 0 24 24" width="24" xmlns="http://www.w3.org/2000/svg"><path d="m20.5511 15.0224c-.0803-.0508-.172-.0804-.2668-.0861-.0947-.0058-.1894.0126-.2751.0533-.2737.1292-.5724.1967-.8751.1976-.3026.0008-.6018-.0649-.8762-.1927-.2744-.1277-.5173-.3142-.7115-.5463s-.335-.5042-.4123-.7968-.0892-.5986-.035-.8964c.0543-.2977.1734-.5799.3489-.8265.1755-.2465.4032-.4514.6667-.6002.2636-.1487.5567-.2376.8585-.2603.3562-.0258.713.0407 1.036.1931.0857.0407.1803.0589.275.0532.0947-.0058.1864-.0354.2666-.0861s.1462-.1208.192-.2039.0698-.1764.0698-.2713v-4.00313c0-.3481-.1383-.68194-.3844-.92808-.2462-.24614-.58-.38442-.9281-.38442h-3.6112c.0323-.18576.0487-.37395.0487-.5625-.0007-.43532-.0902-.86591-.2632-1.26538-.173-.39948-.4257-.75941-.7427-1.05775-.3167-.30029-.6923-.53158-1.103-.67924-.4107-.14765-.8476-.20846-1.283-.17857-.448.02887-.8848.15204-1.2819.36146-.3971.20943-.7455.50037-1.0223.85377-.27689.35341-.47596.76131-.58422 1.19699-.10826.43569-.12327.88933-.04404 1.33122h-3.61313c-.34809 0-.68193.13828-.92807.38442-.24615.24614-.38443.57998-.38443.92808v3.23718c-.52271-.09368-1.06055-.05527-1.56466.11175-.5041.167-.9585.4573-1.3219.8445-.41207.439-.6914.9857-.805641 1.5768-.114242.5911-.058728 1.2025.160111 1.7634.21885.5609.59207 1.0483 1.07647 1.4059.48439.3576 1.06015.5706 1.66062.6145.26569.0192.53273.0054.795-.0412v3.2372c0 .3481.13828.6819.38443.928.24614.2462.57998.3845.92807.3845h13.49999c.3481 0 .6819-.1383.9281-.3845.2461-.2461.3844-.5799.3844-.928v-4.0022c0-.0949-.0239-.1882-.0697-.2713-.0457-.0831-.1117-.1533-.1918-.204zm-.8635 4.4775c0 .0497-.0197.0974-.0549.1325-.0352.0352-.0829.055-.1326.055h-13.49999c-.04972 0-.09742-.0198-.13258-.055-.03516-.0351-.05492-.0828-.05492-.1325v-4.0022c0-.1492-.05926-.2923-.16475-.3978s-.24856-.1647-.39775-.1647c-.08337-.0002-.16573.0184-.24093.0544-.3042.1442-.63908.2118-.9754.1968-.33633-.015-.66388-.112-.95405-.2827s-.53415-.4099-.71063-.6966-.28009-.6122-.3018-.9482c-.02339-.3585.0473-.717.20506-1.0398s.39711-.5988.69436-.8007c.29725-.2018.64207-.3225 1.00032-.3501.35824-.0276.71748.0389 1.04214.1928.08572.0407.18033.0589.27502.0532.0947-.0058.1864-.0354.26658-.0861s.14623-.1208.19201-.2039.0698-.1764.06982-.2713v-4.00313c0-.04973.01976-.09742.05492-.13259.03516-.03516.08286-.05491.13258-.05491h4.37719c.0949-.00003.1882-.02405.2713-.06983s.1532-.11183.2039-.19201.0804-.17188.0861-.26658c.0058-.09469-.0125-.1893-.0532-.27502-.1492-.32219-.2138-.67715-.1875-1.03125.022-.30214.1102-.59573.2585-.85991.1482-.26418.3528-.49245.5993-.66861.2464-.17615.5286-.29585.8266-.3506.2979-.05474.6043-.04318.8972.03386.293.07704.5654.21768.7979.4119.2325.19423.4193.43728.5472.71188s.1938.574.1929.87693-.0685.60195-.198.8758c-.0404.08529-.0588.17939-.0533.27363s.0346.18558.0847.26561c.05.08003.1194.14618.2017.19235.0824.04617.175.07088.2694.07185h4.3781c.0497 0 .0974.01975.1326.05491.0352.03517.0549.08286.0549.13259v3.23812c-.4419-.07923-.8955-.06422-1.3312.04401-.4357.1083-.8436.3074-1.197.5842-.3534.2769-.6443.6252-.8538 1.0223-.2094.3971-.3326.834-.3614 1.282-.0296.4353.0312.872.1787 1.2826.1475.4107.3784.7863.6782 1.1033.364.3864.8184.6761 1.3223.8432s1.0414.2063 1.5642.114z" fill="#000" fill-opacity=".8"/></svg>