<svg fill="none" height="24" viewBox="0 0 24 24" width="24" xmlns="http://www.w3.org/2000/svg"><path d="m12 2.25c-1.9284 0-3.81343.57183-5.41681 1.64317-1.60337 1.07134-2.85306 2.59409-3.59101 4.37567-.73796 1.78156-.93104 3.74196-.55483 5.63326.3762 1.8913 1.3048 3.6286 2.66836 4.9922 1.36357 1.3636 3.10085 2.2922 4.99219 2.6684 1.8913.3762 3.8517.1831 5.6333-.5549 1.7815-.7379 3.3043-1.9876 4.3756-3.591 1.0714-1.6034 1.6432-3.4884 1.6432-5.4168-.0027-2.58502-1.0308-5.06339-2.8587-6.89128-1.8279-1.82788-4.3063-2.85599-6.8913-2.85872zm0 15.75c-.2225 0-.44-.066-.625-.1896s-.3292-.2993-.4144-.5049c-.0851-.2055-.1074-.4317-.064-.65.0434-.2182.1506-.4187.3079-.576s.3578-.2645.576-.3079c.2183-.0434.4445-.0211.65.064.2056.0852.3813.2294.5049.4144s.1896.4025.1896.625c0 .2984-.1185.5845-.3295.7955s-.4971.3295-.7955.3295zm.75-4.5675v.0675c0 .1989-.079.3897-.2197.5303-.1406.1407-.3314.2197-.5303.2197s-.3897-.079-.5303-.2197c-.1407-.1406-.2197-.3314-.2197-.5303v-.75c0-.1989.079-.3897.2197-.5303.1406-.1407.3314-.2197.5303-.2197 1.2403 0 2.25-.8438 2.25-1.875 0-1.03125-1.0097-1.875-2.25-1.875s-2.25.84375-2.25 1.875v.375c0 .1989-.07901.3897-.21967.5303-.14065.1407-.33141.2197-.53033.2197-.19891 0-.38967-.079-.53033-.2197-.14065-.1406-.21967-.3314-.21967-.5303v-.375c0-1.86094 1.68188-3.375 3.75-3.375 2.0681 0 3.75 1.51406 3.75 3.375 0 1.6294-1.29 2.9934-3 3.3075z" fill="#000" fill-opacity=".8"/></svg>