<svg fill="none" height="24" viewBox="0 0 24 24" width="24" xmlns="http://www.w3.org/2000/svg"><path d="m13.125 16.875c0 .2225-.066.44-.1896.625s-.2993.3292-.5049.4144c-.2055.0851-.4317.1074-.65.064-.2182-.0434-.4187-.1506-.576-.3079s-.2645-.3578-.3079-.576c-.0434-.2183-.0211-.4445.064-.65.0852-.2056.2294-.3813.4144-.5049s.4025-.1896.625-.1896c.2984 0 .5845.1185.7955.3295s.3295.4971.3295.7955zm-1.125-10.125c-2.06812 0-3.75 1.51406-3.75 3.375v.375c0 .1989.07902.3897.21967.5303.14066.1407.33142.2197.53033.2197.19892 0 .38968-.079.53033-.2197.14066-.1406.21967-.3314.21967-.5303v-.375c0-1.03125 1.0097-1.875 2.25-1.875s2.25.84375 2.25 1.875c0 1.0312-1.0097 1.875-2.25 1.875-.1989 0-.3897.079-.5303.2197-.1407.1406-.2197.3314-.2197.5303v.75c0 .1989.079.3897.2197.5303.1406.1407.3314.2197.5303.2197s.3897-.079.5303-.2197c.1407-.1406.2197-.3314.2197-.5303v-.0675c1.71-.3141 3-1.6781 3-3.3075 0-1.86094-1.6819-3.375-3.75-3.375zm9.75 5.25c0 1.9284-.5718 3.8134-1.6432 5.4168-1.0713 1.6034-2.5941 2.8531-4.3756 3.591-1.7816.738-3.742.9311-5.6333.5549-1.89134-.3762-3.62862-1.3048-4.99219-2.6684-1.36356-1.3636-2.29216-3.1009-2.66836-4.9922-.37621-1.8913-.18313-3.8517.55483-5.63326.73795-1.78158 1.98764-3.30433 3.59101-4.37567 1.60338-1.07134 3.48841-1.64317 5.41681-1.64317 2.585.00273 5.0634 1.03084 6.8913 2.85872 1.8279 1.82789 2.856 4.30626 2.8587 6.89128zm-1.5 0c0-1.6317-.4839-3.22675-1.3904-4.58345-.9065-1.35671-2.195-2.41413-3.7025-3.03856-1.5074-.62442-3.1662-.7878-4.7666-.46947-1.60033.31833-3.07034 1.10407-4.22413 2.25785-1.15378 1.15378-1.93952 2.62379-2.25784 4.22413-.31833 1.6003-.15495 3.2591.46947 4.7666s1.68184 2.796 3.03855 3.7025 2.95175 1.3904 4.58345 1.3904c2.1873-.0025 4.2843-.8725 5.8309-2.4191s2.4166-3.6436 2.4191-5.8309z" fill="#000" fill-opacity=".8"/></svg>