<svg fill="none" height="24" viewBox="0 0 24 24" width="24" xmlns="http://www.w3.org/2000/svg"><path d="m21.1744 9.63937c-.3535-.36937-.7191-.74999-.8569-1.08468-.1275-.30656-.135-.81469-.1425-1.30688-.0141-.915-.0291-1.95187-.75-2.67281s-1.7578-.73594-2.6728-.75c-.4922-.0075-1.0003-.015-1.3069-.1425-.3337-.13781-.7153-.50344-1.0847-.85688-.6469-.62156-1.3818-1.32562-2.3606-1.32562s-1.7128.70406-2.36063 1.32562c-.36937.35344-.74999.71907-1.08468.85688-.30469.1275-.81469.135-1.30688.1425-.915.01406-1.95187.02906-2.67281.75s-.73125 1.75781-.75 2.67281c-.0075.49219-.015 1.00032-.1425 1.30688-.13781.33375-.50344.71531-.85688 1.08468-.62156.64693-1.32562 1.38183-1.32562 2.36063s.70406 1.7128 1.32562 2.3606c.35344.3694.71907.75.85688 1.0847.1275.3066.135.8147.1425 1.3069.01406.915.02906 1.9519.75 2.6728s1.75781.7359 2.67281.75c.49219.0075 1.00032.015 1.30688.1425.33375.1378.71531.5034 1.08468.8569.64693.6215 1.38183 1.3256 2.36063 1.3256s1.7128-.7041 2.3606-1.3256c.3694-.3535.75-.7191 1.0847-.8569.3066-.1275.8147-.135 1.3069-.1425.915-.0141 1.9519-.0291 2.6728-.75s.7359-1.7578.75-2.6728c.0075-.4922.015-1.0003.1425-1.3069.1378-.3337.5034-.7153.8569-1.0847.6215-.6469 1.3256-1.3818 1.3256-2.3606s-.7041-1.7128-1.3256-2.36063zm-4.8938.64123-5.25 5.25c-.0696.0698-.1523.1251-.2434.1628-.091.0378-.1886.0572-.2872.0572s-.1962-.0194-.2872-.0572c-.0911-.0377-.1738-.093-.24343-.1628l-2.25-2.25c-.14073-.1407-.21979-.3316-.21979-.5306s.07906-.3899.21979-.5306c.14074-.1408.33161-.2198.53063-.2198s.38989.079.53063.2198l1.71937 1.7203 4.7194-4.72033c.0697-.06968.1524-.12495.2434-.16267.0911-.03771.1887-.05712.2872-.05712s.1961.01941.2872.05712c.091.03772.1737.09299.2434.16267.0697.06969.125.15241.1627.24346.0377.09104.0571.18862.0571.28717s-.0194.19613-.0571.2872c-.0377.091-.093.1737-.1627.2434z" fill="#000" fill-opacity=".8"/></svg>