<svg fill="none" height="24" viewBox="0 0 24 24" width="24" xmlns="http://www.w3.org/2000/svg"><path d="m21.0394 9.76875c-.3657-.38156-.7435-.77531-.8953-1.14188-.1407-.34031-.1482-.84375-.1566-1.37625-.0131-.87937-.0281-1.87499-.6956-2.54249s-1.6669-.68251-2.5425-.69563c-.5325-.00844-1.0313-.01594-1.3763-.15656-.3665-.15188-.7603-.52969-1.1418-.89532-.6225-.59625-1.3275-1.27312-2.2313-1.27312s-1.6088.67687-2.23125 1.27312c-.38156.36563-.77531.74344-1.14188.89532-.34031.14062-.84375.14812-1.37625.15656-.87937.01312-1.87499.02813-2.54249.69563s-.68251 1.66687-.69563 2.54249c-.00844.5325-.01594 1.03125-.15656 1.37625-.15188.36657-.52969.76032-.89532 1.14188-.59625.62245-1.27312 1.32745-1.27312 2.23125s.67687 1.6088 1.27312 2.2313c.36563.3815.74344.7753.89532 1.1418.14062.3403.14812.8438.15656 1.3763.01312.8794.02813 1.875.69563 2.5425s1.66687.6825 2.54249.6956c.5325.0084 1.03125.0159 1.37625.1566.36657.1518.76032.5296 1.14188.8953.62245.5962 1.32745 1.2731 2.23125 1.2731s1.6088-.6769 2.2313-1.2731c.3815-.3657.7753-.7435 1.1418-.8953.3403-.1407.8438-.1482 1.3763-.1566.8794-.0131 1.875-.0281 2.5425-.6956s.6825-1.6631.6956-2.5425c.0084-.5325.0159-1.0313.1566-1.3763.1518-.3665.5296-.7603.8953-1.1418.5962-.6225 1.2731-1.3275 1.2731-2.2313s-.6769-1.6088-1.2731-2.23125zm-.8119 3.68435c-.4378.4556-.8906.9281-1.125 1.4906-.2231.5382-.2325 1.1738-.2419 1.7888-.0103.6975-.0215 1.4194-.3656 1.7644s-1.0669.3553-1.7644.3656c-.615.0094-1.2506.0188-1.7887.2419-.5625.2325-1.0313.6853-1.4916 1.125-.4922.4687-1.0012.96-1.4522.96-.4509 0-.96-.4885-1.4531-.96-.4556-.4378-.92812-.8907-1.49062-1.125-.53813-.2231-1.17376-.2325-1.78876-.2419-.6975-.0103-1.41937-.0216-1.76437-.3656-.345-.3441-.35531-1.0669-.36563-1.7644-.00937-.615-.01874-1.2506-.24187-1.7888-.2325-.5625-.68531-1.0312-1.125-1.4915-.46781-.4922-.95625-1.0013-.95625-1.4522s.48844-.96.96-1.4531c.43781-.4556.89063-.92815 1.125-1.49065.22313-.53812.2325-1.17375.24187-1.78875.01032-.6975.02157-1.41938.36563-1.76437.34406-.345 1.06688-.35532 1.76437-.36563.61501-.00938 1.25063-.01875 1.78876-.24187.5625-.2325 1.03127-.68532 1.49157-1.125.4903-.46969.9994-.95813 1.4503-.95813s.96.48844 1.4531.96c.4556.43781.9281.89063 1.4906 1.125.5382.22313 1.1738.2325 1.7888.24187.6975.01032 1.4194.02157 1.7644.36563s.3553 1.06688.3656 1.76437c.0094.61501.0188 1.25063.2419 1.78876.2325.5625.6853 1.03127 1.125 1.49157.4687.4922.96 1.0012.96 1.4522 0 .4509-.4903.9581-.9619 1.4512zm-4.08-4.1006c.1053.10547.1645.24844.1645.3975s-.0592.292-.1645.3975l-5.25 5.25c-.1055.1053-.2484.1645-.3975.1645s-.292-.0592-.3975-.1645l-2.25-2.25c-.09936-.1066-.15345-.2477-.15088-.3934s.0616-.2848.16466-.3878c.10306-.1031.2421-.1621.38783-.1647.14572-.0026.28676.0515.39339.1509l1.8525 1.8516 4.8525-4.8516c.1055-.10534.2484-.16451.3975-.16451s.292.05917.3975.16451z" fill="#000" fill-opacity=".8"/></svg>