<svg fill="none" height="24" viewBox="0 0 24 24" width="24" xmlns="http://www.w3.org/2000/svg"><path d="m21.1744 9.63937c-.3535-.36937-.7191-.74999-.8569-1.08468-.1275-.30656-.135-.81469-.1425-1.30688-.0141-.915-.0291-1.95187-.75-2.67281s-1.7578-.73594-2.6728-.75c-.4922-.0075-1.0003-.015-1.3069-.1425-.3337-.13781-.7153-.50344-1.0847-.85688-.6469-.62156-1.3818-1.32562-2.3606-1.32562s-1.7128.70406-2.36063 1.32562c-.36937.35344-.74999.71907-1.08468.85688-.30469.1275-.81469.135-1.30688.1425-.915.01406-1.95187.02906-2.67281.75s-.73125 1.75781-.75 2.67281c-.0075.49219-.015 1.00032-.1425 1.30688-.13781.33375-.50344.71531-.85688 1.08468-.62156.64693-1.32562 1.38183-1.32562 2.36063s.70406 1.7128 1.32562 2.3606c.35344.3694.71907.75.85688 1.0847.1275.3066.135.8147.1425 1.3069.01406.915.02906 1.9519.75 2.6728s1.75781.7359 2.67281.75c.49219.0075 1.00032.015 1.30688.1425.33375.1378.71531.5034 1.08468.8569.64693.6215 1.38183 1.3256 2.36063 1.3256s1.7128-.7041 2.3606-1.3256c.3694-.3535.75-.7191 1.0847-.8569.3066-.1275.8147-.135 1.3069-.1425.915-.0141 1.9519-.0291 2.6728-.75s.7359-1.7578.75-2.6728c.0075-.4922.015-1.0003.1425-1.3069.1378-.3337.5034-.7153.8569-1.0847.6215-.6469 1.3256-1.3818 1.3256-2.3606s-.7041-1.7128-1.3256-2.36063zm-1.0828 3.68343c-.4491.4688-.9141.9535-1.1607 1.5488-.2362.5718-.2465 1.2253-.2559 1.8581-.0094.6562-.0197 1.3434-.3112 1.6341-.2916.2906-.9741.3018-1.6341.3112-.6328.0094-1.2863.0197-1.8581.2559-.5953.2466-1.08.7116-1.5488 1.1607-.4687.449-.9478.9084-1.3228.9084s-.8578-.4613-1.3228-.9084c-.465-.4472-.95345-.9141-1.54876-1.1607-.57188-.2362-1.22531-.2465-1.85813-.2559-.65625-.0094-1.34343-.0197-1.63406-.3112-.29063-.2916-.30188-.9741-.31125-1.6341-.00938-.6328-.01969-1.2863-.25594-1.8581-.24656-.5953-.71156-1.08-1.16062-1.5488-.44907-.4687-.90844-.9478-.90844-1.3228s.46125-.8578.90844-1.3228c.44718-.465.91406-.95345 1.16062-1.54876.23625-.57188.24656-1.22531.25594-1.85813.00937-.65625.01969-1.34343.31125-1.63406s.97406-.30188 1.63406-.31125c.63282-.00938 1.28625-.01969 1.85813-.25594.59531-.24656 1.07996-.71156 1.54876-1.16062.4687-.44907.9478-.90844 1.3228-.90844s.8578.46125 1.3228.90844c.465.44718.9535.91406 1.5488 1.16062.5718.23625 1.2253.24656 1.8581.25594.6562.00937 1.3434.01969 1.6341.31125.2906.29156.3018.97406.3112 1.63406.0094.63282.0197 1.28625.2559 1.85813.2466.59531.7116 1.07996 1.1607 1.54876.449.4687.9084.9478.9084 1.3228s-.4613.8578-.9084 1.3228zm-3.811-4.10343c.0698.06966.1251.15238.1628.24342.0378.09105.0572.18865.0572.28721s-.0194.19616-.0572.2872c-.0377.0911-.093.1738-.1628.2434l-5.25 5.25c-.0696.0698-.1523.1251-.2434.1628-.091.0378-.1886.0572-.2872.0572s-.1962-.0194-.2872-.0572c-.0911-.0377-.1738-.093-.24343-.1628l-2.25-2.25c-.14073-.1407-.21979-.3316-.21979-.5306s.07906-.3899.21979-.5306c.14074-.1408.33161-.2198.53063-.2198s.38989.079.53063.2198l1.71937 1.7203 4.7194-4.72033c.0696-.06973.1523-.12505.2434-.16279.091-.03774.1886-.05717.2872-.05717s.1962.01943.2872.05717c.0911.03774.1738.09306.2434.16279z" fill="#000" fill-opacity=".8"/></svg>