<svg fill="none" height="24" viewBox="0 0 24 24" width="24" xmlns="http://www.w3.org/2000/svg"><path d="m16.5002 15.0001c-.5003-.0002-.9955.1-1.4564.2947s-.878.4799-1.2267.8387l-4.32188-2.7778c.33997-.8718.33997-1.8395 0-2.7113l4.32188-2.77776c.6492.66498 1.5221 1.06523 2.4497 1.12315.9275.05791 1.8435-.23064 2.5703-.8097.7269-.57907 1.2128-1.4074 1.3636-2.3244.1509-.917-.0442-1.85734-.5473-2.63871-.5031-.78136-1.2784-1.34809-2.1756-1.5903s-1.8524-.14265-2.6803.27938c-.828.42203-1.4698 1.13646-1.8009 2.00478-.3311.86833-.3281 1.82867.0086 2.69486l-4.32185 2.77781c-.52044-.5343-1.18839-.90127-1.91846-1.05399-.73008-.15272-1.48911-.08425-2.18008.19665-.69096.2809-1.28246.76147-1.69889 1.38028-.41642.61885-.63885 1.34775-.63885 2.09365s.22243 1.4748.63885 2.0936c.41643.6188 1.00793 1.0994 1.69889 1.3803.69097.2809 1.45.3493 2.18008.1966.73007-.1527 1.39802-.5197 1.91846-1.054l4.32185 2.7778c-.2895.7468-.3323 1.5666-.1222 2.3395.2101.7728.6621 1.4581 1.2899 1.9555.6277.4973 1.3983.7806 2.1987.8084s1.5887-.2014 2.2494-.6541c.6608-.4526 1.1592-1.1049 1.4224-1.8614.2632-.7564.2772-1.5772.0402-2.3423-.2371-.765-.7129-1.434-1.3577-1.909-.6448-.4751-1.4248-.7312-2.2257-.7309zm0-12.00003c.445 0 .88.13196 1.2501.3792.37.24723.6584.59863.8287 1.00977.1703.41113.2148.86353.128 1.29999-.0868.43645-.3011.83737-.6158 1.15203-.3147.31467-.7156.52896-1.152.61578-.4365.08682-.8889.04226-1.3-.12804-.4111-.17029-.7625-.45868-1.0098-.82869-.2472-.37001-.3792-.80503-.3792-1.25004 0-.59673.2371-1.16903.659-1.59099.422-.42195.9943-.65901 1.591-.65901zm-10.49997 11.25003c-.44501 0-.88003-.132-1.25004-.3792-.37001-.2473-.6584-.5987-.82869-1.0098-.1703-.4111-.21486-.8635-.12804-1.3.08682-.4364.30111-.8373.61578-1.152.31466-.3147.71557-.52898 1.15203-.61579.43646-.08682.88886-.04226 1.29999.12803.41114.17026.76254.45866 1.00977.82866.24724.3701.3792.8051.3792 1.2501 0 .5967-.23706 1.169-.65901 1.591-.42196.4219-.99426.659-1.59099.659zm10.49997 6.75c-.445 0-.88-.132-1.25-.3792-.37-.2473-.6584-.5987-.8287-1.0098s-.2149-.8635-.128-1.3c.0868-.4364.3011-.8373.6157-1.152.3147-.3147.7156-.529 1.1521-.6158.4364-.0868.8888-.0423 1.3.128.4111.1703.7625.4587 1.0097.8287.2473.3701.3792.8051.3792 1.2501 0 .5967-.237 1.169-.659 1.591-.4219.4219-.9942.659-1.591.659z" fill="#000" fill-opacity=".8"/></svg>