<svg fill="none" height="24" viewBox="0 0 24 24" width="24" xmlns="http://www.w3.org/2000/svg"><path d="m16.5005 15.1875c-.5009-.0002-.9963.1055-1.4535.3102-.4573.2047-.8661.5038-1.1996.8776l-4.58437-2.9466c.19785-.4503.3-.9369.3-1.4287 0-.4919-.10215-.9785-.3-1.4288l4.58437-2.94656c.5981.66714 1.4256 1.08442 2.3176 1.16866.892.08425 1.783-.17072 2.4955-.71408.7124-.54337 1.1939-1.33523 1.3485-2.21777.1547-.88254-.0289-1.79094-.5141-2.54416-.4853-.75322-1.2365-1.29595-2.104-1.52001s-1.7876-.11301-2.5769.31103-1.3898 1.12992-1.6819 1.97696-.2543 1.77304.1059 2.59344l-4.58434 2.94656c-.48096-.53786-1.1139-.91699-1.81506-1.08723s-1.43749-.12357-2.11154.13385-1.25404.71345-1.66323 1.30773-.62828 1.29878-.62828 2.02038c0 .7215.21909 1.426.62828 2.0203s.98918 1.0503 1.66323 1.3077 1.41038.3041 2.11154.1339c.70116-.1703 1.3341-.5494 1.81506-1.0873l4.58434 2.9466c-.3077.703-.3803 1.4865-.2068 2.234.1734.7475.5836 1.419 1.1694 1.9146.5859.4956 1.3161.7888 2.082.8359.766.0472 1.5266-.1543 2.1688-.5743s1.1317-1.0362 1.3955-1.7567c.2638-.7206.2878-1.5072.0686-2.2425-.2192-.7354-.6701-1.3803-1.2854-1.8389-.6153-.4585-1.3622-.706-2.1296-.7058zm0-12.37504c.4821 0 .9534.14295 1.3542.41079.4009.26784.7133.64852.8978 1.09392.1845.44539.2327.93549.1387 1.40832-.0941.47283-.3262.90715-.6671 1.24804s-.7752.57304-1.248.66709c-.4729.09405-.963.04578-1.4084-.13871s-.826-.49691-1.0939-.89775c-.2678-.40085-.4108-.87211-.4108-1.3542 0-.64647.2568-1.26646.714-1.72358.4571-.45712 1.0771-.71392 1.7235-.71392zm-10.49997 11.62504c-.48209 0-.95336-.143-1.3542-.4108-.40085-.2679-.71327-.6486-.89775-1.094-.18449-.4453-.23276-.9354-.13871-1.4083.09405-.4728.3262-.9071.66709-1.248.34089-.34091.77521-.57306 1.24804-.66711s.96293-.04578 1.40832.13871c.4454.18449.82608.4969 1.09392.8978.26783.4008.41079.8721.41079 1.3542 0 .6464-.25681 1.2664-.71393 1.7235s-1.0771.714-1.72357.714zm10.49997 6.75c-.4821 0-.9533-.143-1.3542-.4108-.4008-.2679-.7132-.6486-.8977-1.094-.1845-.4453-.2328-.9354-.1387-1.4083.094-.4728.3262-.9071.6671-1.248.3408-.3409.7752-.5731 1.248-.6671.4728-.0941.9629-.0458 1.4083.1387s.8261.4969 1.0939.8978c.2679.4008.4108.8721.4108 1.3542 0 .3201-.063.637-.1855.9327-.1225.2958-.3021.5645-.5284.7908-.2263.2264-.495.4059-.7908.5284-.2957.1225-.6127.1856-.9328.1856z" fill="#000" fill-opacity=".8"/></svg>