<svg fill="none" height="24" viewBox="0 0 24 24" width="24" xmlns="http://www.w3.org/2000/svg"><path d="m19.8747 18.7497c.0001.4926-.1077.9792-.3157 1.4257-.2081.4466-.5113.8421-.8885 1.159-.3772.3168-.8192.5472-1.2949.6751-.4757.1278-.9737.15-1.4589.0649s-.9459-.2754-1.3497-.5575c-.4039-.2821-.741-.6491-.9879-1.0754s-.3974-.9015-.4411-1.3921c-.0437-.4907.0206-.985.1883-1.4482l-4.96878-3.1921c-.47456.4654-1.076.7804-1.72889.9054s-1.32815.0544-1.94106-.203c-.61291-.2573-1.13617-.6899-1.50415-1.2435s-.56428-1.2036-.56428-1.8683c0-.6648.1963-1.3147.56428-1.8683s.89124-.98621 1.50415-1.24355c.61291-.25735 1.28817-.32796 1.94106-.20299.65289.12496 1.25433.43995 1.72889.90544l4.96878-3.1875c-.2846-.78183-.271-1.64108.0379-2.41358.309-.77249.8918-1.40405 1.637-1.77401s1.6006-.45237 2.4028-.23148c.8021.22088 1.4947.72957 1.9455 1.42887s.6281 1.54017.4981 2.36194c-.1301.82177-.5583 1.56682-1.203 2.09278-.6446.52597-1.4605.79597-2.2916.75841-.8312-.03755-1.6193-.38003-2.2139-.96199l-4.96877 3.19216c.26854.7421.26854 1.5548 0 2.2969l4.96877 3.1922c.4744-.4643 1.0752-.7784 1.7271-.903.652-.1246 1.3263-.0541 1.9384.2025.6122.2567 1.1351.6882 1.5033 1.2405s.5654 1.2009.5668 1.8647z" fill="#000" fill-opacity=".8"/></svg>