<svg fill="none" height="24" viewBox="0 0 24 24" width="24" xmlns="http://www.w3.org/2000/svg" xmlns:xlink="http://www.w3.org/1999/xlink"><clipPath id="a"><rect height="16" rx="2" width="22" x="1" y="4"/></clipPath><g clip-path="url(#a)"><rect fill="#f93939" height="16" rx="2" width="22" x="1" y="4"/><path d="m20.9048 4h-17.80956c-1.15717 0-2.09524.95513-2.09524 2.13333v11.73337c0 1.1782.93807 2.1333 2.09524 2.1333h17.80956c1.1571 0 2.0952-.9551 2.0952-2.1333v-11.73337c0-1.1782-.9381-2.13333-2.0952-2.13333z" fill="#f93939"/><g clip-rule="evenodd" fill-rule="evenodd"><path d="m1 8.26666h22v7.46664h-22z" fill="#ffda2c"/><path d="m10.4285 10.6368v2.688c0 .7467-.70398 1.344-1.5714 1.344h-2.09524c-.86534-.0021-1.57143-.6027-1.57143-1.3461v-2.688c0-.6102.46933-1.12003 1.11467-1.28536.19485-.55467.79409-.0576 1.50438-.0576.71447 0 1.30952-.49387 1.50438.05866.64324.1696 1.11464.6805 1.11464 1.2864z" fill="#d4af2c"/><path d="m10.4288 11.4667h1.0476v3.2h-1.0476zm-6.28573 0h1.04762v3.2h-1.04762z" fill="#cbcbcb"/><path d="m10.4288 13.6h1.0476v1.0667h-1.0476zm-6.28573 0h1.04762v1.0667h-1.04762z" fill="#1a47b8"/><path d="m10.4288 10.4h1.0476v1.0667h-1.0476zm-6.28573 0h1.04762v1.0667h-1.04762z" fill="#d4af2c"/><path d="m6.23828 10.4h1.04762v1.6h-1.04762zm2.09524 2.1333h1.04762v1.6h-1.04762z" fill="#af010d"/><path d="m8.3335 10.4h1.04762v1.6h-1.04762z" fill="#ae6a3e"/><path d="m6.23828 12.5333h1.04762v1.6h-1.04762z" fill="#ffda2c"/><path d="m7.2859 10.4-1.04762-1.06666h3.14286l-1.04762 1.06666z" fill="#af010d"/><path d="m7.28564 8.26666h1.04762v1.06667h-1.04762z" fill="#d4af2c"/></g></g><rect height="15.5" rx="1.75" stroke="#000" stroke-opacity=".1" stroke-width=".5" width="21.5" x="1.25" y="4.25"/></svg>