<svg fill="none" height="24" viewBox="0 0 24 24" width="24" xmlns="http://www.w3.org/2000/svg"><path d="m11.25 5.25v4.5c0 .3978-.158.7794-.4393 1.0607s-.6629.4393-1.0607.4393h-4.5c-.39782 0-.77936-.158-1.06066-.4393s-.43934-.6629-.43934-1.0607v-4.5c0-.39782.15804-.77936.43934-1.06066s.66284-.43934 1.06066-.43934h4.5c.3978 0 .7794.15804 1.0607.43934s.4393.66284.4393 1.06066zm7.5-1.5h-4.5c-.3978 0-.7794.15804-1.0607.43934s-.4393.66284-.4393 1.06066v4.5c0 .3978.158.7794.4393 1.0607s.6629.4393 1.0607.4393h4.5c.3978 0 .7794-.158 1.0607-.4393s.4393-.6629.4393-1.0607v-4.5c0-.39782-.158-.77936-.4393-1.06066s-.6629-.43934-1.0607-.43934zm-9 9h-4.5c-.39782 0-.77936.158-1.06066.4393s-.43934.6629-.43934 1.0607v4.5c0 .3978.15804.7794.43934 1.0607s.66284.4393 1.06066.4393h4.5c.3978 0 .7794-.158 1.0607-.4393s.4393-.6629.4393-1.0607v-4.5c0-.3978-.158-.7794-.4393-1.0607s-.6629-.4393-1.0607-.4393zm9 0h-4.5c-.3978 0-.7794.158-1.0607.4393s-.4393.6629-.4393 1.0607v4.5c0 .3978.158.7794.4393 1.0607s.6629.4393 1.0607.4393h4.5c.3978 0 .7794-.158 1.0607-.4393s.4393-.6629.4393-1.0607v-4.5c0-.3978-.158-.7794-.4393-1.0607s-.6629-.4393-1.0607-.4393z" fill="#000" fill-opacity=".8"/></svg>