<svg fill="none" height="24" viewBox="0 0 24 24" width="24" xmlns="http://www.w3.org/2000/svg"><path d="m9.75 3.9375h-4.5c-.3481 0-.68194.13828-.92808.38442s-.38442.57998-.38442.92808v4.5c0 .17236.03395.343.09991.5023.06596.1592.16264.3039.28451.4258.12188.1219.26657.2185.42581.2845s.32991.0999.50227.0999h4.5c.17236 0 .343-.0339.5023-.0999.1592-.066.3039-.1626.4258-.2845s.2185-.2666.2845-.4258c.066-.1593.0999-.32994.0999-.5023v-4.5c0-.17236-.0339-.34303-.0999-.50227s-.1626-.30393-.2845-.42581c-.1219-.12187-.2666-.21855-.4258-.28451-.1593-.06596-.32994-.09991-.5023-.09991zm.1875 5.8125c0 .04973-.01975.09742-.05492.13258-.03516.03517-.08285.05492-.13258.05492h-4.5c-.04973 0-.09742-.01975-.13258-.05492-.03517-.03516-.05492-.08285-.05492-.13258v-4.5c0-.04973.01975-.09742.05492-.13258.03516-.03517.08285-.05492.13258-.05492h4.5c.04973 0 .09742.01975.13258.05492.03517.03516.05492.08285.05492.13258zm8.8125-5.8125h-4.5c-.3481 0-.6819.13828-.9281.38442-.2461.24614-.3844.57998-.3844.92808v4.5c0 .17236.0339.343.0999.5023.066.1592.1626.3039.2845.4258s.2666.2185.4258.2845c.1593.066.3299.0999.5023.0999h4.5c.1724 0 .343-.0339.5023-.0999.1592-.066.3039-.1626.4258-.2845s.2185-.2666.2845-.4258c.066-.1593.0999-.32994.0999-.5023v-4.5c0-.3481-.1383-.68194-.3844-.92808-.2462-.24614-.58-.38442-.9281-.38442zm.1875 5.8125c0 .04973-.0198.09742-.0549.13258-.0352.03517-.0829.05492-.1326.05492h-4.5c-.0497 0-.0974-.01975-.1326-.05492-.0351-.03516-.0549-.08285-.0549-.13258v-4.5c0-.04973.0198-.09742.0549-.13258.0352-.03517.0829-.05492.1326-.05492h4.5c.0497 0 .0974.01975.1326.05492.0351.03516.0549.08285.0549.13258zm-9.1875 3.1875h-4.5c-.3481 0-.68194.1383-.92808.3844-.24614.2462-.38442.58-.38442.9281v4.5c0 .3481.13828.6819.38442.9281.24614.2461.57998.3844.92808.3844h4.5c.17236 0 .343-.0339.5023-.0999.1592-.066.3039-.1626.4258-.2845s.2185-.2666.2845-.4258c.066-.1593.0999-.3299.0999-.5023v-4.5c0-.1724-.0339-.343-.0999-.5023-.066-.1592-.1626-.3039-.2845-.4258s-.2666-.2185-.4258-.2845c-.1593-.066-.32994-.0999-.5023-.0999zm.1875 5.8125c0 .0497-.01975.0974-.05492.1326-.03516.0351-.08285.0549-.13258.0549h-4.5c-.04973 0-.09742-.0198-.13258-.0549-.03517-.0352-.05492-.0829-.05492-.1326v-4.5c0-.0497.01975-.0974.05492-.1326.03516-.0351.08285-.0549.13258-.0549h4.5c.04973 0 .09742.0198.13258.0549.03517.0352.05492.0829.05492.1326zm8.8125-5.8125h-4.5c-.3481 0-.6819.1383-.9281.3844-.2461.2462-.3844.58-.3844.9281v4.5c0 .3481.1383.6819.3844.9281.2462.2461.58.3844.9281.3844h4.5c.3481 0 .6819-.1383.9281-.3844.2461-.2462.3844-.58.3844-.9281v-4.5c0-.3481-.1383-.6819-.3844-.9281-.2462-.2461-.58-.3844-.9281-.3844zm.1875 5.8125c0 .0497-.0198.0974-.0549.1326-.0352.0351-.0829.0549-.1326.0549h-4.5c-.0497 0-.0974-.0198-.1326-.0549-.0351-.0352-.0549-.0829-.0549-.1326v-4.5c0-.0497.0198-.0974.0549-.1326.0352-.0351.0829-.0549.1326-.0549h4.5c.0497 0 .0974.0198.1326.0549.0351.0352.0549.0829.0549.1326z" fill="#000" fill-opacity=".8"/></svg>