<svg fill="none" height="24" viewBox="0 0 24 24" width="24" xmlns="http://www.w3.org/2000/svg"><path d="m9.75 3.75h-4.5c-.39782 0-.77936.15804-1.06066.43934s-.43934.66284-.43934 1.06066v4.5c0 .3978.15804.7794.43934 1.0607s.66284.4393 1.06066.4393h4.5c.3978 0 .7794-.158 1.0607-.4393s.4393-.6629.4393-1.0607v-4.5c0-.39782-.158-.77936-.4393-1.06066s-.6629-.43934-1.0607-.43934zm0 6h-4.5v-4.5h4.5zm9-6h-4.5c-.3978 0-.7794.15804-1.0607.43934s-.4393.66284-.4393 1.06066v4.5c0 .3978.158.7794.4393 1.0607s.6629.4393 1.0607.4393h4.5c.3978 0 .7794-.158 1.0607-.4393s.4393-.6629.4393-1.0607v-4.5c0-.39782-.158-.77936-.4393-1.06066s-.6629-.43934-1.0607-.43934zm0 6h-4.5v-4.5h4.5zm-9 3h-4.5c-.39782 0-.77936.158-1.06066.4393s-.43934.6629-.43934 1.0607v4.5c0 .3978.15804.7794.43934 1.0607s.66284.4393 1.06066.4393h4.5c.3978 0 .7794-.158 1.0607-.4393s.4393-.6629.4393-1.0607v-4.5c0-.3978-.158-.7794-.4393-1.0607s-.6629-.4393-1.0607-.4393zm0 6h-4.5v-4.5h4.5zm9-6h-4.5c-.3978 0-.7794.158-1.0607.4393s-.4393.6629-.4393 1.0607v4.5c0 .3978.158.7794.4393 1.0607s.6629.4393 1.0607.4393h4.5c.3978 0 .7794-.158 1.0607-.4393s.4393-.6629.4393-1.0607v-4.5c0-.3978-.158-.7794-.4393-1.0607s-.6629-.4393-1.0607-.4393zm0 6h-4.5v-4.5h4.5z" fill="#000" fill-opacity=".8"/></svg>