<svg fill="none" height="24" viewBox="0 0 24 24" width="24" xmlns="http://www.w3.org/2000/svg"><path d="m21.4856 16.2187c.075.1288.0958.2821.0578.4263-.0379.1441-.1316.2673-.2603.3424l-9 5.25c-.0855.0494-.1825.0754-.2812.0754-.0988 0-.1958-.026-.2813-.0754l-8.99997-5.25c-.11819-.0796-.20172-.2012-.2337-.3401s-.01004-.2848.0614-.4081c.07143-.1234.18704-.215.32344-.2564s.28342-.0295.41136.0334l8.71877 5.0841 8.7187-5.0841c.1285-.0738.2809-.0939.4242-.056.1432.0379.2657.1308.3408.2585zm-.7668-4.7044-8.7188 5.0841-8.71875-5.0841c-.12793-.0628-.27496-.0748-.41136-.0334s-.252.133-.32344.2564c-.07143.1233-.09338.2692-.06139.4081.03198.1389.1155.2605.23369.3402l9.00005 5.25c.0855.0493.1825.0753.2812.0753s.1957-.026.2812-.0753l9-5.25c.1182-.0797.2018-.2013.2337-.3402.032-.1389.0101-.2848-.0614-.4081-.0714-.1234-.187-.215-.3234-.2564s-.2834-.0294-.4113.0334zm-18.2813-4.01435c.00027-.09848.02638-.19517.07574-.28039s.12022-.15599.20551-.20523l9.00005-5.25c.0855-.04937.1825-.07537.2812-.07537s.1957.026.2812.07537l9 5.25c.0849.04956.1552.12048.2041.20568s.0746.18171.0746.27994-.0257.19474-.0746.27994-.1192.15612-.2041.20569l-9 5.25002c-.0855.0493-.1825.0753-.2812.0753s-.1957-.026-.2812-.0753l-9.00005-5.25002c-.08529-.04925-.15615-.12002-.20551-.20524s-.07547-.18191-.07574-.28039zm1.67906 0 7.88344 4.59845 7.8834-4.59845-7.8834-4.59375z" fill="#000" fill-opacity=".8"/></svg>