<svg fill="none" height="24" viewBox="0 0 24 24" width="24" xmlns="http://www.w3.org/2000/svg"><g fill="#000" fill-opacity=".8"><path d="m20.6253 15.8524-8.625 5.0297-8.625-5.0297c-.17078-.085-.36753-.1018-.55022-.0469s-.33758.1774-.43315.3425c-.09558.1651-.12464.3604-.08129.5462.04336.1858.15588.3481.31466.4538l9 5.25c.1147.0669.2451.1021.3778.1021.1328 0 .2631-.0352.3778-.1021l9-5.25c.0865-.0489.1623-.1145.2232-.193.0609-.0784.1056-.1682.1315-.2641s.0325-.1959.0195-.2944c-.0131-.0984-.0456-.1933-.0956-.2791-.0501-.0858-.1166-.1608-.1959-.2207-.0793-.0598-.1696-.1033-.2658-.128-.0962-.0246-.1964-.0299-.2947-.0156-.0982.0144-.1927.0481-.2778.0993z"/><path d="m20.6253 11.3524-8.625 5.0297-8.625-5.0297c-.17078-.085-.36753-.1018-.55022-.0469s-.33758.1774-.43315.3425c-.09558.1651-.12464.3604-.08129.5462.04336.1858.15588.3481.31466.4538l9 5.25c.1147.0669.2451.1021.3778.1021.1328 0 .2631-.0352.3778-.1021l9-5.25c.0865-.0489.1623-.1145.2232-.193.0609-.0784.1056-.1682.1315-.2641s.0325-.1959.0195-.2944c-.0131-.0984-.0456-.1933-.0956-.2791-.0501-.0858-.1166-.1608-.1959-.2207-.0793-.0598-.1696-.1033-.2658-.128-.0962-.0246-.1964-.0299-.2947-.0156-.0982.0144-.1927.0481-.2778.0993z"/><path d="m2.62499 8.14774 9.00001 5.24996c.1147.0669.245.1022.3778.1022s.2631-.0353.3778-.1022l9-5.24996c.1132-.06605.2072-.16062.2724-.27429.0653-.11366.0997-.24245.0997-.37352 0-.13108-.0344-.25987-.0997-.37353-.0652-.11366-.1592-.20824-.2724-.27429l-9-5.25c-.1147-.06687-.245-.10211-.3778-.10211s-.2631.03524-.3778.10211l-9.00001 5.25c-.11322.06605-.20715.16063-.27243.27429s-.09963.24245-.09963.37353c0 .13107.03435.25986.09963.37352.06528.11367.15921.20824.27243.27429z"/></g></svg>