<svg fill="none" height="24" viewBox="0 0 24 24" width="24" xmlns="http://www.w3.org/2000/svg"><path d="m21.6478 16.1249c.0991.1719.126.3761.0748.5678-.0511.1917-.1761.3553-.3476.455l-9 5.25c-.1147.0669-.2451.1022-.3778.1022-.1328 0-.2631-.0353-.3778-.1022l-9.00002-5.25c-.16904-.1015-.29127-.2656-.34022-.4566-.04896-.1911-.0207-.3937.07865-.5641.09936-.1703.26181-.2947.45219-.3461.19037-.0515.39336-.0259.565.0712l8.625 5.0297 8.625-5.0297c.1719-.099.3761-.126.5677-.0748.1917.0511.3554.1761.4551.3476zm-1.0228-4.7728-8.625 5.0297-8.625-5.0297c-.17077-.085-.36752-.1018-.55021-.0468-.18269.0549-.33759.1774-.43316.3425s-.12464.3604-.08128.5461c.04335.1858.15587.3481.31465.4538l9 5.25c.1147.0669.2451.1022.3778.1022.1328 0 .2631-.0353.3778-.1022l9-5.25c.0865-.0489.1623-.1145.2232-.1929.0609-.0785.1056-.1683.1315-.2641.0259-.0959.0326-.196.0195-.2944-.0131-.0985-.0456-.1934-.0956-.2792-.0501-.0858-.1166-.1608-.1959-.2206-.0793-.0599-.1696-.1034-.2658-.1281-.0962-.0246-.1964-.0299-.2947-.0155-.0982.0143-.1927.0481-.2778.0992zm-18.375-3.85217c.0003-.13137.0351-.26035.10091-.37404s.16033-.2081.27409-.27378l9-5.25c.1147-.06687.2451-.10211.3778-.10211.1328 0 .2631.03524.3778.10211l9 5.25c.1132.06605.2072.16063.2725.27429.0652.11366.0996.24245.0996.37353 0 .13107-.0344.25986-.0996.37352-.0653.11367-.1593.20824-.2725.27429l-9 5.24996c-.1147.0669-.245.1022-.3778.1022-.1327 0-.2631-.0353-.3778-.1022l-9-5.24996c-.11376-.06568-.20828-.16009-.27409-.27378s-.10061-.24267-.10091-.37403zm2.23875 0 7.51125 4.38187 7.5112-4.38187-7.5112-4.38188z" fill="#000" fill-opacity=".8"/></svg>