<svg fill="none" height="24" viewBox="0 0 24 24" width="24" xmlns="http://www.w3.org/2000/svg"><path d="m22.2465 9.17821c-.0774-.24589-.2266-.46299-.4284-.62338-.2019-.16039-.447-.25672-.7041-.27663l-5.5743-.48187c-.0337-.00331-.0659-.0157-.0932-.03584-.0272-.02014-.0485-.04728-.0615-.07853l-2.1778-5.19001c-.1009-.23676-.2691-.43864-.4838-.58054-.2147-.14191-.4664-.21756-.7237-.21756-.2574 0-.5091.07565-.7237.21756-.2147.1419-.383.34378-.4838.58054l-2.17785 5.19001c-.01305.03125-.03432.05839-.06156.07853-.02723.02014-.05942.03253-.09313.03584l-5.57437.48187c-.25702.01991-.50221.11624-.70403.27663s-.35104.37749-.42847.62338c-.08201.24623-.08917.51125-.02059.76155.06859.25034.20984.47464.4059.64474l4.22906 3.689c.0259.023.04513.0526.05569.0855.01055.033.01204.0683.00431.102l-1.27125 5.4853c-.05926.2526-.04235.517.04859.76.09093.2429.25183.4535.46235.605.20726.153.4556.2402.71296.2506.25736.0103.51191-.0567.73079-.1924l4.7916-2.9063c.0281-.0174.0606-.0267.0937-.0267s.0656.0093.0938.0267l4.7915 2.9063c.2212.1354.4775.2022.7366.1921s.5094-.0968.7193-.249c.2099-.1523.3701-.3633.4602-.6064.0901-.2432.1061-.5076.0461-.7599l-1.2675-5.4872c-.0077-.0337-.0062-.0689.0043-.1019.0106-.033.0298-.0626.0557-.0856l4.2291-3.689c.195-.1704.3353-.3946.4032-.64448.0679-.2499.0604-.5143-.0217-.75991zm-1.125.55499-4.229 3.6891c-.1802.1568-.3142.3598-.3876.5871-.0733.2273-.0832.4703-.0287.7029l1.2675 5.4872c.0094.0368.0073.0757-.0059.1113-.0132.0357-.037.0665-.0681.0883-.0282.0226-.0629.0356-.099.0371s-.0717-.0085-.1017-.0286l-4.7915-2.9063c-.2043-.1241-.4388-.1898-.6778-.1898-.2391 0-.4736.0657-.6779.1898l-4.79151 2.9063c-.02999.0201-.06562.0301-.1017.0286s-.07074-.0145-.09893-.0371c-.03114-.0218-.0549-.0526-.06813-.0883-.01323-.0356-.0153-.0745-.00593-.1113l1.2675-5.4872c.05457-.2326.04464-.4756-.02871-.7029s-.20734-.4303-.38754-.5871l-4.22906-3.6891c-.02893-.02459-.0497-.05739-.05958-.09405-.00987-.03666-.00839-.07546.00427-.11126.00946-.03565.02999-.06737.05863-.09062s.06391-.03682.10074-.03875l5.57531-.48188c.23869-.02033.46725-.1056.66093-.24657.19368-.14096.34509-.33224.43782-.55312l2.17779-5.19c.0152-.03221.0392-.05944.0692-.07852.0301-.01908.0649-.02921.1005-.02921s.0705.01013.1005.02921c.0301.01908.0541.04631.0692.07852l2.1703 5.19c.0924.22035.2433.41128.4362.5522.193.14093.4208.2265.6588.24749l5.5753.48188c.0369.00193.0721.0155.1008.03875.0286.02325.0491.05497.0586.09062.0131.03544.0152.074.006.11063-.0092.03664-.0293.06964-.0576.09468z" fill="#000" fill-opacity=".8"/></svg>