<svg fill="none" height="24" viewBox="0 0 24 24" width="24" xmlns="http://www.w3.org/2000/svg"><path d="m21.9852 10.7229-4.2281 3.69 1.2665 5.4938c.067.2872.0479.5878-.055.8642-.1028.2763-.2849.5163-.5234.6897-.2385.1735-.5229.2728-.8175.2856-.2946.0127-.5865-.0617-.8391-.2139l-4.7915-2.9062-4.7813 2.9062c-.25259.1522-.54445.2266-.83909.2139-.29463-.0128-.57898-.1121-.81748-.2856-.23849-.1734-.42057-.4134-.52345-.6897-.10288-.2764-.122-.577-.05498-.8642l1.26469-5.4881-4.22906-3.6957c-.22368-.1929-.38543-.4475-.46495-.73201-.07953-.28447-.07329-.58609.01792-.86704.09121-.28094.26334-.5287.4948-.71221s.51195-.29459.80629-.31933l5.57437-.48281 2.17594-5.19c.1136-.27233.3053-.50495.5509-.66857.2455-.16362.534-.25093.8291-.25093s.5836.08731.8291.25093c.2456.16362.4373.39624.5509.66857l2.1825 5.19 5.5725.48281c.2943.02474.5748.13582.8063.31933s.4036.43127.4948.71221c.0912.28095.0974.58257.0179.86704-.0795.28451-.2413.53911-.4649.73201z" fill="#000" fill-opacity=".8"/></svg>