<svg fill="none" height="24" viewBox="0 0 24 24" width="24" xmlns="http://www.w3.org/2000/svg"><path d="m22.4258 9.12075c-.0908-.27995-.262-.527-.4922-.71037s-.5093-.29496-.8025-.32088l-5.5678-.48-2.1825-5.19c-.1136-.27233-.3053-.50495-.5509-.66857-.2455-.16362-.534-.25093-.8291-.25093s-.5836.08731-.8291.25093c-.2456.16362-.4373.39624-.5509.66857l-2.17594 5.19-5.57437.48281c-.29434.02474-.57483.13582-.80629.31933s-.40359.43127-.4948.71221c-.09121.28095-.09745.58257-.01792.86704.07952.28451.24127.53911.46495.73201l4.22906 3.6957-1.2675 5.4881c-.06702.2872-.0479.5878.05498.8642.10288.2763.28495.5163.52345.6897.2385.1735.52284.2728.81748.2856.29464.0127.5865-.0617.83909-.2139l4.78121-2.9062 4.7916 2.9062c.2526.1522.5445.2266.8391.2139.2946-.0128.579-.1121.8175-.2856.2385-.1734.4205-.4134.5234-.6897.1029-.2764.122-.577.055-.8642l-1.2666-5.4938 4.2282-3.69c.2236-.1935.385-.4489.4639-.73401.0789-.28507.0718-.58711-.0205-.86814zm-1.4269.46875-4.2281 3.69c-.2058.179-.3589.4107-.4428.6702s-.0955.537-.0334.8026l1.2703 5.4975-4.7878-2.9062c-.2336-.1423-.5019-.2175-.7754-.2175s-.5417.0752-.7753.2175l-4.78122 2.9062 1.26187-5.4937c.06202-.2656.05045-.5431-.03347-.8026s-.237-.4912-.44278-.6702l-4.23-3.68817c-.00034-.00281-.00034-.00564 0-.00844l5.5725-.48188c.27207-.02398.53242-.12178.75298-.28287.22056-.16108.39295-.37932.49859-.63119l2.17593-5.18344 2.175 5.18344c.1056.25187.278.47011.4986.63119.2205.16109.4809.25889.753.28287l5.5734.48188v.00656z" fill="#000" fill-opacity=".8"/></svg>