<svg fill="none" height="24" viewBox="0 0 24 24" width="24" xmlns="http://www.w3.org/2000/svg"><path d="m11.8125 12c.0001.0844-.0188.1678-.0553.2439-.0366.0761-.0897.143-.1556.1958l-3.75004 3c-.11661.0932-.26549.1363-.41387.1198-.14839-.0165-.28414-.0913-.37738-.2079s-.13633-.2655-.11981-.4139c.01653-.1484.09133-.2841.20794-.3774l3.20156-2.5603-3.20156-2.56031c-.05774-.04617-.10582-.10326-.1415-.16801s-.05825-.13589-.06644-.20937c-.00818-.07347-.00181-.14784.01874-.21885.02056-.07101.0549-.13728.10107-.19502s.10326-.10582.16801-.1415.13589-.05825.20937-.06644c.07347-.00818.14784-.00181.21885.01874.07101.02056.13728.0549.19502.10107l3.75004 2.99999c.0659.0528.119.1197.1556.1958.0365.0761.0554.1595.0553.2439zm4.6875 2.4375h-3.75c-.1492 0-.2923.0593-.3977.1648-.1055.1054-.1648.2485-.1648.3977s.0593.2923.1648.3977c.1054.1055.2485.1648.3977.1648h3.75c.1492 0 .2923-.0593.3977-.1648.1055-.1054.1648-.2485.1648-.3977s-.0593-.2923-.1648-.3977c-.1054-.1055-.2485-.1648-.3977-.1648zm5.0625-9.1875v13.5c0 .3481-.1383.6819-.3844.9281-.2462.2461-.58.3844-.9281.3844h-16.5c-.3481 0-.68194-.1383-.92808-.3844-.24614-.2462-.38442-.58-.38442-.9281v-13.5c0-.3481.13828-.68194.38442-.92808s.57998-.38442.92808-.38442h16.5c.3481 0 .6819.13828.9281.38442.2461.24614.3844.57998.3844.92808zm-1.125 0c0-.04973-.0198-.09742-.0549-.13258-.0352-.03517-.0829-.05492-.1326-.05492h-16.5c-.04973 0-.09742.01975-.13258.05492-.03517.03516-.05492.08285-.05492.13258v13.5c0 .0497.01975.0974.05492.1326.03516.0351.08285.0549.13258.0549h16.5c.0497 0 .0974-.0198.1326-.0549.0351-.0352.0549-.0829.0549-.1326z" fill="#000" fill-opacity=".8"/></svg>