<svg fill="none" height="24" viewBox="0 0 24 24" width="24" xmlns="http://www.w3.org/2000/svg"><path d="m20.25 3.75h-16.5c-.39782 0-.77936.15804-1.06066.43934s-.43934.66284-.43934 1.06066v13.5c0 .3978.15804.7794.43934 1.0607s.66284.4393 1.06066.4393h16.5c.3978 0 .7794-.158 1.0607-.4393s.4393-.6629.4393-1.0607v-13.5c0-.39782-.158-.77936-.4393-1.06066s-.6629-.43934-1.0607-.43934zm-8.5312 8.8359-3.75005 3c-.07695.0616-.16526.1074-.25991.1348s-.19377.036-.2917.0251c-.09794-.0109-.19278-.041-.27909-.0885-.08632-.0475-.16243-.1116-.22399-.1885-.06155-.077-.10735-.1653-.13478-.26-.02742-.0946-.03594-.1937-.02506-.2917.01089-.0979.04095-.1927.08848-.2791.04753-.0863.1116-.1624.18855-.2239l3.01785-2.4141-3.01785-2.41406c-.07695-.06156-.14102-.13767-.18855-.22399-.04753-.08631-.07759-.18115-.08848-.27909-.01088-.09793-.00236-.19705.02506-.2917.02743-.09465.07323-.18296.13478-.25991.06156-.07695.13767-.14102.22399-.18855.08631-.04753.18115-.07759.27909-.08848.09793-.01088.19705-.00236.2917.02506.09465.02743.18296.07323.25991.13478l3.75005 3.00004c.0879.0702.1589.1594.2077.2608s.0741.2125.0741.3251-.0253.2237-.0741.3251-.1198.1906-.2077.2608zm4.7812 3.1641h-3.75c-.1989 0-.3897-.079-.5303-.2197-.1407-.1406-.2197-.3314-.2197-.5303s.079-.3897.2197-.5303c.1406-.1407.3314-.2197.5303-.2197h3.75c.1989 0 .3897.079.5303.2197.1407.1406.2197.3314.2197.5303s-.079.3897-.2197.5303c-.1406.1407-.3314.2197-.5303.2197z" fill="#000" fill-opacity=".8"/></svg>