<svg fill="none" height="24" viewBox="0 0 24 24" width="24" xmlns="http://www.w3.org/2000/svg"><path d="m22.4999 5.25v6c.0001.1484-.0438.2935-.1262.417-.0824.1234-.1996.2197-.3367.2765s-.288.0716-.4336.0426c-.1455-.0289-.2792-.1005-.3841-.2055l-2.4694-2.47029-5.4693 5.47029c-.0697.0698-.1524.1251-.2435.1628-.091.0378-.1886.0572-.2872.0572-.0985 0-.1961-.0194-.2872-.0572-.091-.0377-.1737-.093-.2434-.1628l-3.21937-3.2203-6.21938 6.2203c-.14073.1408-.3316.2198-.53062.2198s-.3899-.079-.53063-.2198c-.14073-.1407-.21979-.3316-.21979-.5306s.07906-.3899.21979-.5306l6.75-6.75002c.06966-.06974.15238-.12506.24342-.1628.09105-.03774.18865-.05717.28721-.05717s.19616.01943.2872.05717c.09105.03774.17377.09306.24342.1628l3.21935 3.22032 4.9397-4.9397-2.4703-2.46937c-.105-.1049-.1765-.23859-.2055-.38415s-.0142-.29646.0427-.43357c.0568-.13712.153-.2543.2764-.3367.1235-.0824.2686-.12633.417-.12621h6c.1989 0 .3897.07902.5304.21967.1406.14065.2196.33142.2196.53033z" fill="#000" fill-opacity=".8"/></svg>