<svg fill="none" height="24" viewBox="0 0 24 24" width="24" xmlns="http://www.w3.org/2000/svg"><path d="m22.4999 5.25v6c0 .1989-.079.3897-.2196.5303-.1407.1407-.3315.2197-.5304.2197s-.3896-.079-.5303-.2197c-.1407-.1406-.2197-.3314-.2197-.5303v-4.18969l-7.7193 7.72029c-.0697.0698-.1524.1251-.2435.1628-.091.0378-.1886.0572-.2872.0572-.0985 0-.1961-.0194-.2872-.0572-.091-.0377-.1737-.093-.2434-.1628l-3.21937-3.2203-6.21938 6.2203c-.14073.1408-.3316.2198-.53062.2198s-.3899-.079-.53063-.2198c-.14073-.1407-.21979-.3316-.21979-.5306s.07906-.3899.21979-.5306l6.75-6.75003c.06966-.06973.15238-.12505.24342-.16279.09105-.03774.18865-.05717.28721-.05717s.19616.01943.2872.05717c.09105.03774.17377.09306.24342.16279l3.21935 3.22033 7.1897-7.1897h-4.1897c-.1989 0-.3896-.07902-.5303-.21967s-.2197-.33142-.2197-.53033.079-.38968.2197-.53033.3314-.21967.5303-.21967h6c.1989 0 .3897.07902.5304.21967.1406.14065.2196.33142.2196.53033z" fill="#000" fill-opacity=".8"/></svg>