<svg fill="none" height="24" viewBox="0 0 24 24" width="24" xmlns="http://www.w3.org/2000/svg"><path d="m22.3126 5.25v6c0 .1492-.0592.2923-.1647.3977-.1055.1055-.2486.1648-.3978.1648s-.2922-.0593-.3977-.1648c-.1055-.1054-.1648-.2485-.1648-.3977v-4.6425l-8.04 8.04c-.1054.1053-.2484.1645-.3975.1645-.149 0-.292-.0592-.3975-.1645l-3.35247-3.3516-6.3525 6.3516c-.10663.0994-.24767.1535-.39339.1509-.14573-.0026-.28477-.0616-.38783-.1647-.10306-.103-.16209-.2421-.16466-.3878s.05152-.2868.15088-.3934l6.75-6.75c.10547-.10534.24844-.16451.3975-.16451s.29203.05917.3975.16451l3.35247 3.3516 7.6425-7.6416h-4.6425c-.1492 0-.2922-.05926-.3977-.16475s-.1648-.24857-.1648-.39775.0593-.29226.1648-.39775.2485-.16475.3977-.16475h6c.1492 0 .2923.05926.3978.16475s.1647.24857.1647.39775z" fill="#000" fill-opacity=".8"/></svg>