<svg fill="none" height="24" viewBox="0 0 24 24" width="24" xmlns="http://www.w3.org/2000/svg"><path d="m21.6489 19.8751c-1.4278-2.4684-3.6281-4.2384-6.196-5.0775 1.2702-.7561 2.257-1.9083 2.809-3.2796.552-1.3712.6385-2.88576.2464-4.31099s-1.2412-2.68234-2.4169-3.57828c-1.1758-.89594-2.6131-1.38117-4.0913-1.38117s-2.91547.48523-4.09119 1.38117c-1.17573.89594-2.02485 2.15305-2.41696 3.57828s-.30554 2.93979.24642 4.31099c.55196 1.3713 1.53879 2.5235 2.80895 3.2796-2.56781.8381-4.76813 2.6081-6.19594 5.0775-.05236.0854-.08709.1804-.10214.2794s-.01012.2.01451.2971c.02462.0971.06844.1883.12887.2681.06043.0799.13625.1469.22297.197.08673.05.18261.0823.28199.0947.09937.0124.20024.0049.29663-.0223.0964-.0272.18638-.0734.26463-.1359s.14319-.1401.19098-.2281c1.76625-3.0525 4.88812-4.875 8.35028-4.875 3.4622 0 6.5841 1.8225 8.3503 4.875.0478.088.1128.1656.191.2281.0783.0625.1683.1087.2646.1359.0964.0272.1973.0347.2967.0223s.1952-.0447.282-.0947c.0867-.0501.1625-.1171.2229-.197.0605-.0798.1043-.171.1289-.2681s.0296-.1981.0145-.2971c-.015-.099-.0498-.194-.1021-.2794zm-14.89877-10.87499c0-1.03835.30791-2.05339.88479-2.91674.57687-.86336 1.39681-1.53627 2.35612-1.93363.95936-.39736 2.01496-.50133 3.03336-.29875 1.0184.20257 1.9538.70258 2.688 1.43681.7343.73422 1.2343 1.66968 1.4369 2.68809.2025 1.0184.0986 2.07401-.2988 3.03331s-1.0703 1.7792-1.9336 2.3561c-.8634.5769-1.8784.8848-2.9168.8848-1.3919-.0015-2.72639-.5551-3.71063-1.5393-.98425-.9843-1.53785-2.3188-1.53934-3.71069z" fill="#000" fill-opacity=".8"/></svg>