<svg fill="none" height="24" viewBox="0 0 24 24" width="24" xmlns="http://www.w3.org/2000/svg"><path d="m12 2.4375c-1.8913 0-3.74009.56083-5.31264 1.61157-1.57254 1.05074-2.79819 2.5442-3.52195 4.29152-.72377 1.74731-.91314 3.67001-.54416 5.52501.36897 1.8549 1.27971 3.5588 2.61705 4.8961s3.04121 2.2481 4.8962 2.6171c1.8549.3689 3.7776.1796 5.5249-.5442s3.2408-1.9494 4.2915-3.522c1.0508-1.5725 1.6116-3.4213 1.6116-5.3126-.003-2.53522-1.0114-4.96575-2.8041-6.75842-1.7926-1.79267-4.2232-2.8011-6.7584-2.80408zm-5.3025 16.125c.55012-.9148 1.32753-1.6716 2.25667-2.1971.92914-.5254 1.97843-.8016 3.04583-.8016s2.1167.2762 3.0458.8016c.9292.5255 1.7066 1.2823 2.2567 2.1971-1.4997 1.2161-3.3717 1.8797-5.3025 1.8797s-3.80284-.6636-5.3025-1.8797zm2.115-7.3125c0-.6304.18695-1.2467.5372-1.77088.35024-.52418.8481-.93273 1.4305-1.17399.5824-.24125 1.2233-.30437 1.8417-.18138.6183.12299 1.1862.42657 1.632.87235s.7494 1.0137.8724 1.632c.1229.6184.0598 1.2593-.1814 1.8417-.2413.5824-.6498 1.0803-1.174 1.4305-.5242.3503-1.1405.5372-1.7709.5372-.8454 0-1.6561-.3358-2.2539-.9336-.59777-.5978-.9336-1.4085-.9336-2.2539zm9.3291 6.5287c-.8838-1.3742-2.2049-2.4106-3.75-2.9418.7704-.5132 1.3553-1.2607 1.6681-2.1319.3129-.8713.337-1.8201.069-2.70617-.2681-.88607-.8142-1.66235-1.5575-2.21407-.7434-.55173-1.6445-.84961-2.5703-.84961-.9257 0-1.8268.29788-2.57018.84961-.74335.55172-1.28943 1.328-1.5575 2.21407-.26808.88607-.24391 1.83487.06892 2.70617.31282.8712.89771 1.6187 1.66818 2.1319-1.54513.5312-2.86619 1.5676-3.75 2.9418-1.12985-1.1989-1.88398-2.7025-2.16934-4.325-.28536-1.6226-.08947-3.2932.5635-4.8057.65297-1.51253 1.73445-2.80082 3.11102-3.70591 1.37656-.90509 2.988-1.38739 4.6354-1.38739 1.6475 0 3.2589.4823 4.6355 1.38739s2.458 2.19338 3.111 3.70591c.653 1.5125.8489 3.1831.5635 4.8057-.2854 1.6225-1.0395 3.1261-2.1693 4.325z" fill="#000" fill-opacity=".8"/></svg>