<svg fill="none" height="24" viewBox="0 0 24 24" width="24" xmlns="http://www.w3.org/2000/svg"><path d="m16.125 11.25c0 .8158-.2419 1.6134-.6952 2.2917-.4532.6784-1.0975 1.2071-1.8512 1.5193-.7538.3122-1.5832.3939-2.3833.2347-.8002-.1591-1.53522-.552-2.11211-1.1289s-.96976-1.3119-1.12892-2.1121c-.15917-.8001-.07748-1.6295.23473-2.38327.31221-.75374.84092-1.39798 1.51928-1.85124.67832-.45326 1.47592-.69519 2.29172-.69519 1.0936.00124 2.1421.43624 2.9154 1.20955.7734.77332 1.2084 1.82185 1.2096 2.91545zm5.625.75c0 1.9284-.5718 3.8134-1.6432 5.4168-1.0713 1.6034-2.5941 2.8531-4.3756 3.591-1.7816.738-3.742.9311-5.6333.5549-1.89134-.3762-3.62862-1.3048-4.99219-2.6684-1.36356-1.3636-2.29216-3.1009-2.66836-4.9922-.37621-1.8913-.18313-3.8517.55483-5.63326.73795-1.78158 1.98764-3.30433 3.59101-4.37567 1.60338-1.07134 3.48841-1.64317 5.41681-1.64317 2.585.00273 5.0634 1.03084 6.8913 2.85872 1.8279 1.82789 2.856 4.30626 2.8587 6.89128zm-1.5 0c-.0012-1.1104-.2263-2.20923-.6619-3.23066-.4356-1.02144-1.0727-1.94453-1.8733-2.71409-.8005-.76955-1.748-1.36976-2.7858-1.76472-1.0379-.39497-2.1447-.57658-3.2543-.53397-4.41563.17063-7.93688 3.84844-7.9247 8.26684.00424 2.0115.74609 3.9515 2.085 5.4525.54528-.7908 1.23792-1.4691 2.04-1.9978.06839-.0451.14969-.0667.23146-.0612.08178.0054.15953.0374.22136.0912 1.01923.8816 2.32178 1.3668 3.66938 1.3668s2.6501-.4852 3.6694-1.3668c.0618-.0538.1395-.0858.2213-.0912.0818-.0055.1631.0161.2315.0612.8031.5284 1.4967 1.2067 2.0428 1.9978 1.3455-1.5065 2.0888-3.456 2.0878-5.4759z" fill="#000" fill-opacity=".8"/></svg>