<svg fill="none" height="24" viewBox="0 0 24 24" width="24" xmlns="http://www.w3.org/2000/svg"><path d="m12 2.25c-1.9284 0-3.81343.57183-5.41681 1.64317-1.60337 1.07134-2.85306 2.59409-3.59101 4.37567-.73796 1.78156-.93104 3.74196-.55483 5.63326.3762 1.8913 1.3048 3.6286 2.66836 4.9922 1.36357 1.3636 3.10085 2.2922 4.99219 2.6684 1.8913.3762 3.8517.1831 5.6333-.5549 1.7815-.7379 3.3043-1.9876 4.3756-3.591 1.0714-1.6034 1.6432-3.4884 1.6432-5.4168-.0027-2.58502-1.0308-5.06339-2.8587-6.89128-1.8279-1.82788-4.3063-2.85599-6.8913-2.85872zm-5.055 16.2656c.54257-.8485 1.29001-1.5468 2.17343-2.0305.88347-.4838 1.87437-.7373 2.88157-.7373s1.9982.2535 2.8816.7373c.8834.4837 1.6308 1.182 2.1734 2.0305-1.4453 1.1241-3.224 1.7343-5.055 1.7343s-3.60968-.6102-5.055-1.7343zm2.055-7.2656c0-.5933.17595-1.1734.5056-1.66671.32964-.49335.7982-.87787 1.3464-1.10493.5481-.22706 1.1513-.28647 1.7333-.17072.5819.11576 1.1165.40148 1.536.82104.4196.41956.7053.95412.8211 1.53602.1157.582.0563 1.1852-.1708 1.7334-.227.5481-.6115 1.0167-1.1049 1.3463-.4933.3297-1.0734.5056-1.6667.5056-.7956 0-1.5587-.3161-2.12132-.8787-.56261-.5626-.87868-1.3257-.87868-2.1213zm9.165 6.2259c-.8365-1.2121-2.0126-2.1498-3.3806-2.6953.7348-.5787 1.271-1.3721 1.534-2.2698.2631-.8976.2398-1.8549-.0664-2.73873-.3063-.88382-.8804-1.65024-1.6424-2.19267-.7621-.54244-1.6742-.83392-2.6096-.83392s-1.8475.29148-2.60956.83392c-.76205.54243-1.33612 1.30885-1.64239 2.19267-.30626.88383-.3295 1.84113-.06648 2.73873.26302.8977.79923 1.6911 1.53406 2.2698-1.36798.5455-2.54416 1.4832-3.38063 2.6953-1.05696-1.1886-1.7478-2.6574-1.98933-4.2295-.24152-1.5721-.02343-3.1806.62801-4.63162.65144-1.45106 1.70845-2.68286 3.04377-3.54709 1.33531-.86423 2.89195-1.32402 4.48255-1.32402s3.1473.45979 4.4826 1.32402 2.3923 2.09603 3.0437 3.54709c.6515 1.45102.8696 3.05952.628 4.63162-.2415 1.5721-.9323 3.0409-1.9893 4.2295z" fill="#000" fill-opacity=".8"/></svg>