<svg fill="none" height="24" viewBox="0 0 24 24" width="24" xmlns="http://www.w3.org/2000/svg"><path d="m21.4867 19.9687c-1.4822-2.5612-3.8091-4.3584-6.5128-5.1206 1.3145-.6682 2.3657-1.7596 2.984-3.0983.6183-1.3388.7677-2.84669.4241-4.2807-.3435-1.43402-1.16-2.71054-2.3178-3.62373s-2.5895-1.40982-4.0641-1.40982-2.90618.49663-4.06399 1.40982-1.97432 2.18971-2.31787 3.62373c-.34356 1.43401-.19414 2.9419.42417 4.2807.61831 1.3387 1.66947 2.4301 2.98398 3.0983-2.70375.7613-5.03062 2.5584-6.51281 5.1206-.0407.0641-.06803.1356-.08034.2105s-.00936.1514.00869.2251.05082.143.09633.2037c.04552.0607.10284.1115.16852.1495s.13836.0622.21367.0714c.07531.0091.1517.003.22456-.0182.07285-.0211.14069-.0568.19941-.1048s.10712-.1074.14228-.1747c1.80094-3.1115 4.98282-4.9687 8.5134-4.9687 3.5307 0 6.7125 1.8572 8.5135 4.9687.0351.0673.0835.1267.1423.1747.0587.048.1265.0837.1994.1048.0728.0212.1492.0273.2245.0182.0753-.0092.148-.0334.2137-.0714s.123-.0888.1685-.1495.0783-.13.0963-.2037c.0181-.0737.0211-.1502.0087-.2251-.0123-.0749-.0396-.1464-.0803-.2105zm-14.92406-10.96872c0-1.07543.31891-2.12672.91639-3.02091s1.4467-1.59113 2.44027-2.00268c.9936-.41155 2.0869-.51923 3.1416-.30943 1.0548.20981 2.0237.72768 2.7841 1.48813.7605.76045 1.2784 1.72932 1.4882 2.78409s.1021 2.14812-.3095 3.14162c-.4115.9936-1.1085 1.8428-2.0026 2.4403-.8942.5975-1.9455.9164-3.021.9164-1.4415-.0018-2.82358-.5752-3.84293-1.5945-1.01936-1.0194-1.59279-2.4014-1.59453-3.84302z" fill="#000" fill-opacity=".8"/></svg>