<svg fill="none" height="24" viewBox="0 0 24 24" width="24" xmlns="http://www.w3.org/2000/svg"><path d="m21.6499 20.6251c-.0658.114-.1605.2087-.2746.2746-.114.0658-.2434.1004-.3751.1004h-17.99999c-.13159-.0001-.26083-.0349-.37473-.1008-.11391-.0658-.20848-.1605-.27421-.2745-.06574-.114-.10033-.2433-.10029-.3749.00003-.1316.03468-.2608.10048-.3748 1.42781-2.4684 3.62812-4.2384 6.19593-5.0775-1.27015-.7561-2.25698-1.9083-2.80894-3.2796-.55197-1.3712-.63854-2.88576-.24642-4.31099.39211-1.42523 1.24123-2.68234 2.41695-3.57828s2.61302-1.38117 4.09122-1.38117 2.9155.48523 4.0912 1.38117c1.1758.89594 2.0249 2.15305 2.417 3.57828s.3055 2.93979-.2464 4.31099c-.552 1.3713-1.5388 2.5235-2.809 3.2796 2.5678.8391 4.7681 2.6091 6.196 5.0775.0659.1139.1007.2432.1009.3749.0002.1316-.0343.261-.1.3751z" fill="#000" fill-opacity=".8"/></svg>