<svg fill="none" height="24" width="24" xmlns="http://www.w3.org/2000/svg"><clipPath id="a"><path d="M0 0h24v24H0z"/></clipPath><g clip-path="url(#a)"><path d="M18.533 4.25c.228.552.666.99 1.217 1.219l1.931.8a2.25 2.25 0 0 1 1.218 2.94l-.8 1.93a2.246 2.246 0 0 0 .001 1.723l.798 1.93a2.249 2.249 0 0 1-1.218 2.94l-1.93.8a2.25 2.25 0 0 0-1.218 1.217l-.8 1.931a2.25 2.25 0 0 1-2.94 1.218l-1.93-.8a2.25 2.25 0 0 0-1.722.002l-1.932.799a2.25 2.25 0 0 1-2.938-1.217l-.8-1.932a2.25 2.25 0 0 0-1.217-1.219l-1.932-.8a2.25 2.25 0 0 1-1.218-2.938l.8-1.93A2.25 2.25 0 0 0 1.9 11.14l-.798-1.934a2.25 2.25 0 0 1 1.218-2.94l1.93-.8A2.25 2.25 0 0 0 5.47 4.252l.8-1.932a2.25 2.25 0 0 1 2.94-1.217l1.93.8a2.25 2.25 0 0 0 1.722-.002l1.933-.797a2.25 2.25 0 0 1 2.939 1.217l.8 1.933z" fill="#0788f5"/><path clip-rule="evenodd" d="M16.7 8.854a1.126 1.126 0 0 0-1.9-1.209l-4.405 6.923-2.016-2.52a1.125 1.125 0 1 0-1.758 1.405l3 3.75a1.126 1.126 0 0 0 1.829-.099z" fill="#fff" fill-rule="evenodd"/></g></svg>