<svg fill="none" height="24" viewBox="0 0 24 24" width="24" xmlns="http://www.w3.org/2000/svg"><path d="m23.6034 6.84375c-.1196-.06411-.2543-.09456-.3899-.08812-.1355.00644-.2668.04953-.3798.12468l-3.3337 2.21813v-2.34844c0-.39782-.158-.77936-.4393-1.06066s-.6629-.43934-1.0607-.43934h-15c-.39782 0-.77936.15804-1.06066.43934s-.43934.66284-.43934 1.06066v10.5c0 .3978.15804.7794.43934 1.0607s.66284.4393 1.06066.4393h15c.3978 0 .7794-.158 1.0607-.4393s.4393-.6629.4393-1.0607v-2.3438l3.3337 2.2229c.1239.0804.2687.1224.4163.1209.1989 0 .3897-.079.5303-.2197.1407-.1406.2197-.3314.2197-.5303v-9c-.0009-.13494-.0383-.26713-.1081-.38263s-.1694-.21003-.2885-.27362zm-5.6034 10.40625h-15v-10.5h15zm4.5-2.1516-3-1.9996v-2.1976l3-1.99495z" fill="#000" fill-opacity=".8"/></svg>