<svg fill="none" height="24" viewBox="0 0 24 24" width="24" xmlns="http://www.w3.org/2000/svg"><path d="m18 6.75v10.5c0 .3978-.158.7794-.4393 1.0607s-.6629.4393-1.0607.4393h-13.5c-.39782 0-.77936-.158-1.06066-.4393s-.43934-.6629-.43934-1.0607v-10.5c0-.39782.15804-.77936.43934-1.06066s.66284-.43934 1.06066-.43934h13.5c.3978 0 .7794.15804 1.0607.43934s.4393.66284.4393 1.06066zm5.4375.02344c-.1058-.02589-.2159-.02909-.323-.00938-.1072.01972-.2089.06189-.2986.12375l-3.149 2.09907c-.0514.03427-.0935.0807-.1226.13516s-.0443.11527-.0443.17702v5.40184c0 .0618.0152.1226.0443.1771.0291.0544.0712.1009.1226.1351l3.1668 2.1113c.1186.079.2572.1227.3996.1259.1425.0031.2829-.0344.4048-.1081.1128-.0717.2053-.1712.2687-.2889s.0954-.2497.0932-.3833v-8.97c.0001-.16634-.0551-.32798-.157-.45951-.1018-.13152-.2444-.22547-.4055-.26705z" fill="#000" fill-opacity=".8"/></svg>