<svg fill="none" height="24" viewBox="0 0 24 24" width="24" xmlns="http://www.w3.org/2000/svg"><path d="m23.5153 7.00406c-.0898-.04802-.1909-.07077-.2926-.06581-.1017.00495-.2002.03742-.2849.09394l-3.6253 2.41687v-2.69906c0-.3481-.1383-.68194-.3844-.92808-.2462-.24614-.58-.38442-.9281-.38442h-15c-.3481 0-.68194.13828-.92808.38442s-.38442.57998-.38442.92808v10.5c0 .3481.13828.6819.38442.9281.24614.2461.57998.3844.92808.3844h15c.3481 0 .6819-.1383.9281-.3844.2461-.2462.3844-.58.3844-.9281v-2.6991l3.6253 2.4179c.0848.0565.1833.089.2851.0939s.203-.0179.2928-.0661c.0898-.0481.1649-.1197.2171-.2072.0523-.0875.0799-.1875.0797-.2894v-9c0-.10182-.0277-.20173-.08-.28907s-.1274-.15884-.2172-.20687zm-5.3278 10.24594c0 .0497-.0198.0974-.0549.1326-.0352.0351-.0829.0549-.1326.0549h-15c-.04973 0-.09742-.0198-.13258-.0549-.03517-.0352-.05492-.0829-.05492-.1326v-10.5c0-.04973.01975-.09742.05492-.13258.03516-.03517.08285-.05492.13258-.05492h15c.0497 0 .0974.01975.1326.05492.0351.03516.0549.08285.0549.13258zm4.5-1.8009-3.375-2.25v-2.3982l3.375-2.24996z" fill="#000" fill-opacity=".8"/></svg>