<svg width="24" height="24" fill="none" xmlns="http://www.w3.org/2000/svg"><path d="M22.038 17.727l-8.2-14.238a2.133 2.133 0 0 0-3.676 0l-8.2 14.238a2.018 2.018 0 0 0 0 2.036 2.095 2.095 0 0 0 1.84 1.05h16.396a2.095 2.095 0 0 0 1.838-1.05 2.018 2.018 0 0 0 .002-2.036zm-.976 1.473a.98.98 0 0 1-.864.487H3.801a.98.98 0 0 1-.863-.487.892.892 0 0 1 0-.911L11.136 4.05a1.007 1.007 0 0 1 1.727 0l8.2 14.238a.89.89 0 0 1-.001.91zm-9.625-5.7V9.75a.563.563 0 0 1 1.125 0v3.75a.562.562 0 1 1-1.125 0zm1.5 3.375a.938.938 0 1 1-1.875 0 .938.938 0 0 1 1.875 0z" fill="#000"/></svg>