<svg width="24" height="24" fill="none" xmlns="http://www.w3.org/2000/svg"><mask id="a" fill="#fff"><path fill-rule="evenodd" clip-rule="evenodd" d="M12 22c5.523 0 10-4.477 10-10S17.523 2 12 2 2 6.477 2 12s4.477 10 10 10zm-.75-14.5v5.25h6.25v-1.5h-4.75V7.5h-1.5z"/></mask><path fill-rule="evenodd" clip-rule="evenodd" d="M12 22c5.523 0 10-4.477 10-10S17.523 2 12 2 2 6.477 2 12s4.477 10 10 10zm-.75-14.5v5.25h6.25v-1.5h-4.75V7.5h-1.5z" fill="#000"/><path d="M11.25 7.5V6h-1.5v1.5h1.5zm0 5.25h-1.5v1.5h1.5v-1.5zm6.25 0v1.5H19v-1.5h-1.5zm0-1.5H19v-1.5h-1.5v1.5zm-4.75 0h-1.5v1.5h1.5v-1.5zm0-3.75h1.5V6h-1.5v1.5zM20.5 12a8.5 8.5 0 0 1-8.5 8.5v3c6.351 0 11.5-5.149 11.5-11.5h-3zM12 3.5a8.5 8.5 0 0 1 8.5 8.5h3C23.5 5.649 18.351.5 12 .5v3zM3.5 12A8.5 8.5 0 0 1 12 3.5v-3C5.649.5.5 5.649.5 12h3zm8.5 8.5A8.5 8.5 0 0 1 3.5 12h-3c0 6.351 5.149 11.5 11.5 11.5v-3zm.75-8.5V7.5h-3V12h3zm0 .75V12h-3v.75h3zm-.75-1.5h-.75v3H12v-3zm5.5 0H12v3h5.5v-3zm-1.5 0v1.5h3v-1.5h-3zm-3.25 1.5h4.75v-3h-4.75v3zm-1.5-5.25v3.75h3V7.5h-3zm0 1.5h1.5V6h-1.5v3z" fill="#000" mask="url(#a)"/></svg>