<svg width="24" height="24" viewBox="0 0 24 24" fill="none" xmlns="http://www.w3.org/2000/svg">
<path d="M21 12C21 7.02944 16.9706 3 12 3C7.02943 3 3 7.02944 3 12C3 16.4922 6.29117 20.2155 10.5938 20.8907V14.6016H8.30859V12H10.5938V10.0172C10.5938 7.76157 11.9374 6.51563 13.9932 6.51563C14.9779 6.51563 16.0078 6.69141 16.0078 6.69141V8.90626H14.8729C13.7549 8.90626 13.4062 9.60002 13.4062 10.3118V12H15.9023L15.5033 14.6016H13.4062V20.8907C17.7088 20.2155 21 16.4922 21 12Z" fill="#1877F2"/>
<path d="M15.5033 14.6016L15.9023 12H13.4062V10.3118C13.4062 9.60003 13.7549 8.90627 14.8729 8.90627H16.0078V6.69142C16.0078 6.69142 14.9778 6.51564 13.9932 6.51564C11.9374 6.51564 10.5937 7.76158 10.5937 10.0172V12H8.30859V14.6016H10.5937V20.8907C11.0519 20.9626 11.5216 21 12 21C12.4784 21 12.948 20.9626 13.4062 20.8907V14.6016H15.5033Z" fill="white"/>
</svg>
