<svg width="24" height="24" viewBox="0 0 24 24" fill="none" xmlns="http://www.w3.org/2000/svg">
<path d="M10.9002 2.1C6.30018 2.6 2.60018 6.3 2.10018 10.8C1.50018 15.8 4.60018 20.1 9.00018 21.5V19.2C9.00018 19.2 8.60018 19.3 8.10018 19.3C6.70018 19.3 6.10018 18.1 6.00018 17.4C5.90018 17 5.70018 16.7 5.40018 16.4C5.10018 16.3 5.00018 16.3 5.00018 16.2C5.00018 16 5.30018 16 5.40018 16C6.00018 16 6.50018 16.7 6.70018 17C7.20018 17.8 7.80018 18 8.10018 18C8.50019 18 8.80018 17.9 9.00018 17.8C9.10018 17.1 9.40018 16.4 10.0002 16C7.70018 15.5 6.00018 14.2 6.00018 12C6.00018 10.9 6.50018 9.8 7.20018 9C7.10018 8.8 7.00018 8.3 7.00018 7.6C7.00018 7.2 7.00018 6.6 7.30018 6C7.30018 6 8.70019 6 10.1002 7.3C10.6002 7.1 11.3002 7 12.0002 7C12.7002 7 13.4002 7.1 14.0002 7.3C15.3002 6 16.8002 6 16.8002 6C17.0002 6.6 17.0002 7.2 17.0002 7.6C17.0002 8.4 16.9002 8.8 16.8002 9C17.5002 9.8 18.0002 10.8 18.0002 12C18.0002 14.2 16.3002 15.5 14.0002 16C14.6002 16.5 15.0002 17.4 15.0002 18.3V21.6C19.1002 20.3 22.0002 16.5 22.0002 12.1C22.0002 6.1 16.9002 1.4 10.9002 2.1Z" fill="#333333"/>
</svg>
