<svg width="149" height="24" fill="none" xmlns="http://www.w3.org/2000/svg"><path d="M12 2.25A9.75 9.75 0 1 0 21.75 12 9.76 9.76 0 0 0 12 2.25zm3.972 11.177l1.776-.634a.751.751 0 0 1 .504 1.414l-1.451.517.424 1.582a.752.752 0 0 1-.725.944.75.75 0 0 1-.725-.556l-.522-1.95L12.75 13.3v2.89l1.28 1.28a.75.75 0 1 1-1.06 1.062l-.97-.97-.97.97a.75.75 0 1 1-1.06-1.062l1.28-1.28V13.3l-2.503 1.445-.522 1.95a.75.75 0 0 1-1.45-.388l.424-1.582-1.451-.517a.75.75 0 0 1 .504-1.414l1.776.634L10.5 12l-2.472-1.427-1.776.634a.75.75 0 0 1-.504-1.414l1.451-.517-.424-1.582a.75.75 0 1 1 1.45-.388l.522 1.95L11.25 10.7V7.81L9.97 6.53a.75.75 0 0 1 1.06-1.062l.97.97.97-.97a.75.75 0 1 1 1.06 1.062l-1.28 1.28v2.89l2.503-1.445.522-1.95a.75.75 0 0 1 1.45.388L16.8 9.276l1.451.517a.75.75 0 1 1-.504 1.414l-1.776-.634L13.5 12l2.472 1.427z" fill="#3B82F6"/><path d="M139.824 18.546V5.455h8.514v1.988h-6.143v3.553h5.702v1.988h-5.702v3.574h6.194v1.988h-8.565zM123.763 5.455h2.902l3.887 9.485h.153l3.886-9.485h2.902v13.09h-2.275V9.553h-.122l-3.618 8.955h-1.7l-3.618-8.974h-.121v9.013h-2.276V5.455zm-11.092 13.09h-2.531l4.608-13.09h2.928l4.615 13.09h-2.531L116.263 8.14h-.102l-3.49 10.407zm.083-5.132h6.903v1.905h-6.903v-1.905zm-4.096-7.958v13.09h-2.11L100.38 9.63h-.109v8.917H97.9V5.455h2.122l6.162 8.923h.115V5.455h2.359zm-23.325 13.09h-4.436V5.456h4.525c1.3 0 2.416.262 3.35.786a5.256 5.256 0 0 1 2.16 2.243c.503.976.754 2.144.754 3.503 0 1.364-.253 2.536-.76 3.516a5.257 5.257 0 0 1-2.18 2.256c-.946.524-2.084.787-3.413.787zm-2.065-2.051h1.95c.911 0 1.672-.166 2.281-.499a3.19 3.19 0 0 0 1.375-1.502c.307-.67.46-1.504.46-2.506 0-1.001-.153-1.832-.46-2.493-.307-.664-.76-1.16-1.362-1.489-.596-.332-1.338-.499-2.224-.499h-2.02v8.988zm-4.704-11.04v13.091h-2.109L70.287 9.63h-.109v8.917h-2.371V5.455h2.122l6.162 8.923h.115V5.455h2.358zm-21.85 13.091h-2.53l4.608-13.09h2.927l4.615 13.09h-2.53L60.306 8.14h-.103l-3.49 10.407zm.084-5.132H63.7v1.905h-6.904v-1.905zm-13.22 5.133V5.455h4.91c1.005 0 1.849.174 2.53.524.687.35 1.204.84 1.554 1.47.353.626.53 1.357.53 2.192 0 .84-.179 1.569-.537 2.187-.353.613-.875 1.088-1.566 1.425-.69.332-1.538.498-2.544.498H44.96v-1.968h3.177c.588 0 1.07-.081 1.444-.243.375-.166.652-.407.831-.722.183-.32.275-.712.275-1.177 0-.464-.092-.86-.275-1.189a1.748 1.748 0 0 0-.837-.754c-.375-.175-.859-.262-1.451-.262H45.95v11.11h-2.372zm6.763-5.932l3.24 5.931h-2.646l-3.183-5.931h2.589zM32 18.545V5.456h5.011c.946 0 1.733.149 2.359.447.63.294 1.102.697 1.413 1.208.315.511.473 1.091.473 1.739 0 .532-.103.988-.307 1.368a2.58 2.58 0 0 1-.825.914 3.49 3.49 0 0 1-1.157.505v.128c.465.025.91.168 1.336.428.43.255.782.618 1.055 1.086.273.47.409 1.036.409 1.7 0 .678-.164 1.288-.492 1.829-.328.537-.823.96-1.483 1.272-.66.311-1.492.466-2.493.466H32zm2.371-1.981h2.55c.862 0 1.482-.164 1.861-.492.384-.333.575-.759.575-1.279a1.957 1.957 0 0 0-1.106-1.79c-.353-.183-.775-.274-1.265-.274H34.37v3.835zm0-5.542h2.346c.41 0 .778-.075 1.106-.224.328-.153.586-.368.774-.645.191-.282.287-.614.287-.997 0-.508-.179-.925-.537-1.253-.353-.328-.88-.492-1.578-.492H34.37v3.611z" fill="#000" fill-opacity=".8"/></svg>