<svg width="24" height="24" fill="none" xmlns="http://www.w3.org/2000/svg"><path d="M12 2.25A9.75 9.75 0 1 0 21.75 12 9.76 9.76 0 0 0 12 2.25zm3.972 11.177l1.776-.634a.751.751 0 0 1 .504 1.414l-1.451.517.424 1.582a.752.752 0 0 1-.725.944.75.75 0 0 1-.725-.556l-.522-1.95L12.75 13.3v2.89l1.28 1.28a.75.75 0 1 1-1.06 1.062l-.97-.97-.97.97a.75.75 0 1 1-1.06-1.062l1.28-1.28V13.3l-2.503 1.445-.522 1.95a.75.75 0 0 1-1.45-.388l.424-1.582-1.451-.517a.75.75 0 0 1 .504-1.414l1.776.634L10.5 12l-2.472-1.427-1.776.634a.75.75 0 0 1-.504-1.414l1.451-.517-.424-1.582a.75.75 0 1 1 1.45-.388l.522 1.95L11.25 10.7V7.81L9.97 6.53a.75.75 0 0 1 1.06-1.062l.97.97.97-.97a.75.75 0 1 1 1.06 1.062l-1.28 1.28v2.89l2.503-1.445.522-1.95a.75.75 0 0 1 1.45.388L16.8 9.276l1.451.517a.75.75 0 1 1-.504 1.414l-1.776-.634L13.5 12l2.472 1.427z" fill="#3B82F6"/></svg>